SplineFontDB: 3.0
FontName: Klaudia-BoldOblique
FullName: Klaudia Bold Oblique
FamilyName: Klaudia
Weight: Bold
Copyright: Copyright (c) 2020-2024 by Wojciech Kalinowski "wmk69" with Reserved Font Name "Klaudia-BoldOblique".\nThis Font Software is licensed under the SIL Open Font License, Version 1.1.
Version: 3.1.0; 2021-05-10
ItalicAngle: -12
UnderlinePosition: -80
UnderlineWidth: 320
Ascent: 1638
Descent: 410
InvalidEm: 0
LayerCount: 2
Layer: 0 1 "Warstwa t+AUIA-a" 1
Layer: 1 1 "Plan pierwszy" 0
XUID: [1021 783 23647091 10727182]
StyleMap: 0x0021
FSType: 0
OS2Version: 3
OS2_WeightWidthSlopeOnly: 0
OS2_UseTypoMetrics: 1
CreationTime: 1260698820
ModificationTime: 1620665513
PfmFamily: 33
TTFWeight: 700
TTFWidth: 5
LineGap: 300
VLineGap: 0
Panose: 2 13 8 2 5 5 3 13 2 4
OS2TypoAscent: 2000
OS2TypoAOffset: 0
OS2TypoDescent: -450
OS2TypoDOffset: 0
OS2TypoLinegap: 300
OS2WinAscent: 2000
OS2WinAOffset: 0
OS2WinDescent: 450
OS2WinDOffset: 0
HheadAscent: 2000
HheadAOffset: 0
HheadDescent: -450
HheadDOffset: 0
OS2SubXSize: 1434
OS2SubYSize: 1331
OS2SubXOff: 0
OS2SubYOff: 287
OS2SupXSize: 1434
OS2SupYSize: 1331
OS2SupXOff: 0
OS2SupYOff: 977
OS2StrikeYSize: 102
OS2StrikeYPos: 512
OS2CapHeight: 1510
OS2XHeight: 1100
OS2Vendor: '    '
OS2CodePages: 20000093.00000000
OS2UnicodeRanges: 8000002f.4000204b.00000000.00000000
Lookup: 258 0 0 "'kern' Horizontal Kerning lookup 0" { "'kern' Horizontal Kerning lookup 0-1 subtable" [307,0,4] } ['kern' ('DFLT' <'dflt' > 'grek' <'dflt' > 'latn' <'dflt' > ) ]
MarkAttachClasses: 1
DEI: 91125
KernClass2: 68 54 "'kern' Horizontal Kerning lookup 0-1 subtable"
 84 A Agrave Aacute Acircumflex Atilde Adieresis Aring Amacron Abreve Aogonek Aringacute
 17 B uni1E02 uni1E9E
 137 C E AE Ccedilla Egrave Eacute Ecircumflex Edieresis Cacute Ccircumflex Cdotaccent Ccaron Emacron Ebreve Edotaccent Eogonek Ecaron AEacute
 122 D O Q Eth Ograve Oacute Ocircumflex Otilde Odieresis Oslash Dcaron Dcroat Omacron Obreve Ohungarumlaut Oslashacute uni1E0A

StartChar: .notdef
Encoding: 65536 -1 0
Width: 1054
Flags: W
HStem: 0 118<333 771> 1392 118<604 1042>
VStem: 120 814<0 814> 441 814<696 1510>
DStem2: 120 0 307.918 0 0.207912 0.978148<159.707 1462.21> 745.918 0 934 0 0.207912 0.978148<120.636 1423.14>
LayerCount: 2
Fore
SplineSet
120 0 m 1,0,-1
 441 1510 l 1,1,-1
 1255 1510 l 1,2,-1
 934 0 l 1,3,-1
 120 0 l 1,0,-1
333 118 m 1,4,-1
 771 118 l 1,5,-1
 1042 1392 l 1,6,-1
 604 1392 l 1,7,-1
 333 118 l 1,4,-1
EndSplineSet
Validated: 1
EndChar

StartChar: exclam
Encoding: 33 33 4
Width: 792
GlyphClass: 2
Flags: W
HStem: -20 370<341.695 520.234> 1490 20G<533.019 898>
VStem: 245 653
LayerCount: 2
Fore
SplineSet
392 -20 m 0,0,1
 314 -20 314 -20 274 34 c 0,2,3
 245 73 245 73 245 124 c 0,4,5
 245 144 245 144 249 165 c 0,6,7
 265 242 265 242 329.5 296 c 128,-1,8
 394 350 394 350 470 350 c 128,-1,9
 546 350 546 350 588 296 c 0,10,11
 617 258 617 258 617 206 c 0,12,13
 617 186 617 186 613 165 c 0,14,15
 597 88 597 88 532.5 34 c 128,-1,16
 468 -20 468 -20 392 -20 c 0,0,1
536 1510 m 1,17,-1
 898 1510 l 1,18,-1
 606 450 l 1,19,-1
 378 450 l 1,20,-1
 536 1510 l 1,17,-1
EndSplineSet
Validated: 1
EndChar

StartChar: quotedbl
Encoding: 34 34 5
Width: 580
GlyphClass: 2
Flags: W
HStem: 1094 456<349 453 689 793>
VStem: 253 200<1094 1294> 349 200<1350 1550> 593 200<1094 1294> 689 200<1350 1550>
DStem2: 253 1094 453 1094 0.207912 0.978148<41.5823 465.995> 593 1094 793 1094 0.207912 0.978148<41.5823 465.995>
LayerCount: 2
Fore
SplineSet
689 1550 m 1,0,-1
 889 1550 l 1,1,-1
 793 1094 l 1,2,-1
 593 1094 l 1,3,-1
 689 1550 l 1,0,-1
349 1550 m 1,4,-1
 549 1550 l 1,5,-1
 453 1094 l 1,6,-1
 253 1094 l 1,7,-1
 349 1550 l 1,4,-1
EndSplineSet
Validated: 1
EndChar

StartChar: numbersign
Encoding: 35 35 6
Width: 1349
GlyphClass: 2
Flags: W
HStem: 474 171<257 495 702 885 1092 1330> 864 171<340 578 785 968 1175 1413>
VStem: 437 171<200 371> 672 171<1138 1309> 827 171<200 371> 1062 171<1138 1309>
DStem2: 437 200 608 200 0.207912 0.978148<35.5529 280.071 490.372 678.806 889.107 1133.62> 827 200 998 200 0.207912 0.978148<35.5529 280.071 490.372 678.806 889.107 1133.62>
LayerCount: 2
Fore
SplineSet
672 1309 m 1,0,-1
 843 1309 l 1,1,-1
 785 1035 l 1,2,-1
 1004 1035 l 1,3,-1
 1062 1309 l 1,4,-1
 1233 1309 l 1,5,-1
 1175 1035 l 1,6,-1
 1449 1035 l 1,7,-1
 1413 864 l 1,8,-1
 1139 864 l 1,9,-1
 1092 645 l 1,10,-1
 1366 645 l 1,11,-1
 1330 474 l 1,12,-1
 1056 474 l 1,13,-1
 998 200 l 1,14,-1
 827 200 l 1,15,-1
 885 474 l 1,16,-1
 666 474 l 1,17,-1
 608 200 l 1,18,-1
 437 200 l 1,19,-1
 495 474 l 1,20,-1
 221 474 l 1,21,-1
 257 645 l 1,22,-1
 531 645 l 1,23,-1
 578 864 l 1,24,-1
 304 864 l 1,25,-1
 340 1035 l 1,26,-1
 614 1035 l 1,27,-1
 672 1309 l 1,0,-1
921 645 m 1,28,-1
 968 864 l 1,29,-1
 749 864 l 1,30,-1
 702 645 l 1,31,-1
 921 645 l 1,28,-1
EndSplineSet
Validated: 1
EndChar

StartChar: dollar
Encoding: 36 36 7
Width: 1352
GlyphClass: 2
Flags: W
HStem: -20 170<525.575 668>
VStem: 497 321<1070.91 1257.6> 1058 335<367.782 611.96>
DStem2: 647 -120 797 -120 0.207912 0.978148<31.1868 102.181 347.157 820.414 1186.98 1495.69 1714.96 1789.1>
LayerCount: 2
Fore
SplineSet
668 -20 m 1,0,1
 298 -20 298 -20 119 232 c 1,2,-1
 395 363 l 1,3,4
 472 150 472 150 704 150 c 1,5,-1
 826 722 l 1,6,-1
 704 786 l 2,7,8
 497 894 497 894 497 1089 c 0,9,10
 497 1111 497 1111 500 1134 c 0,11,12
 519 1301 519 1301 702 1423 c 0,13,14
 832 1510 832 1510 997 1526 c 1,15,-1
 1019 1630 l 1,16,-1
 1169 1630 l 1,17,-1
 1147 1527 l 1,18,19
 1361 1507 1361 1507 1469 1365 c 1,20,-1
 1233 1220 l 1,21,22
 1203 1329 1203 1329 1110 1352 c 1,23,-1
 1028 969 l 1,24,-1
 1181 889 l 2,25,26
 1393 778 1393 778 1393 567 c 0,27,28
 1393 537 1393 537 1389 505 c 0,29,30
 1365 320 1365 320 1196 170 c 0,31,32
 1035 28 1035 28 821 -8 c 1,33,-1
 797 -120 l 1,34,-1
 647 -120 l 1,35,-1
 668 -20 l 1,0,1
894 1041 m 1,36,-1
 958 1343 l 1,37,38
 929 1333 929 1333 904 1315 c 0,39,40
 834 1266 834 1266 821 1197 c 0,41,42
 818 1181 818 1181 818 1167 c 0,43,44
 818 1090 818 1090 894 1041 c 1,36,-1
961 652 m 1,45,-1
 863 189 l 1,46,47
 914 217 914 217 956 264 c 0,48,49
 1034 350 1034 350 1053 449 c 0,50,51
 1058 475 1058 475 1058 499 c 0,52,53
 1058 601 1058 601 962 651 c 2,54,-1
 961 652 l 1,45,-1
EndSplineSet
Validated: 1
EndChar

StartChar: percent
Encoding: 37 37 8
Width: 1743
GlyphClass: 2
Flags: W
HStem: -20 118<1168.11 1360.14> 0 21G<319 590.417> 538 116<1274.86 1466.89> 856 118<597.106 789.137> 1414 116<703.863 895.894> 1490 20G<1467.58 1739>
VStem: 319 256<0 256> 362 217<1025.91 1270.54> 914 217<1118.11 1362.09> 933 217<149.909 394.535> 1483 256<1254 1510> 1485 217<242.111 486.091>
DStem2: 319 0 575 0 0.610522 0.792<156.294 1906.57>
LayerCount: 2
Fore
SplineSet
1216 -20 m 0,0,1
 1046 -20 1046 -20 977 84 c 0,2,3
 933 149 933 149 933 229 c 0,4,5
 933 260 933 260 940 293 c 0,6,7
 967 427 967 427 1077 523 c 0,8,9
 1227 654 1227 654 1419 654 c 0,10,11
 1589 654 1589 654 1658 550 c 0,12,13
 1702 485 1702 485 1702 405 c 0,14,15
 1702 374 1702 374 1695 341 c 0,16,17
 1668 207 1668 207 1558 111 c 0,18,19
 1408 -20 1408 -20 1216 -20 c 0,0,1
1248 98 m 0,20,21
 1321 98 1321 98 1385 165 c 0,22,23
 1457 240 1457 240 1477 343 c 0,24,25
 1485 383 1485 383 1485 416 c 0,26,27
 1485 458 1485 458 1472 487 c 0,28,29
 1449 538 1449 538 1387 538 c 0,30,31
 1314 538 1314 538 1250 471 c 0,32,33
 1178 396 1178 396 1158 293 c 0,34,35
 1150 253 1150 253 1150 220 c 0,36,37
 1150 178 1150 178 1163 149 c 0,38,39
 1186 98 1186 98 1248 98 c 0,20,21
848 1530 m 0,40,41
 1018 1530 1018 1530 1087 1426 c 0,42,43
 1131 1361 1131 1361 1131 1281 c 0,44,45
 1131 1250 1131 1250 1124 1217 c 0,46,47
 1097 1083 1097 1083 987 987 c 0,48,49
 837 856 837 856 645 856 c 0,50,51
 475 856 475 856 406 960 c 0,52,53
 362 1025 362 1025 362 1105 c 0,54,55
 362 1136 362 1136 369 1169 c 0,56,57
 396 1303 396 1303 506 1399 c 0,58,59
 656 1530 656 1530 848 1530 c 0,40,41
677 974 m 0,60,61
 750 974 750 974 814 1041 c 0,62,63
 886 1116 886 1116 906 1219 c 0,64,65
 914 1259 914 1259 914 1292 c 0,66,67
 914 1334 914 1334 901 1363 c 0,68,69
 878 1414 878 1414 816 1414 c 0,70,71
 743 1414 743 1414 679 1347 c 0,72,73
 607 1272 607 1272 587 1169 c 0,74,75
 579 1129 579 1129 579 1096 c 0,76,77
 579 1054 579 1054 592 1025 c 0,78,79
 615 974 615 974 677 974 c 0,60,61
319 0 m 1,80,-1
 1483 1510 l 1,81,-1
 1739 1510 l 1,82,-1
 575 0 l 1,83,-1
 319 0 l 1,80,-1
EndSplineSet
Validated: 1
EndChar

StartChar: ampersand
Encoding: 38 38 9
Width: 1755
GlyphClass: 2
Flags: W
HStem: -20 170<632.302 996.773> 0 21G<1217.04 1567> 1377 153<949.273 1142.8>
VStem: 209 335<235.606 572.34> 565 289<1092.53 1276.14> 1507 300<882.496 1045>
DStem2: 995 1045 786 810 0.480145 -0.877189<105.789 639.508 909.94 1028.54>
LayerCount: 2
Fore
SplineSet
1567 0 m 1,0,-1
 1228 0 l 1,1,-1
 1171 104 l 1,2,3
 972 -20 972 -20 693 -20 c 0,4,5
 407 -20 407 -20 289 134 c 0,6,7
 209 240 209 240 209 373 c 0,8,9
 209 407 209 407 214 443 c 0,10,11
 246 652 246 652 414 809 c 0,12,13
 528 915 528 915 673 967 c 1,14,15
 565 1025 565 1025 565 1134 c 0,16,17
 565 1151 565 1151 568 1168 c 0,18,19
 588 1308 588 1308 735 1414 c 0,20,21
 894 1529 894 1529 1108 1530 c 0,22,23
 1290 1530 1290 1530 1377 1432 c 0,24,25
 1410 1395 1410 1395 1427 1351 c 1,26,-1
 1158 1232 l 1,27,28
 1162 1250 1162 1250 1162 1267 c 0,29,30
 1162 1303 1162 1303 1145 1335 c 0,31,32
 1123 1377 1123 1377 1071 1377 c 0,33,34
 993 1377 993 1377 929 1314 c 0,35,36
 877 1263 877 1263 860 1183 c 0,37,38
 854 1157 854 1157 854 1136 c 0,39,40
 854 1109 854 1109 864 1092 c 0,41,42
 889 1045 889 1045 959 1045 c 2,43,-1
 995 1045 l 1,44,-1
 1302 484 l 1,45,46
 1437 702 1437 702 1507 1045 c 1,47,-1
 1807 1045 l 1,48,49
 1710 599 1710 599 1409 288 c 1,50,-1
 1567 0 l 1,0,-1
1094 247 m 1,51,-1
 786 810 l 1,52,53
 750 786 750 786 718 754 c 0,54,55
 575 615 575 615 549 443 c 0,56,57
 544 410 544 410 544 380 c 0,58,59
 544 292 544 292 588 234 c 0,60,61
 653 150 653 150 814 150 c 0,62,63
 972 150 972 150 1094 247 c 1,51,-1
EndSplineSet
Validated: 1
EndChar

StartChar: quotesingle
Encoding: 39 39 10
Width: 240
GlyphClass: 2
Flags: W
HStem: 1094 456<349 453>
VStem: 253 200<1094 1294> 349 200<1350 1550>
DStem2: 253 1094 453 1094 0.207912 0.978148<41.5823 465.995>
LayerCount: 2
Fore
SplineSet
349 1550 m 1,0,-1
 549 1550 l 1,1,-1
 453 1094 l 1,2,-1
 253 1094 l 1,3,-1
 349 1550 l 1,0,-1
EndSplineSet
Validated: 1
EndChar

StartChar: parenleft
Encoding: 40 40 11
Width: 799
GlyphClass: 2
Flags: W
VStem: 291 320<58.8024 739.098>
LayerCount: 2
Fore
SplineSet
726 -250 m 1,0,1
 450 -250 l 1,2,3
 356 -62 356 -62 313 159 c 0,4,5
 291 272 291 272 291 397 c 0,6,7
 291 565 291 565 331 755 c 0,8,9
 401 1085 401 1085 566 1351 c 0,10,11
 701 1568 701 1568 877 1760 c 1,12,-1
 1153 1760 l 1,13,14
 959 1535 959 1535 846 1297 c 0,15,16
 718 1031 718 1031 659 755 c 0,17,18
 611 530 611 530 611 328 c 0,19,20
 611 270 611 270 615 213 c 0,21,22
 630 -4 630 -4 726 -250 c 1,0,1
EndSplineSet
Validated: 1
EndChar

StartChar: parenright
Encoding: 41 41 12
Width: 799
GlyphClass: 2
Flags: W
VStem: 509 320<770.902 1451.2>
LayerCount: 2
Fore
SplineSet
243 -250 m 1,0,-1
 -33 -250 l 1,1,2
 161 -25 161 -25 274 213 c 0,3,4
 402 479 402 479 461 755 c 0,5,6
 509 980 509 980 509 1182 c 0,7,8
 509 1240 509 1240 505 1297 c 0,9,10
 490 1514 490 1514 394 1760 c 1,11,-1
 670 1760 l 1,12,13
 764 1572 764 1572 807 1351 c 0,14,15
 829 1238 829 1238 829 1113 c 0,16,17
 829 945 829 945 789 755 c 0,18,19
 719 425 719 425 554 159 c 0,20,21
 419 -58 419 -58 243 -250 c 1,0,-1
EndSplineSet
Validated: 1
EndChar

StartChar: asterisk
Encoding: 42 42 13
Width: 736
GlyphClass: 2
Flags: W
VStem: 470 150<832 982> 622 150<1400 1550>
DStem2: 249 1076 296 947 0.889273 0.457377<0 233.243 534.462 767.705> 400 1435 298 1306 0.835102 -0.550095<0 193.515 444.046 637.561> 470 832 620 832 0.207912 0.978148<31.1868 234.183 531.124 733.913>
LayerCount: 2
Fore
SplineSet
622 1550 m 1,0,-1
 772 1550 l 1,1,-1
 724 1321 l 1,2,-1
 946 1435 l 1,3,-1
 994 1306 l 1,4,-1
 771 1191 l 1,5,-1
 945 1076 l 1,6,-1
 842 947 l 1,7,-1
 669 1061 l 1,8,-1
 620 832 l 1,9,-1
 470 832 l 1,10,-1
 519 1061 l 1,11,-1
 296 947 l 1,12,-1
 249 1076 l 1,13,-1
 471 1191 l 1,14,-1
 298 1306 l 1,15,-1
 400 1435 l 1,16,-1
 574 1321 l 1,17,-1
 622 1550 l 1,0,-1
EndSplineSet
Validated: 1
EndChar

StartChar: plus
Encoding: 43 43 14
Width: 1240
GlyphClass: 2
Flags: W
HStem: 655 200<302 659 902 1259>
VStem: 574 200<255 455> 787 200<1055 1255>
DStem2: 574 255 774 255 0.207912 0.978148<41.5823 408.932 655.084 1022.43>
LayerCount: 2
Fore
SplineSet
787 1255 m 1,0,-1
 987 1255 l 1,1,-1
 902 855 l 1,2,-1
 1302 855 l 1,3,-1
 1259 655 l 1,4,-1
 859 655 l 1,5,-1
 774 255 l 1,6,-1
 574 255 l 1,7,-1
 659 655 l 1,8,-1
 259 655 l 1,9,-1
 302 855 l 1,10,-1
 702 855 l 1,11,-1
 787 1255 l 1,0,-1
EndSplineSet
Validated: 1
EndChar

StartChar: comma
Encoding: 44 44 15
Width: 373
GlyphClass: 2
Flags: W
HStem: -268 596
VStem: 154 218<-48.1235 140.381>
LayerCount: 2
Fore
SplineSet
222 328 m 1,0,1
 372 258 372 258 372 117 c 0,2,3
 372 85 372 85 364 50 c 0,4,5
 323 -144 323 -144 86 -268 c 1,6,-1
 -2 -147 l 1,7,8
 129 -72 129 -72 151 32 c 0,9,10
 154 46 154 46 154 59 c 0,11,12
 154 133 154 133 55 167 c 1,13,-1
 222 328 l 1,0,1
EndSplineSet
Validated: 1
EndChar

StartChar: hyphen
Encoding: 45 45 16
Width: 1240
GlyphClass: 2
Flags: W
HStem: 655 200<302 1259>
LayerCount: 2
Fore
SplineSet
302 855 m 1,0,-1
 1302 855 l 1,1,-1
 1259 655 l 1,2,-1
 259 655 l 1,3,-1
 302 855 l 1,0,-1
EndSplineSet
Validated: 1
EndChar

StartChar: period
Encoding: 46 46 17
Width: 404
GlyphClass: 2
Flags: W
HStem: -20 370<147.695 326.234>
VStem: 51 372<76 254.217>
LayerCount: 2
Fore
SplineSet
198 -20 m 0,0,1
 120 -20 120 -20 80 34 c 0,2,3
 51 73 51 73 51 124 c 0,4,5
 51 144 51 144 55 165 c 0,6,7
 71 242 71 242 135.5 296 c 128,-1,8
 200 350 200 350 276 350 c 128,-1,9
 352 350 352 350 394 296 c 0,10,11
 423 258 423 258 423 206 c 0,12,13
 423 186 423 186 419 165 c 0,14,15
 403 88 403 88 338.5 34 c 128,-1,16
 274 -20 274 -20 198 -20 c 0,0,1
EndSplineSet
Validated: 1
EndChar

StartChar: slash
Encoding: 47 47 18
Width: 1276
GlyphClass: 2
Flags: W
VStem: -18 327<-130 197> 1289 326<1314 1640>
DStem2: -18 -130 309 -130 0.59402 0.80445<194.245 2200.26>
LayerCount: 2
Fore
SplineSet
309 -130 m 1,0,-1
 -18 -130 l 1,1,-1
 1289 1640 l 1,2,-1
 1615 1640 l 1,3,-1
 309 -130 l 1,0,-1
EndSplineSet
Validated: 1
EndChar

StartChar: zero
Encoding: 48 48 19
Width: 1819
GlyphClass: 2
Flags: W
HStem: -20 170<688.992 1100.09> 1360 170<1041.42 1451.11>
VStem: 196 339<307.637 769.058> 1605 339<741.733 1202.36>
LayerCount: 2
Fore
SplineSet
823 -20 m 0,0,1
 450 -20 450 -20 291 196 c 0,2,3
 196 325 196 325 196 519 c 0,4,5
 196 582 196 582 208 651 c 0,6,7
 274 1037 274 1037 630 1302 c 0,8,9
 937 1530 937 1530 1317 1530 c 0,10,11
 1690 1530 1690 1530 1849 1314 c 0,12,13
 1944 1185 1944 1185 1944 991 c 0,14,15
 1944 928 1944 928 1932 859 c 0,16,17
 1867 479 1867 479 1510 208 c 0,18,19
 1209 -20 1209 -20 823 -20 c 0,0,1
871 150 m 0,20,21
 1100 150 1100 150 1277 307 c 0,22,23
 1521 523 1521 523 1587 836 c 0,24,25
 1605 922 1605 922 1605 995 c 0,26,27
 1605 1129 1605 1129 1555 1212 c 0,28,29
 1467 1360 1467 1360 1270 1360 c 0,30,31
 1040 1360 1040 1360 863 1203 c 0,32,33
 619 987 619 987 553 674 c 0,34,35
 535 588 535 588 535 515 c 0,36,37
 535 381 535 381 585 298 c 0,38,39
 673 150 673 150 871 150 c 0,20,21
EndSplineSet
Validated: 1
EndChar

StartChar: one
Encoding: 49 49 20
Width: 760
GlyphClass: 2
Flags: W
HStem: 0 21G<220 544.252> 1340 170<331 505>
VStem: 220 320<0 320>
DStem2: 220 0 540 0 0.207912 0.978148<66.5317 1369.97>
LayerCount: 2
Fore
SplineSet
220 0 m 1,0,-1
 505 1340 l 1,1,-1
 295 1340 l 1,2,-1
 331 1510 l 1,3,-1
 861 1510 l 1,4,-1
 540 0 l 1,5,-1
 220 0 l 1,0,-1
EndSplineSet
Validated: 1
EndChar

StartChar: two
Encoding: 50 50 21
Width: 1403
GlyphClass: 2
Flags: W
HStem: 0 170<470 1283> 1360 170<792.351 1090.15>
VStem: 1163 342<941.663 1284.79>
LayerCount: 2
Fore
SplineSet
90 0 m 1,0,-1
 126 170 l 1,1,2
 632 426 632 426 957 722 c 0,3,4
 1113 864 1113 864 1153 1048 c 0,5,6
 1163 1096 1163 1096 1163 1138 c 0,7,8
 1163 1219 1163 1219 1125 1276 c 0,9,10
 1070 1360 1070 1360 958 1360 c 0,11,12
 827 1360 827 1360 720 1263 c 0,13,14
 620 1172 620 1172 548 1030 c 1,15,-1
 349 1147 l 1,16,17
 410 1224 410 1224 464 1278 c 0,18,19
 714 1530 714 1530 1052 1530 c 0,20,21
 1305 1530 1305 1530 1428 1374 c 0,22,23
 1505 1278 1505 1278 1505 1142 c 0,24,25
 1505 1101 1505 1101 1498 1055 c 0,26,27
 1461 819 1461 819 1246 645 c 0,28,29
 924 382 924 382 470 170 c 1,30,-1
 1319 170 l 1,31,-1
 1283 0 l 1,32,-1
 90 0 l 1,0,-1
EndSplineSet
Validated: 1
EndChar

StartChar: three
Encoding: 51 51 22
Width: 1403
GlyphClass: 2
Flags: W
HStem: -20 170<448.765 790.868> 875 175<780 985.866> 1364 166<881.539 1090.21>
VStem: 1072 345<470.206 815.803> 1100 290<1153.97 1336.99>
LayerCount: 2
Fore
SplineSet
586 -20 m 0,0,1
 233 -20 233 -20 54 231 c 1,2,-1
 330 362 l 1,3,4
 392 150 392 150 621 150 c 0,5,6
 767 150 767 150 893 270 c 0,7,8
 1021 391 1021 391 1061 580 c 0,9,10
 1072 631 1072 631 1072 675 c 0,11,12
 1072 742 1072 742 1046 789 c 0,13,14
 999 875 999 875 892 875 c 0,15,16
 814 875 814 875 740 861 c 1,17,-1
 780 1050 l 1,18,19
 923 1050 923 1050 998 1102 c 0,20,21
 1079 1158 1079 1158 1096 1237 c 0,22,23
 1100 1257 1100 1257 1100 1275 c 0,24,25
 1100 1301 1100 1301 1091 1321 c 0,26,27
 1070 1364 1070 1364 1009 1364 c 0,28,29
 931 1364 931 1364 860 1304 c 0,30,31
 801 1254 801 1254 753 1188 c 1,32,-1
 575 1304 l 1,33,34
 808 1530 808 1530 1064 1530 c 0,35,36
 1234 1530 1234 1530 1327 1434 c 0,37,38
 1390 1369 1390 1369 1390 1281 c 0,39,40
 1390 1264 1390 1264 1388 1246 c 0,41,42
 1366 1079 1366 1079 1170 1000 c 1,43,44
 1306 953 1306 953 1365 862 c 0,45,46
 1417 783 1417 783 1417 679 c 0,47,48
 1417 629 1417 629 1405 573 c 0,49,50
 1355 336 1355 336 1112 153 c 0,51,52
 882 -20 882 -20 586 -20 c 0,0,1
EndSplineSet
Validated: 1
EndChar

StartChar: four
Encoding: 52 52 23
Width: 1422
GlyphClass: 2
Flags: W
HStem: 0 21G<882 1206.25> 280 170<446 942> 1490 20G<909.5 1523>
DStem2: 882 0 1202 0 0.207912 0.978148<66.5317 286.356 460.126 1238.95>
LayerCount: 2
Fore
SplineSet
882 0 m 1,0,-1
 942 280 l 1,1,-1
 110 280 l 1,2,3
 596 987 596 987 1223 1510 c 1,4,-1
 1523 1510 l 1,5,-1
 1202 0 l 1,6,-1
 882 0 l 1,0,-1
1139 1212 m 1,7,8
 769 900 769 900 446 450 c 1,9,-1
 978 450 l 1,10,-1
 1139 1212 l 1,7,8
EndSplineSet
Validated: 1
EndChar

StartChar: five
Encoding: 53 53 24
Width: 1448
GlyphClass: 2
Flags: W
HStem: -20 170<491.672 830.029> 875 171<787.781 1048.25> 1340 170<902 1476>
VStem: 1113 349<470.558 809.183>
DStem2: 370 758 786 1019 0.353304 0.935509<103.518 209.375 391.142 732.424>
LayerCount: 2
Fore
SplineSet
631 -20 m 0,0,1
 278 -20 278 -20 99 231 c 1,2,-1
 375 362 l 1,3,4
 437 150 437 150 652 150 c 0,5,6
 809 150 809 150 940 271 c 0,7,8
 1066 389 1066 389 1102 559 c 0,9,10
 1113 611 1113 611 1113 656 c 0,11,12
 1113 731 1113 731 1083 787 c 0,13,14
 1036 875 1036 875 924 875 c 0,15,16
 779 875 779 875 663 758 c 1,17,-1
 370 758 l 1,18,-1
 654 1510 l 1,19,-1
 1512 1510 l 1,20,-1
 1476 1340 l 1,21,-1
 902 1340 l 1,22,-1
 786 1019 l 1,23,24
 892 1046 892 1046 993 1046 c 0,25,26
 1290 1046 1290 1046 1410 863 c 0,27,28
 1462 784 1462 784 1462 679 c 0,29,30
 1462 629 1462 629 1450 574 c 0,31,32
 1402 339 1402 339 1158 155 c 0,33,34
 926 -20 926 -20 631 -20 c 0,0,1
EndSplineSet
Validated: 1
EndChar

StartChar: six
Encoding: 54 54 25
Width: 1550
GlyphClass: 2
Flags: W
HStem: -20 170<630.18 944.557> 876 172<868.318 1162.82> 1359 171<1088.77 1455.58>
VStem: 228 331<223.129 565.329> 1226 338<472.907 812.836>
LayerCount: 2
Fore
SplineSet
708 -20 m 0,0,1
 451 -20 451 -20 318 147 c 0,2,3
 228 261 228 261 228 429 c 0,4,5
 228 505 228 505 246 591 c 0,6,7
 317 930 317 930 538 1181 c 0,8,9
 704 1371 704 1371 926 1460 c 0,10,11
 1101 1530 1101 1530 1326 1530 c 0,12,13
 1519 1530 1519 1530 1671 1457 c 1,14,-1
 1498 1279 l 1,15,16
 1424 1359 1424 1359 1291 1359 c 0,17,18
 1201 1359 1201 1359 1112 1325 c 0,19,20
 925 1253 925 1253 792 1085 c 0,21,22
 715 987 715 987 671 886 c 1,23,24
 865 1048 865 1048 1106 1048 c 0,25,26
 1369 1048 1369 1048 1489 897 c 0,27,28
 1564 804 1564 804 1564 679 c 0,29,30
 1564 630 1564 630 1552 575 c 0,31,32
 1511 382 1511 382 1346 225 c 0,33,34
 1088 -20 1088 -20 708 -20 c 0,0,1
772 150 m 0,35,36
 925 150 925 150 1053 274 c 0,37,38
 1178 394 1178 394 1216 575 c 0,39,40
 1226 626 1226 626 1226 669 c 0,41,42
 1226 741 1226 741 1197 791 c 0,43,44
 1147 876 1147 876 1033 876 c 0,45,46
 894 876 894 876 774 785 c 0,47,48
 613 663 613 663 568 452 c 0,49,50
 559 409 559 409 559 370 c 0,51,52
 559 300 559 300 589 245 c 0,53,54
 642 150 642 150 772 150 c 0,35,36
EndSplineSet
Validated: 1
EndChar

StartChar: seven
Encoding: 55 55 26
Width: 1102
GlyphClass: 2
Flags: W
HStem: 0 21G<42 827.5> 1340 170<341 1038>
VStem: 42 398<0 398>
LayerCount: 2
Fore
SplineSet
42 0 m 1,0,1
 909 723 909 723 1038 1340 c 1,2,-1
 305 1340 l 1,3,-1
 341 1510 l 1,4,-1
 1403 1510 l 1,5,6
 1215 611 1215 611 440 0 c 1,7,-1
 42 0 l 1,0,1
EndSplineSet
Validated: 1
EndChar

StartChar: eight
Encoding: 56 56 27
Width: 1504
GlyphClass: 2
Flags: W
HStem: -20 170<601.586 897.218> 876 165<866.219 1070.03> 1379 151<949.525 1146.59>
VStem: 208 331<209.938 556.675> 565 289<1070.95 1277.63> 1163 288<1140.61 1351.05> 1184 333<471.925 814.991>
LayerCount: 2
Fore
SplineSet
1065 1379 m 0,0,1
 993 1379 993 1379 933 1320 c 0,2,3
 877 1265 877 1265 860 1183 c 0,4,5
 854 1154 854 1154 854 1132 c 0,6,7
 854 1105 854 1105 863 1089 c 0,8,9
 888 1041 888 1041 951 1041 c 0,10,11
 1034 1041 1034 1041 1093 1107 c 0,12,13
 1144 1164 1144 1164 1158 1232 c 0,14,15
 1163 1257 1163 1257 1163 1277 c 0,16,17
 1163 1314 1163 1314 1148 1338 c 0,18,19
 1123 1379 1123 1379 1065 1379 c 0,0,1
663 -20 m 0,20,21
 420 -20 420 -20 288 134 c 0,22,23
 208 227 208 227 208 364 c 0,24,25
 208 402 208 402 214 443 c 0,26,27
 247 668 247 668 412 810 c 0,28,29
 522 904 522 904 673 967 c 1,30,31
 565 1022 565 1022 565 1134 c 0,32,33
 565 1151 565 1151 568 1169 c 0,34,35
 586 1304 586 1304 735 1413 c 0,36,37
 895 1530 895 1530 1106 1530 c 0,38,39
 1294 1530 1294 1530 1386 1433 c 0,40,41
 1451 1365 1451 1365 1451 1277 c 0,42,43
 1451 1262 1451 1262 1449 1247 c 0,44,45
 1432 1099 1432 1099 1258 1016 c 1,46,47
 1380 974 1380 974 1443 896 c 0,48,49
 1517 803 1517 803 1517 677 c 0,50,51
 1517 629 1517 629 1506 575 c 0,52,53
 1466 375 1466 375 1306 220 c 0,54,55
 1057 -20 1057 -20 663 -20 c 0,20,21
731 150 m 0,56,57
 879 150 879 150 1006 275 c 0,58,59
 1137 404 1137 404 1173 577 c 0,60,61
 1184 631 1184 631 1184 676 c 0,62,63
 1184 752 1184 752 1152 801 c 0,64,65
 1102 876 1102 876 992 876 c 0,66,67
 843 876 843 876 718 754 c 0,68,69
 586 625 586 625 549 443 c 0,70,71
 539 392 539 392 539 350 c 0,72,73
 539 276 539 276 570 228 c 0,74,75
 621 150 621 150 731 150 c 0,56,57
EndSplineSet
Validated: 1
EndChar

StartChar: nine
Encoding: 57 57 28
Width: 1550
GlyphClass: 2
Flags: W
HStem: -20 171<415.422 782.234> 462 172<708.183 1002.68> 1360 170<926.443 1240.82>
VStem: 307 338<697.164 1037.09> 1312 331<944.671 1286.87>
LayerCount: 2
Fore
SplineSet
545 -20 m 0,0,1
 352 -20 352 -20 200 53 c 1,2,-1
 373 231 l 1,3,4
 447 151 447 151 580 151 c 0,5,6
 670 151 670 151 759 185 c 0,7,8
 946 257 946 257 1079 425 c 0,9,10
 1156 523 1156 523 1200 624 c 1,11,12
 1006 462 1006 462 765 462 c 0,13,14
 502 462 502 462 382 613 c 0,15,16
 307 706 307 706 307 831 c 0,17,18
 307 880 307 880 319 935 c 0,19,20
 360 1128 360 1128 525 1285 c 0,21,22
 783 1530 783 1530 1163 1530 c 0,23,24
 1420 1530 1420 1530 1553 1363 c 0,25,26
 1643 1249 1643 1249 1643 1081 c 0,27,28
 1643 1005 1643 1005 1625 919 c 0,29,30
 1554 580 1554 580 1333 329 c 0,31,32
 1167 139 1167 139 945 50 c 0,33,34
 770 -20 770 -20 545 -20 c 0,0,1
1099 1360 m 0,35,36
 946 1360 946 1360 818 1236 c 0,37,38
 693 1116 693 1116 655 935 c 0,39,40
 645 884 645 884 645 841 c 0,41,42
 645 769 645 769 674 719 c 0,43,44
 724 634 724 634 838 634 c 0,45,46
 977 634 977 634 1097 725 c 0,47,48
 1258 847 1258 847 1303 1058 c 0,49,50
 1312 1101 1312 1101 1312 1140 c 0,51,52
 1312 1210 1312 1210 1282 1265 c 0,53,54
 1229 1360 1229 1360 1099 1360 c 0,35,36
EndSplineSet
Validated: 1
EndChar

StartChar: colon
Encoding: 58 58 29
Width: 404
GlyphClass: 2
Flags: W
HStem: -20 370<147.695 326.234> 570 370<273.695 452.234>
VStem: 51 498
LayerCount: 2
Fore
SplineSet
198 -20 m 0,0,1
 120 -20 120 -20 80 34 c 0,2,3
 51 73 51 73 51 124 c 0,4,5
 51 144 51 144 55 165 c 0,6,7
 71 242 71 242 135.5 296 c 128,-1,8
 200 350 200 350 276 350 c 128,-1,9
 352 350 352 350 394 296 c 0,10,11
 423 258 423 258 423 206 c 0,12,13
 423 186 423 186 419 165 c 0,14,15
 403 88 403 88 338.5 34 c 128,-1,16
 274 -20 274 -20 198 -20 c 0,0,1
402 940 m 128,-1,18
 478 940 478 940 520 886 c 0,19,20
 549 848 549 848 549 796 c 0,21,22
 549 776 549 776 545 755 c 0,23,24
 529 678 529 678 464.5 624 c 128,-1,25
 400 570 400 570 324 570 c 0,26,27
 246 570 246 570 206 624 c 0,28,29
 177 663 177 663 177 714 c 0,30,31
 177 734 177 734 181 755 c 0,32,33
 197 832 197 832 261.5 886 c 128,-1,17
 326 940 326 940 402 940 c 128,-1,18
EndSplineSet
Validated: 1
EndChar

StartChar: semicolon
Encoding: 59 59 30
Width: 404
GlyphClass: 2
Flags: W
HStem: 570 370<273.695 452.234>
VStem: 154 218<-48.1235 140.381>
LayerCount: 2
Fore
SplineSet
402 940 m 128,-1,1
 478 940 478 940 520 886 c 0,2,3
 549 848 549 848 549 796 c 0,4,5
 549 776 549 776 545 755 c 0,6,7
 529 678 529 678 464.5 624 c 128,-1,8
 400 570 400 570 324 570 c 0,9,10
 246 570 246 570 206 624 c 0,11,12
 177 663 177 663 177 714 c 0,13,14
 177 734 177 734 181 755 c 0,15,16
 197 832 197 832 261.5 886 c 128,-1,0
 326 940 326 940 402 940 c 128,-1,1
222 328 m 1,17,18
 372 258 372 258 372 117 c 0,19,20
 372 85 372 85 364 50 c 0,21,22
 323 -144 323 -144 86 -268 c 1,23,-1
 -2 -147 l 1,24,25
 129 -72 129 -72 151 32 c 0,26,27
 154 46 154 46 154 59 c 0,28,29
 154 133 154 133 55 167 c 1,30,-1
 222 328 l 1,17,18
EndSplineSet
Validated: 1
EndChar

StartChar: less
Encoding: 60 60 31
Width: 1266
GlyphClass: 2
Flags: W
DStem2: 458 789 259 655 0.870265 -0.492584<0 824.987> 302 855 458 789 0.910655 0.413168<114.793 1094.84>
LayerCount: 2
Fore
SplineSet
302 855 m 1,0,-1
 1382 1345 l 1,1,-1
 1350 1195 l 1,2,-1
 458 789 l 1,3,-1
 1179 388 l 1,4,-1
 1130 162 l 1,5,-1
 259 655 l 1,6,-1
 302 855 l 1,0,-1
EndSplineSet
Validated: 1
EndChar

StartChar: equal
Encoding: 61 61 32
Width: 1240
GlyphClass: 2
Flags: W
HStem: 430 200<254 1211> 879 200<349 1307>
LayerCount: 2
Fore
SplineSet
254 630 m 1,0,-1
 1254 630 l 1,1,-1
 1211 430 l 1,2,-1
 211 430 l 1,3,-1
 254 630 l 1,0,-1
349 1079 m 1,4,-1
 1349 1079 l 1,5,-1
 1307 879 l 1,6,-1
 307 879 l 1,7,-1
 349 1079 l 1,4,-1
EndSplineSet
Validated: 1
EndChar

StartChar: greater
Encoding: 62 62 33
Width: 1266
GlyphClass: 2
Flags: W
DStem2: 236 312 204 162 0.910655 0.413168<0 980.05> 456 1345 407 1119 0.870265 -0.492584<68.681 893.668>
LayerCount: 2
Fore
SplineSet
1284 652 m 1,0,-1
 204 162 l 1,1,-1
 236 312 l 1,2,-1
 1128 718 l 1,3,-1
 407 1119 l 1,4,-1
 456 1345 l 1,5,-1
 1327 852 l 1,6,-1
 1284 652 l 1,0,-1
EndSplineSet
Validated: 1
EndChar

StartChar: question
Encoding: 63 63 34
Width: 1408
GlyphClass: 2
Flags: W
HStem: -20 370<604.695 783.234> 1360 170<815.127 1101.17>
VStem: 1179 347<972.961 1280.15>
LayerCount: 2
Fore
SplineSet
655 -20 m 0,0,1
 577 -20 577 -20 537 34 c 0,2,3
 508 72 508 72 508 124 c 0,4,5
 508 144 508 144 512 165 c 0,6,7
 528 242 528 242 592.5 296 c 128,-1,8
 657 350 657 350 733 350 c 128,-1,9
 809 350 809 350 851 296 c 0,10,11
 880 258 880 258 880 206 c 0,12,13
 880 186 880 186 876 165 c 0,14,15
 860 88 860 88 795.5 34 c 128,-1,16
 731 -20 731 -20 655 -20 c 0,0,1
1067 1530 m 0,17,18
 1328 1530 1328 1530 1451 1382 c 0,19,20
 1526 1292 1526 1292 1526 1168 c 0,21,22
 1526 1119 1526 1119 1514 1065 c 0,23,24
 1469 852 1469 852 1204 663 c 2,25,-1
 905 450 l 1,26,-1
 643 450 l 1,27,-1
 986 774 l 2,28,29
 1139 918 1139 918 1170 1066 c 0,30,31
 1179 1106 1179 1106 1179 1143 c 0,32,33
 1179 1219 1179 1219 1140 1275 c 0,34,35
 1082 1360 1082 1360 972 1360 c 0,36,37
 857 1360 857 1360 738 1266 c 24,38,39
 639 1187 639 1187 562 1031 c 1,40,-1
 364 1148 l 1,41,42
 416 1216 416 1216 479 1278 c 0,43,44
 733 1530 733 1530 1067 1530 c 0,17,18
EndSplineSet
Validated: 1
EndChar

StartChar: at
Encoding: 64 64 35
Width: 1756
GlyphClass: 2
Flags: W
HStem: -430 150<628.68 1034.78> -20 170<927.581 1152.75> 0 21G<1286 1590.23> 698 52<1182.61 1306.89> 956 164<997.895 1359.39>
VStem: 155 314<-106.852 344.477> 610 278<204.255 461.554> 1430 294<491.045 888.36>
DStem2: 1194.6 -430 1494.6 -430 0.207912 0.978148<501.98 622.596 779.833 1187.56>
LayerCount: 2
Fore
SplineSet
1586 0 m 1,0,-1
 1286 0 l 1,1,-1
 1324 179 l 1,2,3
 1182 -20 1182 -20 966 -20 c 0,4,5
 796 -20 796 -20 696 82 c 0,6,7
 610 168 610 168 610 285 c 0,8,9
 610 322 610 322 619 362 c 0,10,11
 657 540 657 540 838 656 c 0,12,13
 986 750 986 750 1171 750 c 0,14,15
 1265 750 1265 750 1341 709 c 1,16,-1
 1338 698 l 1,17,18
 1161 698 1161 698 1032 586 c 0,19,20
 922 491 922 491 895 363 c 0,21,22
 888 331 888 331 888 303 c 0,23,24
 888 243 888 243 919 203 c 0,25,26
 959 150 959 150 1042 150 c 0,27,28
 1133 150 1133 150 1211 222 c 0,29,30
 1370 367 1370 367 1414 591 c 0,31,32
 1430 674 1430 674 1430 736 c 0,33,34
 1430 789 1430 789 1418 826 c 0,35,36
 1375 956 1375 956 1220 956 c 0,37,38
 994 956 994 956 787 783 c 0,39,40
 550 585 550 585 491 302 c 0,41,42
 469 196 469 196 469 107 c 0,43,44
 469 -42 469 -42 531 -140 c 0,45,46
 618 -280 618 -280 813 -280 c 0,47,48
 1043 -280 1043 -280 1237 -109 c 1,49,-1
 1361 -239 l 1,50,51
 1094 -430 1094 -430 777 -430 c 0,52,53
 419 -430 419 -430 253 -224 c 0,54,55
 155 -102 155 -102 155 81 c 0,56,57
 155 166 155 166 176 263 c 0,58,59
 255 636 255 636 616 897 c 0,60,61
 925 1120 925 1120 1274 1120 c 0,62,63
 1552 1120 1552 1120 1671 937 c 0,64,65
 1724 856 1724 856 1724 730 c 0,66,67
 1724 654 1724 654 1705 562 c 2,68,-1
 1586 0 l 1,0,-1
EndSplineSet
Validated: 1
EndChar

StartChar: A
Encoding: 65 65 36
Width: 1683
GlyphClass: 2
Flags: W
HStem: 0 21G<5 226.134 1351.37 1678> 670 170<766 1163> 1490 20G<988.795 1326.72>
VStem: 5 208<0 208> 1356 322<0 322>
DStem2: 5 0 213 0 0.550996 0.834508<114.607 916.166 1120.29 1656.15> 1322 1510 1060 1288 0.22947 -0.973316<155.955 615.636 789.819 1477.51>
LayerCount: 2
Fore
SplineSet
5 0 m 1,0,-1
 1002 1510 l 1,1,-1
 1322 1510 l 1,2,-1
 1678 0 l 1,3,-1
 1356 0 l 1,4,-1
 1201 670 l 1,5,-1
 653 670 l 1,6,-1
 213 0 l 1,7,-1
 5 0 l 1,0,-1
1163 840 m 1,8,-1
 1060 1288 l 1,9,-1
 766 840 l 1,10,-1
 1163 840 l 1,8,-1
EndSplineSet
Validated: 1
EndChar

StartChar: B
Encoding: 66 66 37
Width: 1558
GlyphClass: 2
Flags: W
HStem: -20 138<663.307 990.337> 0 21G<170 494.245> 1346 184<1058.73 1352> 1490 20G<486.748 811>
VStem: 170 320<0 320> 1268 335<394.47 681.522> 1297 317<1057.18 1303.69>
DStem2: 165.749 -20 485.749 -20 0.207912 0.978148<86.9786 1203.09 1381.24 1564.19>
LayerCount: 2
Fore
SplineSet
170 0 m 1,0,-1
 491 1510 l 1,1,-1
 811 1510 l 1,2,-1
 759 1266 l 1,3,4
 1008 1530 1008 1530 1269 1530 c 0,5,6
 1435 1530 1435 1530 1524 1441 c 0,7,8
 1614 1351 1614 1351 1614 1225 c 0,9,10
 1614 987 1614 987 1321 861 c 1,11,12
 1451 840 1451 840 1524 770 c 0,13,14
 1603 694 1603 694 1603 580 c 0,15,16
 1603 543 1603 543 1595 503 c 0,17,18
 1561 336 1561 336 1417 200 c 0,19,20
 1185 -20 1185 -20 831 -20 c 0,21,22
 724 -20 724 -20 651 32 c 0,23,24
 594 73 594 73 564 139 c 1,25,-1
 572 146 l 1,26,27
 666 118 666 118 752 118 c 0,28,29
 969 118 969 118 1102 229 c 0,30,31
 1227 334 1227 334 1261 493 c 0,32,33
 1268 526 1268 526 1268 556 c 0,34,35
 1268 626 1268 626 1229 676 c 0,36,37
 1173 749 1173 749 1051 749 c 0,38,39
 947 749 947 749 842 729 c 1,40,-1
 844 739 l 1,41,42
 956 780 956 780 1058 852 c 0,43,44
 1256 992 1256 992 1292 1161 c 0,45,46
 1297 1186 1297 1186 1297 1209 c 0,47,48
 1297 1260 1297 1260 1272 1294 c 0,49,50
 1234 1346 1234 1346 1151 1346 c 0,51,52
 1022 1346 1022 1346 895 1231 c 0,53,54
 717 1071 717 1071 674 867 c 2,55,-1
 490 0 l 1,56,-1
 170 0 l 1,0,-1
EndSplineSet
Validated: 1
EndChar

StartChar: C
Encoding: 67 67 38
Width: 1641
GlyphClass: 2
Flags: W
HStem: -20 170<688.992 1095.24> 1360 170<1041.42 1439.95>
VStem: 196 339<307.637 769.058>
LayerCount: 2
Fore
SplineSet
823 -20 m 0,0,1
 450 -20 450 -20 291 196 c 0,2,3
 196 325 196 325 196 519 c 0,4,5
 196 582 196 582 208 651 c 0,6,7
 274 1037 274 1037 630 1302 c 0,8,9
 937 1530 937 1530 1317 1530 c 0,10,11
 1685 1530 1685 1530 1862 1295 c 1,12,-1
 1577 1167 l 1,13,14
 1480 1360 1480 1360 1270 1360 c 0,15,16
 1040 1360 1040 1360 863 1203 c 0,17,18
 619 987 619 987 553 674 c 0,19,20
 535 588 535 588 535 515 c 0,21,22
 535 381 535 381 585 298 c 0,23,24
 673 150 673 150 871 150 c 0,25,26
 1100 150 1100 150 1277 307 c 0,27,28
 1382 400 1382 400 1454 511 c 1,29,-1
 1664 344 l 1,30,31
 1595 273 1595 273 1510 208 c 0,32,33
 1212 -20 1212 -20 823 -20 c 0,0,1
EndSplineSet
Validated: 1
EndChar

StartChar: D
Encoding: 68 68 39
Width: 1796
GlyphClass: 2
Flags: W
HStem: -20 138<674.307 1015.77> 0 21G<170 494.24> 1360 170<1067.62 1429.28> 1490 20G<486.748 811>
VStem: 170 320<0 320> 1582 339<739.256 1199.71>
DStem2: 165.749 -20 485.749 -20 0.207912 0.978148<86.9786 1204.07 1381.24 1564.19>
LayerCount: 2
Fore
SplineSet
170 0 m 1,0,-1
 491 1510 l 1,1,-1
 811 1510 l 1,2,-1
 759 1266 l 1,3,4
 989 1530 989 1530 1325 1530 c 0,5,6
 1667 1530 1667 1530 1826 1314 c 0,7,8
 1921 1185 1921 1185 1921 991 c 0,9,10
 1921 936 1921 936 1909 859 c 0,11,12
 1848 468 1848 468 1487 208 c 0,13,14
 1170 -20 1170 -20 842 -20 c 0,15,16
 735 -20 735 -20 662 32 c 0,17,18
 605 73 605 73 575 139 c 1,19,-1
 583 146 l 1,20,21
 677 118 677 118 763 118 c 0,22,23
 1039 118 1039 118 1254 306 c 0,24,25
 1496 518 1496 518 1563 835 c 0,26,27
 1582 924 1582 924 1582 995 c 0,28,29
 1582 1125 1582 1125 1532 1212 c 0,30,31
 1447 1360 1447 1360 1246 1360 c 0,32,33
 1060 1360 1060 1360 897 1225 c 0,34,35
 718 1076 718 1076 674 868 c 2,36,-1
 490 0 l 1,37,-1
 170 0 l 1,0,-1
EndSplineSet
Validated: 1
EndChar

StartChar: E
Encoding: 69 69 40
Width: 1641
GlyphClass: 2
Flags: W
HStem: -20 170<688.992 1095.24> 670 170<603 1346> 1360 170<1041.42 1439.95>
VStem: 196 339<307.637 665.206>
CounterMasks: 1 e0
LayerCount: 2
Fore
SplineSet
823 -20 m 0,0,1
 450 -20 450 -20 291 196 c 0,2,3
 196 325 196 325 196 519 c 0,4,5
 196 582 196 582 208 651 c 0,6,7
 274 1037 274 1037 630 1302 c 0,8,9
 937 1530 937 1530 1317 1530 c 0,10,11
 1685 1530 1685 1530 1862 1295 c 1,12,-1
 1577 1167 l 1,13,14
 1480 1360 1480 1360 1270 1360 c 0,15,16
 1040 1360 1040 1360 863 1203 c 0,17,18
 687 1047 687 1047 603 840 c 1,19,-1
 1383 840 l 1,20,-1
 1346 670 l 1,21,-1
 552 670 l 1,22,23
 535 586 535 586 535 515 c 0,24,25
 535 381 535 381 585 298 c 0,26,27
 673 150 673 150 871 150 c 0,28,29
 1100 150 1100 150 1277 307 c 0,30,31
 1382 400 1382 400 1454 511 c 1,32,-1
 1664 344 l 1,33,34
 1595 273 1595 273 1510 208 c 0,35,36
 1212 -20 1212 -20 823 -20 c 0,0,1
EndSplineSet
Validated: 1
EndChar

StartChar: F
Encoding: 70 70 41
Width: 1420
GlyphClass: 2
Flags: W
HStem: 0 21G<170 494.239> 670 170<669 1202> 1346 184<1064.39 1326.25> 1490 20G<486.748 811>
VStem: 170 320<0 320>
DStem2: 170 0 490 0 0.207912 0.978148<66.5317 751.414 925.392 1203.98 1360.79 1543.74>
LayerCount: 2
Fore
SplineSet
170 0 m 1,0,-1
 491 1510 l 1,1,-1
 811 1510 l 1,2,-1
 759 1266 l 1,3,4
 989 1530 989 1530 1309 1530 c 0,5,6
 1544 1530 1544 1530 1640 1391 c 0,7,8
 1676 1339 1676 1339 1689 1288 c 1,9,-1
 1379 1130 l 1,10,11
 1381 1148 1381 1148 1381 1164 c 0,12,13
 1381 1232 1381 1232 1351 1276 c 0,14,15
 1303 1346 1303 1346 1193 1346 c 0,16,17
 1000 1346 1000 1346 846 1196 c 0,18,19
 713 1067 713 1067 674 866 c 2,20,-1
 669 840 l 1,21,-1
 1239 840 l 1,22,-1
 1202 670 l 1,23,-1
 632 670 l 1,24,-1
 490 0 l 1,25,-1
 170 0 l 1,0,-1
EndSplineSet
Validated: 1
EndChar

StartChar: G
Encoding: 71 71 42
Width: 1819
GlyphClass: 2
Flags: W
HStem: -20 170<688.992 1095.01> 670 170<1164 1536> 1360 170<1041.42 1439.95>
VStem: 196 339<307.637 769.189>
CounterMasks: 1 e0
LayerCount: 2
Fore
SplineSet
823 -20 m 0,0,1
 450 -20 450 -20 291 196 c 0,2,3
 196 325 196 325 196 519 c 0,4,5
 196 582 196 582 208 651 c 0,6,7
 275 1038 275 1038 630 1302 c 0,8,9
 937 1530 937 1530 1317 1530 c 0,10,11
 1685 1530 1685 1530 1862 1295 c 1,12,-1
 1577 1167 l 1,13,14
 1480 1360 1480 1360 1270 1360 c 0,15,16
 1040 1360 1040 1360 863 1203 c 0,17,18
 619 987 619 987 553 674 c 0,19,20
 535 588 535 588 535 515 c 0,21,22
 535 381 535 381 585 298 c 0,23,24
 673 150 673 150 871 150 c 0,25,26
 1100 150 1100 150 1277 307 c 0,27,28
 1452 463 1452 463 1536 670 c 1,29,-1
 1127 670 l 1,30,-1
 1164 840 l 1,31,-1
 1928 840 l 1,32,33
 1851 469 1851 469 1510 208 c 16,34,35
 1211 -20 1211 -20 823 -20 c 0,0,1
EndSplineSet
Validated: 1
EndChar

StartChar: H
Encoding: 72 72 43
Width: 1632
GlyphClass: 2
Flags: W
HStem: 0 21G<170 494.239 1142 1466.25> 670 170<669 1284> 1490 20G<486.748 811 1458.76 1783>
VStem: 170 320<0 320> 491 320<1190 1510> 1142 320<0 320> 1463 320<1190 1510>
DStem2: 170 0 490 0 0.207912 0.978148<66.5317 751.414 925.392 1543.74> 1142 0 1462 0 0.207912 0.978148<66.5317 684.882 858.86 1543.74>
LayerCount: 2
Fore
SplineSet
170 0 m 1,0,-1
 491 1510 l 1,1,-1
 811 1510 l 1,2,-1
 669 840 l 1,3,-1
 1321 840 l 1,4,-1
 1463 1510 l 1,5,-1
 1783 1510 l 1,6,-1
 1462 0 l 1,7,-1
 1142 0 l 1,8,-1
 1284 670 l 1,9,-1
 632 670 l 1,10,-1
 490 0 l 1,11,-1
 170 0 l 1,0,-1
EndSplineSet
Validated: 1
EndChar

StartChar: I
Encoding: 73 73 44
Width: 660
GlyphClass: 2
Flags: W
HStem: 0 21G<170 494.252> 1490 20G<486.748 811>
VStem: 170 320<0 320> 491 320<1190 1510>
DStem2: 170 0 490 0 0.207912 0.978148<66.5317 1543.74>
LayerCount: 2
Fore
SplineSet
170 0 m 1,0,-1
 491 1510 l 1,1,-1
 811 1510 l 1,2,-1
 490 0 l 1,3,-1
 170 0 l 1,0,-1
EndSplineSet
Validated: 1
EndChar

StartChar: J
Encoding: 74 74 45
Width: 1289
GlyphClass: 2
Flags: W
HStem: -20 156<333.514 666.771> 1340 170<551 1084>
DStem2: 794.669 -20 1114.84 -20 0.207912 0.978148<386.704 1390.44>
LayerCount: 2
Fore
SplineSet
484 -20 m 0,0,1
 185 -20 185 -20 33 133 c 1,2,-1
 249 315 l 1,3,4
 298 136 298 136 481 136 c 0,5,6
 632 136 632 136 744 230 c 0,7,8
 870 336 870 336 912 532 c 2,9,-1
 1084 1340 l 1,10,-1
 515 1340 l 1,11,-1
 551 1510 l 1,12,-1
 1440 1510 l 1,13,-1
 1236 550 l 2,14,15
 1186 315 1186 315 1034 176 c 0,16,17
 820 -20 820 -20 484 -20 c 0,0,1
EndSplineSet
Validated: 1
EndChar

StartChar: K
Encoding: 75 75 46
Width: 1558
GlyphClass: 2
Flags: W
HStem: 0 21G<170 494.26 1067.62 1528> 1490 20G<486.748 811 1357.5 1707>
VStem: 170 320<0 320> 491 320<1190 1510> 1087 441<0 441> 1387 320<1190 1510>
DStem2: 170 0 490 0 0.207912 0.978148<66.5317 422.602 585.885 1543.74>
LayerCount: 2
Fore
SplineSet
170 0 m 1,0,-1
 491 1510 l 1,1,-1
 811 1510 l 1,2,-1
 598 508 l 1,3,4
 677 516 677 516 778 548 c 0,5,6
 1111 652 1111 652 1260 1051 c 0,7,8
 1328 1234 1328 1234 1387 1510 c 1,9,-1
 1707 1510 l 1,10,11
 1648 1233 1648 1233 1600 1102 c 0,12,13
 1447 676 1447 676 1044 473 c 1,14,-1
 1528 0 l 1,15,-1
 1087 0 l 1,16,-1
 743 355 l 1,17,18
 653 338 653 338 562 338 c 1,19,-1
 490 0 l 1,20,-1
 170 0 l 1,0,-1
EndSplineSet
Validated: 1
EndChar

StartChar: L
Encoding: 76 76 47
Width: 1128
GlyphClass: 2
Flags: W
HStem: 0 170<526 1118> 1490 20G<486.748 811>
VStem: 491 320<1190 1510>
DStem2: 170 0 489.865 0 0.207912 0.978148<240.302 1543.74>
LayerCount: 2
Fore
SplineSet
170 0 m 1,0,-1
 491 1510 l 1,1,-1
 811 1510 l 1,2,-1
 526 170 l 1,3,-1
 1154 170 l 1,4,-1
 1118 0 l 1,5,-1
 170 0 l 1,0,-1
EndSplineSet
Validated: 1
EndChar

StartChar: M
Encoding: 77 77 48
Width: 2542
GlyphClass: 2
Flags: W
HStem: 0 21G<170 494.249 1111 1435.25 2052 2376.24> 1346 184<1054.47 1306.63 1973.76 2253.87> 1490 20G<486.748 811>
VStem: 170 320<0 320> 1111 320<0 320> 2052 320<0 320> 2294 321<1024.75 1305.79>
DStem2: 170 0 490 0 0.207912 0.978148<66.5317 1192.65 1360.79 1543.74> 1111 0 1431 0 0.207912 0.978148<66.5317 1191.11> 2052 0 2372 0 0.207912 0.978148<66.5317 1208.07>
LayerCount: 2
Fore
SplineSet
170 0 m 1,0,-1
 491 1510 l 1,1,-1
 811 1510 l 1,2,-1
 759 1266 l 1,3,4
 981 1530 981 1530 1295 1530 c 0,5,6
 1607 1530 1607 1530 1657 1258 c 1,7,8
 1897 1530 1897 1530 2225 1530 c 0,9,10
 2458 1530 2458 1530 2556 1393 c 0,11,12
 2615 1310 2615 1310 2615 1198 c 0,13,14
 2615 1147 2615 1147 2603 1089 c 2,15,-1
 2372 0 l 1,16,-1
 2052 0 l 1,17,-1
 2282 1083 l 2,18,19
 2294 1141 2294 1141 2294 1185 c 0,20,21
 2294 1244 2294 1244 2272 1279 c 0,22,23
 2230 1346 2230 1346 2128 1346 c 0,24,25
 1972 1346 1972 1346 1826 1222 c 0,26,27
 1661 1083 1661 1083 1615 866 c 2,28,-1
 1431 0 l 1,29,-1
 1111 0 l 1,30,-1
 1341 1083 l 2,31,32
 1353 1137 1353 1137 1353 1180 c 0,33,34
 1353 1240 1353 1240 1329 1276 c 0,35,36
 1284 1346 1284 1346 1187 1346 c 0,37,38
 1034 1346 1034 1346 885 1222 c 0,39,40
 721 1086 721 1086 674 866 c 2,41,-1
 490 0 l 1,42,-1
 170 0 l 1,0,-1
EndSplineSet
Validated: 1
EndChar

StartChar: N
Encoding: 78 78 49
Width: 1631
GlyphClass: 2
Flags: W
HStem: 0 21G<170 494.249 1141 1465.24> 1346 184<1064.39 1326.16> 1490 20G<486.748 811>
VStem: 170 320<0 320> 1141 320<0 320> 1381 322<1024.49 1294.3>
DStem2: 170 0 490 0 0.207912 0.978148<66.5317 1206.6 1360.79 1543.74> 1141 0 1461 0 0.207912 0.978148<66.5317 1190.23>
LayerCount: 2
Fore
SplineSet
170 0 m 1,0,-1
 491 1510 l 1,1,-1
 811 1510 l 1,2,-1
 759 1266 l 1,3,4
 989 1530 989 1530 1309 1530 c 0,5,6
 1541 1530 1541 1530 1640 1391 c 0,7,8
 1703 1300 1703 1300 1703 1187 c 0,9,10
 1703 1140 1703 1140 1692 1089 c 2,11,-1
 1461 0 l 1,12,-1
 1141 0 l 1,13,-1
 1371 1083 l 2,14,15
 1381 1129 1381 1129 1381 1167 c 0,16,17
 1381 1233 1381 1233 1351 1276 c 0,18,19
 1303 1346 1303 1346 1193 1346 c 0,20,21
 1000 1346 1000 1346 846 1196 c 0,22,23
 718 1072 718 1072 674 866 c 2,24,-1
 490 0 l 1,25,-1
 170 0 l 1,0,-1
EndSplineSet
Validated: 1
EndChar

StartChar: O
Encoding: 79 79 50
Width: 1819
GlyphClass: 2
Flags: W
HStem: -20 170<688.992 1100.09> 1360 170<1041.42 1451.11>
VStem: 196 339<307.637 769.058> 1605 339<741.733 1202.36>
LayerCount: 2
Fore
SplineSet
823 -20 m 0,0,1
 450 -20 450 -20 291 196 c 0,2,3
 196 325 196 325 196 519 c 0,4,5
 196 582 196 582 208 651 c 0,6,7
 274 1037 274 1037 630 1302 c 0,8,9
 937 1530 937 1530 1317 1530 c 0,10,11
 1690 1530 1690 1530 1849 1314 c 0,12,13
 1944 1185 1944 1185 1944 991 c 0,14,15
 1944 928 1944 928 1932 859 c 0,16,17
 1867 479 1867 479 1510 208 c 0,18,19
 1209 -20 1209 -20 823 -20 c 0,0,1
871 150 m 0,20,21
 1100 150 1100 150 1277 307 c 0,22,23
 1521 523 1521 523 1587 836 c 0,24,25
 1605 922 1605 922 1605 995 c 0,26,27
 1605 1129 1605 1129 1555 1212 c 0,28,29
 1467 1360 1467 1360 1270 1360 c 0,30,31
 1040 1360 1040 1360 863 1203 c 0,32,33
 619 987 619 987 553 674 c 0,34,35
 535 588 535 588 535 515 c 0,36,37
 535 381 535 381 585 298 c 0,38,39
 673 150 673 150 871 150 c 0,20,21
EndSplineSet
Validated: 1
EndChar

StartChar: P
Encoding: 80 80 51
Width: 1595
GlyphClass: 2
Flags: W
HStem: 0 21G<170 494.245> 344 138<751.398 1056.09> 1346 184<1062.33 1324.33> 1490 20G<486.748 811>
VStem: 170 320<0 320> 1410 340<895.965 1260.18>
DStem2: 170 0 490 0 0.207912 0.978148<66.5317 1191.29 1360.79 1543.74>
LayerCount: 2
Fore
SplineSet
170 0 m 1,0,-1
 491 1510 l 1,1,-1
 811 1510 l 1,2,-1
 759 1266 l 1,3,4
 989 1530 989 1530 1309 1530 c 0,5,6
 1536 1530 1536 1530 1656 1381 c 0,7,8
 1750 1265 1750 1265 1750 1113 c 0,9,10
 1750 1069 1750 1069 1742 1022 c 0,11,12
 1684 671 1684 671 1378 479 c 0,13,14
 1162 344 1162 344 949 344 c 0,15,16
 812 344 812 344 739 396 c 0,17,18
 682 437 682 437 652 503 c 1,19,-1
 660 510 l 1,20,21
 754 482 754 482 840 482 c 0,22,23
 1035 482 1035 482 1173 602 c 0,24,25
 1344 751 1344 751 1398 1007 c 0,26,27
 1410 1063 1410 1063 1410 1111 c 0,28,29
 1410 1199 1410 1199 1369 1257 c 0,30,31
 1307 1346 1307 1346 1170 1346 c 0,32,33
 1032 1346 1032 1346 885 1222 c 0,34,35
 720 1083 720 1083 674 867 c 2,36,-1
 490 0 l 1,37,-1
 170 0 l 1,0,-1
EndSplineSet
Validated: 1
EndChar

StartChar: Q
Encoding: 81 81 52
Width: 1819
GlyphClass: 2
Flags: W
HStem: -20 170<688.992 1054.09> 0 21G<1227.1 1671> 1360 170<1041.42 1451.11>
VStem: 196 339<307.637 769.058> 1605 339<740.195 1202.36>
LayerCount: 2
Fore
SplineSet
1671 0 m 1,0,-1
 1249 0 l 1,1,-1
 1203 42 l 1,2,3
 1024 -20 1024 -20 823 -20 c 0,4,5
 450 -20 450 -20 291 196 c 0,6,7
 196 325 196 325 196 519 c 0,8,9
 196 582 196 582 208 651 c 0,10,11
 274 1037 274 1037 630 1302 c 0,12,13
 937 1530 937 1530 1317 1530 c 0,14,15
 1690 1530 1690 1530 1849 1314 c 0,16,17
 1944 1185 1944 1185 1944 991 c 0,18,19
 1944 928 1944 928 1932 859 c 0,20,21
 1867 479 1867 479 1510 208 c 0,22,23
 1492 194 1492 194 1473 181 c 1,24,-1
 1671 0 l 1,0,-1
1306 334 m 1,25,26
 1525 542 1525 542 1587 836 c 0,27,28
 1605 922 1605 922 1605 995 c 0,29,30
 1605 1129 1605 1129 1555 1212 c 0,31,32
 1467 1360 1467 1360 1270 1360 c 0,33,34
 1040 1360 1040 1360 863 1203 c 0,35,36
 619 987 619 987 553 674 c 0,37,38
 535 588 535 588 535 515 c 0,39,40
 535 381 535 381 585 298 c 0,41,42
 673 150 673 150 871 150 c 0,43,44
 969 150 969 150 1057 178 c 1,45,-1
 790 426 l 1,46,-1
 1206 426 l 1,47,-1
 1306 334 l 1,25,26
EndSplineSet
Validated: 1
EndChar

StartChar: R
Encoding: 82 82 53
Width: 1679
GlyphClass: 2
Flags: W
HStem: 0 21G<170 494.245 1157.64 1609> 1346 184<1062.33 1324.27> 1490 20G<486.748 811>
VStem: 170 320<0 320> 1410 340<893.527 1261.41>
DStem2: 170 0 490 0 0.207912 0.978148<66.5317 1191.29 1360.79 1543.74>
LayerCount: 2
Fore
SplineSet
170 0 m 1,0,-1
 491 1510 l 1,1,-1
 811 1510 l 1,2,-1
 759 1266 l 1,3,4
 989 1530 989 1530 1309 1530 c 0,5,6
 1534 1530 1534 1530 1656 1381 c 0,7,8
 1750 1267 1750 1267 1750 1114 c 0,9,10
 1750 1070 1750 1070 1742 1022 c 0,11,12
 1683 663 1683 663 1378 479 c 0,13,14
 1292 427 1292 427 1192 387 c 1,15,-1
 1609 0 l 1,16,-1
 1178 0 l 1,17,-1
 672 497 l 1,18,-1
 680 504 l 1,19,20
 763 482 763 482 840 482 c 0,21,22
 1035 482 1035 482 1173 602 c 0,23,24
 1344 751 1344 751 1398 1007 c 0,25,26
 1410 1063 1410 1063 1410 1111 c 0,27,28
 1410 1199 1410 1199 1369 1257 c 0,29,30
 1307 1346 1307 1346 1170 1346 c 0,31,32
 1032 1346 1032 1346 885 1222 c 0,33,34
 720 1083 720 1083 674 867 c 2,35,-1
 490 0 l 1,36,-1
 170 0 l 1,0,-1
EndSplineSet
Validated: 1
EndChar

StartChar: S
Encoding: 83 83 54
Width: 1352
GlyphClass: 2
Flags: W
HStem: -20 170<524.56 868.002> 1358 172<903.27 1179.12>
VStem: 497 321<1076.59 1257.6> 1058 335<366.796 607.527>
DStem2: 920 1032 701 782 0.886225 -0.463254<-127.013 333.901>
LayerCount: 2
Fore
SplineSet
651 -20 m 0,0,1
 298 -20 298 -20 119 232 c 1,2,-1
 395 363 l 1,3,4
 472 150 472 150 700 150 c 0,5,6
 853 150 853 150 956 264 c 0,7,8
 1034 350 1034 350 1053 449 c 0,9,10
 1058 475 1058 475 1058 499 c 0,11,12
 1058 595 1058 595 959 647 c 2,13,-1
 701 782 l 2,14,15
 497 889 497 889 497 1089 c 0,16,17
 497 1111 497 1111 500 1134 c 0,18,19
 519 1301 519 1301 702 1423 c 0,20,21
 862 1530 862 1530 1075 1530 c 0,22,23
 1343 1530 1343 1530 1469 1365 c 1,24,-1
 1233 1220 l 1,25,26
 1195 1358 1195 1358 1055 1358 c 0,27,28
 965 1358 965 1358 904 1315 c 0,29,30
 834 1266 834 1266 821 1197 c 0,31,32
 818 1181 818 1181 818 1167 c 0,33,34
 818 1085 818 1085 920 1032 c 2,35,-1
 1184 894 l 2,36,37
 1393 785 1393 785 1393 567 c 0,38,39
 1393 537 1393 537 1389 505 c 0,40,41
 1365 320 1365 320 1196 170 c 0,42,43
 981 -20 981 -20 651 -20 c 0,0,1
EndSplineSet
Validated: 1
EndChar

StartChar: T
Encoding: 84 84 55
Width: 1260
GlyphClass: 2
Flags: W
HStem: 0 21G<470 794.254> 1340 170<331 755 1075 1535>
VStem: 470 320<0 320>
DStem2: 470 0 790 0 0.207912 0.978148<66.5317 1369.97>
LayerCount: 2
Fore
SplineSet
470 0 m 1,0,-1
 755 1340 l 1,1,-1
 295 1340 l 1,2,-1
 331 1510 l 1,3,-1
 1571 1510 l 1,4,-1
 1535 1340 l 1,5,-1
 1075 1340 l 1,6,-1
 790 0 l 1,7,-1
 470 0 l 1,0,-1
EndSplineSet
Validated: 1
EndChar

StartChar: U
Encoding: 85 85 56
Width: 1631
GlyphClass: 2
Flags: W
HStem: -20 184<625.844 887.613> 0 21G<1141 1465.25> 1490 20G<486.758 811 1457.75 1782>
VStem: 249 322<215.697 485.512> 491 320<1190 1510> 1462 320<1190 1510>
DStem2: 166.263 -20 485.987 -20 0.207912 0.978148<440.381 1564.08> 1136.75 -20 1456.75 -20 0.207912 0.978148<86.9786 269.926 424.125 1564.19>
LayerCount: 2
Fore
SplineSet
1461 0 m 1,0,-1
 1141 0 l 1,1,-1
 1193 244 l 1,2,3
 963 -20 963 -20 643 -20 c 0,4,5
 411 -20 411 -20 312 119 c 0,6,7
 249 210 249 210 249 323 c 0,8,9
 249 370 249 370 260 421 c 2,10,-1
 491 1510 l 1,11,-1
 811 1510 l 1,12,-1
 581 427 l 2,13,14
 571 381 571 381 571 343 c 0,15,16
 571 277 571 277 601 234 c 0,17,18
 649 164 649 164 759 164 c 0,19,20
 952 164 952 164 1106 314 c 0,21,22
 1234 438 1234 438 1278 644 c 2,23,-1
 1462 1510 l 1,24,-1
 1782 1510 l 1,25,-1
 1461 0 l 1,0,-1
EndSplineSet
Validated: 1
EndChar

StartChar: V
Encoding: 86 86 57
Width: 1683
GlyphClass: 2
Flags: W
HStem: 0 21G<677.285 1015.21> 1490 20G<326 658.503 1777.85 1999>
VStem: 326 328<1182 1510> 1791 208<1302 1510>
DStem2: 654 1510 326 1510 0.22947 -0.973316<0 1320.18> 944 222 1002 0 0.550996 0.834508<0 1541.54>
LayerCount: 2
Fore
SplineSet
682 0 m 1,0,-1
 326 1510 l 1,1,-1
 654 1510 l 1,2,-1
 944 222 l 1,3,-1
 1791 1510 l 1,4,-1
 1999 1510 l 1,5,-1
 1002 0 l 1,6,-1
 682 0 l 1,0,-1
EndSplineSet
Validated: 1
EndChar

StartChar: W
Encoding: 87 87 58
Width: 2475
GlyphClass: 2
Flags: W
HStem: -20 184<609.248 889.238 1556.37 1830.2> 1490 20G<486.739 811 1427.75 1752 2025 2468>
VStem: 247 322<204.445 484.983> 491 320<1190 1510> 1432 320<1190 1510> 2301 305<765.289 1222.26>
DStem2: 165.263 -20 485.987 -20 0.207912 0.978148<422.752 1564.29> 1106.86 -20 1426.99 -20 0.207912 0.978148<439.583 1564.17>
LayerCount: 2
Fore
SplineSet
638 -20 m 0,0,1
 407 -20 407 -20 307 117 c 0,2,3
 247 200 247 200 247 313 c 0,4,5
 247 364 247 364 259 421 c 2,6,-1
 491 1510 l 1,7,-1
 811 1510 l 1,8,-1
 581 427 l 2,9,10
 569 369 569 369 569 325 c 0,11,12
 569 266 569 266 591 231 c 0,13,14
 633 164 633 164 735 164 c 0,15,16
 891 164 891 164 1037 288 c 0,17,18
 1202 427 1202 427 1248 644 c 2,19,-1
 1432 1510 l 1,20,-1
 1752 1510 l 1,21,-1
 1522 427 l 2,22,23
 1510 373 1510 373 1510 331 c 0,24,25
 1510 271 1510 271 1534 234 c 0,26,27
 1579 164 1579 164 1676 164 c 0,28,29
 1827 164 1827 164 1991 320 c 0,30,31
 2221 537 2221 537 2283 838 c 0,32,33
 2301 927 2301 927 2301 1005 c 0,34,35
 2301 1116 2301 1116 2264 1206 c 0,36,37
 2193 1375 2193 1375 2025 1510 c 1,38,-1
 2412 1510 l 1,39,40
 2524 1403 2524 1403 2571 1253 c 0,41,42
 2606 1146 2606 1146 2606 1031 c 0,43,44
 2606 947 2606 947 2587 858 c 0,45,46
 2508 486 2508 486 2161 211 c 0,47,48
 1870 -20 1870 -20 1568 -20 c 0,49,50
 1256 -20 1256 -20 1206 252 c 1,51,52
 966 -20 966 -20 638 -20 c 0,0,1
EndSplineSet
Validated: 1
EndChar

StartChar: X
Encoding: 88 88 59
Width: 1532
GlyphClass: 2
Flags: W
HStem: 0 21G<5 279.064 1154.87 1527> 1490 20G<326 698.135 1573.94 1848>
VStem: 5 253<0 253> 1595 253<1257 1510>
DStem2: 5 0 258 0 0.725113 0.68863<183.454 1002.56 1373.66 2192.76> 687 1510 326 1510 0.486134 -0.873884<0 645.517 906.907 1552.42>
LayerCount: 2
Fore
SplineSet
5 0 m 1,0,-1
 765 721 l 1,1,-1
 326 1510 l 1,2,-1
 687 1510 l 1,3,-1
 1001 946 l 1,4,-1
 1595 1510 l 1,5,-1
 1848 1510 l 1,6,-1
 1088 789 l 1,7,-1
 1527 0 l 1,8,-1
 1166 0 l 1,9,-1
 852 564 l 1,10,-1
 258 0 l 1,11,-1
 5 0 l 1,0,-1
EndSplineSet
Validated: 1
EndChar

StartChar: Y
Encoding: 89 89 60
Width: 1524
GlyphClass: 2
Flags: W
HStem: 0 21G<588 912.255> 1490 20G<326 661.44 1608.47 1840>
VStem: 326 329<1181 1510> 588 320<0 320> 1624 216<1294 1510>
DStem2: 655 1510 326 1510 0.30782 -0.951445<0 926.595> 939 628 998 423 0.612379 0.790565<0 1116.76>
LayerCount: 2
Fore
SplineSet
588 0 m 1,0,-1
 678 422 l 1,1,-1
 326 1510 l 1,2,-1
 655 1510 l 1,3,-1
 939 628 l 1,4,-1
 1624 1510 l 1,5,-1
 1840 1510 l 1,6,-1
 998 423 l 1,7,-1
 908 0 l 1,8,-1
 588 0 l 1,0,-1
EndSplineSet
Validated: 1
EndChar

StartChar: Z
Encoding: 90 90 61
Width: 1450
GlyphClass: 2
Flags: W
HStem: 0 170<589 1320> 1340 170<441 1266>
LayerCount: 2
Fore
SplineSet
40 0 m 1,0,-1
 76 170 l 1,1,2
 1138 727 1138 727 1266 1340 c 1,3,-1
 405 1340 l 1,4,-1
 441 1510 l 1,5,-1
 1641 1510 l 1,6,7
 1454 613 1454 613 589 170 c 1,8,-1
 1356 170 l 1,9,-1
 1320 0 l 1,10,-1
 40 0 l 1,0,-1
EndSplineSet
Validated: 1
EndChar

StartChar: bracketleft
Encoding: 91 91 62
Width: 913
GlyphClass: 2
Flags: W
HStem: -250 170<473 840> 1590 170<828 1231>
DStem2: 117 -250 436.865 -250 0.207912 0.978148<240.302 1947.62>
LayerCount: 2
Fore
SplineSet
117 -250 m 1,0,-1
 544 1760 l 1,1,-1
 1267 1760 l 1,2,-1
 1231 1590 l 1,3,-1
 828 1590 l 1,4,-1
 473 -80 l 1,5,-1
 876 -80 l 1,6,-1
 840 -250 l 1,7,-1
 117 -250 l 1,0,-1
EndSplineSet
Validated: 1
EndChar

StartChar: backslash
Encoding: 92 92 63
Width: 1276
GlyphClass: 2
Flags: W
DStem2: 655 1640 359 1640 0.312845 -0.949804<0 1770.63>
LayerCount: 2
Fore
SplineSet
941 -130 m 1,0,-1
 359 1640 l 1,1,-1
 655 1640 l 1,2,-1
 1238 -130 l 1,3,-1
 941 -130 l 1,0,-1
EndSplineSet
Validated: 1
EndChar

StartChar: bracketright
Encoding: 93 93 64
Width: 913
GlyphClass: 2
Flags: W
HStem: -250 170<3 406> 1590 170<394 761>
DStem2: 369.865 -250 690 -250 0.207912 0.978148<173.798 1881.11>
LayerCount: 2
Fore
SplineSet
690 -250 m 1,0,-1
 -33 -250 l 1,1,-1
 3 -80 l 1,2,-1
 406 -80 l 1,3,-1
 761 1590 l 1,4,-1
 358 1590 l 1,5,-1
 394 1760 l 1,6,-1
 1117 1760 l 1,7,-1
 690 -250 l 1,0,-1
EndSplineSet
Validated: 1
EndChar

StartChar: asciicircum
Encoding: 94 94 65
Width: 1046
GlyphClass: 2
Flags: W
HStem: 1070 440
VStem: 247 209<1070 1279> 964 289<1070 1359>
DStem2: 247 1070 456 1070 0.740631 0.671912<154.792 586.648> 956 1510 776 1360 0.559473 -0.828849<23.6222 369.169>
LayerCount: 2
Fore
SplineSet
732 1510 m 1,0,-1
 956 1510 l 1,1,-1
 1253 1070 l 1,2,-1
 964 1070 l 1,3,-1
 776 1360 l 1,4,-1
 456 1070 l 1,5,-1
 247 1070 l 1,6,-1
 732 1510 l 1,0,-1
EndSplineSet
Validated: 1
EndChar

StartChar: underscore
Encoding: 95 95 66
Width: 1242
GlyphClass: 2
Flags: W
HStem: -410 150<65 1035>
LayerCount: 2
Fore
SplineSet
1035 -410 m 1,0,-1
 33 -410 l 1,1,-1
 65 -260 l 1,2,-1
 1067 -260 l 1,3,-1
 1035 -410 l 1,0,-1
EndSplineSet
Validated: 1
EndChar

StartChar: a
Encoding: 97 97 67
Width: 1385
GlyphClass: 2
Flags: W
HStem: -20 137<566.549 785.555> 0 21G<915 1219.26> 47 99<738.787 872.168> 970 150<796.573 1053.38>
VStem: 161 323<203.714 595.708> 915 300<0 300> 1081 297<570.781 944.846>
DStem2: 910.749 -20 1210.75 -20 0.207912 0.978148<82.8203 866.174>
LayerCount: 2
Fore
SplineSet
1215 0 m 1,0,-1
 915 0 l 1,1,-1
 1064 700 l 2,2,3
 1081 778 1081 778 1081 831 c 0,4,5
 1081 873 1081 873 1070 900 c 0,6,7
 1042 970 1042 970 955 970 c 0,8,9
 823 970 823 970 697 852 c 0,10,11
 542 705 542 705 501 514 c 0,12,13
 484 435 484 435 484 371 c 0,14,15
 484 281 484 281 518 220 c 0,16,17
 575 117 575 117 713 117 c 0,18,19
 815 117 815 117 906 146 c 1,20,-1
 912 139 l 1,21,22
 875 87 875 87 821 47 c 0,23,24
 732 -20 732 -20 603 -20 c 0,25,26
 364 -20 364 -20 237 145 c 0,27,28
 161 243 161 243 161 376 c 0,29,30
 161 426 161 426 172 480 c 0,31,32
 225 755 225 755 466 939 c 0,33,34
 704 1120 704 1120 1005 1120 c 0,35,36
 1220 1120 1220 1120 1313 1010 c 0,37,38
 1378 934 1378 934 1378 817 c 0,39,40
 1378 765 1378 765 1365 705 c 2,41,-1
 1215 0 l 1,0,-1
EndSplineSet
Validated: 1
EndChar

StartChar: b
Encoding: 98 98 68
Width: 1385
GlyphClass: 2
Flags: W
HStem: -20 150<565.619 822.427> 954 99<746.832 880.213> 983 137<833.445 1052.45> 1490 20G<486.749 791>
VStem: 241 297<155.154 519.18> 491 300<1210 1510> 1135 323<504.292 896.286>
DStem2: 165.789 -20 465.726 -20 0.207912 0.978148<361.638 1564.18>
LayerCount: 2
Fore
SplineSet
614 -20 m 0,0,1
 399 -20 399 -20 306 90 c 0,2,3
 241 166 241 166 241 283 c 0,4,5
 241 334 241 334 254 395 c 2,6,-1
 491 1510 l 1,7,-1
 791 1510 l 1,8,-1
 555 400 l 2,9,10
 538 320 538 320 538 269 c 0,11,12
 538 227 538 227 549 200 c 0,13,14
 577 130 577 130 664 130 c 0,15,16
 796 130 796 130 922 248 c 0,17,18
 1077 395 1077 395 1118 586 c 0,19,20
 1135 665 1135 665 1135 729 c 0,21,22
 1135 819 1135 819 1101 880 c 0,23,24
 1044 983 1044 983 906 983 c 0,25,26
 804 983 804 983 713 954 c 1,27,-1
 707 961 l 1,28,29
 744 1013 744 1013 798 1053 c 0,30,31
 887 1120 887 1120 1016 1120 c 0,32,33
 1255 1120 1255 1120 1382 955 c 0,34,35
 1458 857 1458 857 1458 724 c 0,36,37
 1458 674 1458 674 1447 620 c 0,38,39
 1394 345 1394 345 1153 161 c 0,40,41
 915 -20 915 -20 614 -20 c 0,0,1
EndSplineSet
Validated: 1
EndChar

StartChar: c
Encoding: 99 99 69
Width: 1278
GlyphClass: 2
Flags: W
HStem: -20 150<544.687 839.088> 970 150<799.15 1087.61>
VStem: 164 315<198.344 585>
LayerCount: 2
Fore
SplineSet
623 -20 m 0,0,1
 360 -20 360 -20 237 145 c 0,2,3
 164 244 164 244 164 383 c 0,4,5
 164 429 164 429 172 480 c 0,6,7
 214 747 214 747 466 939 c 0,8,9
 704 1120 704 1120 1015 1120 c 0,10,11
 1273 1120 1273 1120 1412 939 c 1,12,-1
 1151 822 l 1,13,14
 1105 970 1105 970 965 970 c 0,15,16
 822 970 822 970 697 852 c 0,17,18
 541 704 541 704 493 476 c 0,19,20
 479 410 479 410 479 356 c 0,21,22
 479 280 479 280 506 226 c 0,23,24
 554 130 554 130 673 130 c 0,25,26
 817 130 817 130 941 248 c 0,27,28
 1021 324 1021 324 1073 422 c 1,29,-1
 1284 261 l 1,30,31
 1235 209 1235 209 1172 161 c 0,32,33
 934 -20 934 -20 623 -20 c 0,0,1
EndSplineSet
Validated: 1
EndChar

StartChar: d
Encoding: 100 100 70
Width: 1451
GlyphClass: 2
Flags: W
HStem: -20 158<543.369 816.191> 0 21G<981 1285.25> 983 137<815.518 1093.82> 1490 20G<1297.75 1602>
VStem: 160 322<201.45 599.509> 1302 300<1210 1510>
DStem2: 976.749 -20 1276.75 -20 0.207912 0.978148<82.8203 203.436 369.365 1564.19>
LayerCount: 2
Fore
SplineSet
1281 0 m 1,0,-1
 981 0 l 1,1,-1
 1019 179 l 1,2,3
 845 -20 845 -20 603 -20 c 128,-1,4
 361 -20 361 -20 237 143 c 0,5,6
 160 244 160 244 160 375 c 0,7,8
 160 418 160 418 166 457 c 0,9,10
 209 739 209 739 466 939 c 0,11,12
 700 1120 700 1120 948 1120 c 0,13,14
 1054 1120 1054 1120 1105 1065 c 0,15,16
 1137 1031 1137 1031 1154 971 c 1,17,-1
 1146 964 l 1,18,19
 1075 983 1075 983 1000 983 c 0,20,21
 830 983 830 983 691 852 c 0,22,23
 542 711 542 711 498 505 c 0,24,25
 482 429 482 429 482 368 c 0,26,27
 482 289 482 289 508 233 c 0,28,29
 551 138 551 138 671 138 c 0,30,31
 782 138 782 138 887 220 c 0,32,33
 1056 353 1056 353 1100 559 c 2,34,-1
 1302 1510 l 1,35,-1
 1602 1510 l 1,36,-1
 1281 0 l 1,0,-1
EndSplineSet
Validated: 1
EndChar

StartChar: e
Encoding: 101 101 71
Width: 1278
GlyphClass: 2
Flags: W
HStem: -20 150<544.687 838.85> 475 150<539 1023> 970 150<799.15 1087.61>
VStem: 164 315<198.344 475>
CounterMasks: 1 e0
LayerCount: 2
Fore
SplineSet
623 -20 m 0,0,1
 360 -20 360 -20 237 145 c 0,2,3
 164 244 164 244 164 383 c 0,4,5
 164 429 164 429 172 480 c 0,6,7
 214 747 214 747 466 939 c 0,8,9
 704 1120 704 1120 1015 1120 c 0,10,11
 1273 1120 1273 1120 1412 939 c 1,12,-1
 1151 822 l 1,13,14
 1105 970 1105 970 965 970 c 0,15,16
 822 970 822 970 697 852 c 0,17,18
 595 756 595 756 539 625 c 1,19,-1
 1055 625 l 1,20,-1
 1023 475 l 1,21,-1
 493 475 l 1,22,23
 479 410 479 410 479 356 c 0,24,25
 479 280 479 280 506 226 c 0,26,27
 554 130 554 130 673 130 c 0,28,29
 816 130 816 130 941 248 c 0,30,31
 1021 324 1021 324 1073 422 c 1,32,-1
 1284 261 l 1,33,34
 1235 209 1235 209 1172 161 c 0,35,36
 934 -20 934 -20 623 -20 c 0,0,1
EndSplineSet
Validated: 1
EndChar

StartChar: f
Encoding: 102 102 72
Width: 1191
GlyphClass: 2
Flags: W
HStem: 0 21G<170 474.265> 680 150<246 315 646 1087> 1380 150<973.822 1275.09>
VStem: 170 300<0 300>
DStem2: 170 0 470 0 0.207912 0.978148<62.3735 695.288 910.828 1150.73>
LayerCount: 2
Fore
SplineSet
170 0 m 1,0,-1
 315 680 l 1,1,-1
 215 680 l 1,2,-1
 246 830 l 1,3,-1
 346 830 l 1,4,5
 413 1160 413 1160 653 1349 c 0,6,7
 884 1530 884 1530 1180 1530 c 0,8,9
 1363 1530 1363 1530 1495 1455 c 1,10,-1
 1322 1274 l 1,11,12
 1271 1380 1271 1380 1152 1380 c 0,13,14
 962 1380 962 1380 812 1205 c 0,15,16
 698 1071 698 1071 646 830 c 1,17,-1
 1118 830 l 1,18,-1
 1087 680 l 1,19,-1
 615 680 l 1,20,-1
 470 0 l 1,21,-1
 170 0 l 1,0,-1
EndSplineSet
Validated: 1
EndChar

StartChar: g
Encoding: 103 103 73
Width: 1385
GlyphClass: 2
Flags: W
HStem: -430 150<343.844 647.58> -20 137<566.549 785.555> 47 99<738.787 872.168> 970 150<796.573 1053.38>
VStem: 161 323<203.714 596.22> 1081 297<569.789 944.846>
DStem2: 823.848 -430 1123.85 -430 0.207912 0.978148<478.482 1285.34>
LayerCount: 2
Fore
SplineSet
603 -20 m 0,0,1
 364 -20 364 -20 237 145 c 0,2,3
 161 243 161 243 161 376 c 0,4,5
 161 426 161 426 172 480 c 0,6,7
 229 758 229 758 466 939 c 0,8,9
 704 1120 704 1120 1005 1120 c 0,10,11
 1220 1120 1220 1120 1313 1010 c 0,12,13
 1378 934 1378 934 1378 817 c 0,14,15
 1378 766 1378 766 1365 705 c 2,16,-1
 1272 267 l 2,17,18
 1209 -28 1209 -28 1008 -214 c 0,19,20
 775 -430 775 -430 439 -430 c 0,21,22
 256 -430 256 -430 124 -355 c 1,23,-1
 297 -174 l 1,24,25
 348 -280 348 -280 466 -280 c 0,26,27
 657 -280 657 -280 807 -105 c 0,28,29
 921 28 921 28 972 267 c 2,30,-1
 1064 700 l 2,31,32
 1081 780 1081 780 1081 831 c 0,33,34
 1081 873 1081 873 1070 900 c 0,35,36
 1042 970 1042 970 955 970 c 0,37,38
 823 970 823 970 697 852 c 0,39,40
 542 705 542 705 501 514 c 0,41,42
 484 435 484 435 484 371 c 0,43,44
 484 281 484 281 518 220 c 0,45,46
 575 117 575 117 713 117 c 0,47,48
 815 117 815 117 906 146 c 1,49,-1
 912 139 l 1,50,51
 875 87 875 87 821 47 c 0,52,53
 732 -20 732 -20 603 -20 c 0,0,1
EndSplineSet
Validated: 1
EndChar

StartChar: h
Encoding: 104 104 74
Width: 1422
GlyphClass: 2
Flags: W
HStem: 0 21G<170 474.238 952 1256.26> 950 170<900.21 1212> 1490 20G<486.748 791>
VStem: 170 300<0 300> 491 300<1210 1510> 952 300<0 300> 1121 302<688.955 929.474>
DStem2: 170 0 470 0 0.207912 0.978148<62.3735 838.898 1004 1543.74> 952 0 1252 0 0.207912 0.978148<62.3735 847.792>
LayerCount: 2
Fore
SplineSet
170 0 m 1,0,-1
 491 1510 l 1,1,-1
 791 1510 l 1,2,-1
 666 921 l 1,3,4
 874 1120 874 1120 1128 1120 c 0,5,6
 1296 1120 1296 1120 1371 1016 c 0,7,8
 1423 944 1423 944 1423 846 c 0,9,10
 1423 804 1423 804 1412 752 c 2,11,-1
 1252 0 l 1,12,-1
 952 0 l 1,13,-1
 1111 747 l 2,14,15
 1121 794 1121 794 1121 832 c 0,16,17
 1121 871 1121 871 1109 895 c 0,18,19
 1079 950 1079 950 1002 950 c 0,20,21
 858 950 858 950 729 815 c 0,22,23
 618 699 618 699 584 538 c 2,24,-1
 470 0 l 1,25,-1
 170 0 l 1,0,-1
EndSplineSet
Validated: 1
EndChar

StartChar: i
Encoding: 105 105 75
Width: 640
GlyphClass: 2
Flags: W
HStem: -20 150<542.251 626> 1080 20G<399.752 704> 1160 370<516.695 695.234>
VStem: 221 304<149.122 340.551> 404 300<800 1100>
DStem2: 166.083 -20 466.233 -20 0.207912 0.978148<323.716 1144.99>
LayerCount: 2
Fore
SplineSet
645 1530 m 128,-1,1
 721 1530 721 1530 763 1476 c 0,2,3
 792 1438 792 1438 792 1386 c 0,4,5
 792 1366 792 1366 788 1345 c 0,6,7
 772 1268 772 1268 707.5 1214 c 128,-1,8
 643 1160 643 1160 567 1160 c 0,9,10
 489 1160 489 1160 449 1214 c 0,11,12
 420 1253 420 1253 420 1304 c 0,13,14
 420 1324 420 1324 424 1345 c 0,15,16
 440 1422 440 1422 504.5 1476 c 128,-1,0
 569 1530 569 1530 645 1530 c 128,-1,1
626 -20 m 1,17,18
 221 -20 221 -20 221 209 c 0,19,20
 221 240 221 240 229 276 c 2,21,-1
 404 1100 l 1,22,-1
 704 1100 l 1,23,-1
 530 280 l 2,24,25
 525 255 525 255 525 234 c 0,26,27
 525 130 525 130 658 130 c 1,28,-1
 626 -20 l 1,17,18
EndSplineSet
Validated: 1
EndChar

StartChar: j
Encoding: 106 106 76
Width: 640
GlyphClass: 2
Flags: W
HStem: -430 150<-50 65.6926> 1080 20G<399.746 704> 1160 370<516.695 695.234>
VStem: 404 300<800 1100>
DStem2: 78.6052 -430 378.455 -430 0.207912 0.978148<220.255 1564.22>
LayerCount: 2
Fore
SplineSet
645 1530 m 128,-1,1
 721 1530 721 1530 763 1476 c 0,2,3
 792 1438 792 1438 792 1386 c 0,4,5
 792 1366 792 1366 788 1345 c 0,6,7
 772 1268 772 1268 707.5 1214 c 128,-1,8
 643 1160 643 1160 567 1160 c 0,9,10
 489 1160 489 1160 449 1214 c 0,11,12
 420 1253 420 1253 420 1304 c 0,13,14
 420 1324 420 1324 424 1345 c 0,15,16
 440 1422 440 1422 504.5 1476 c 128,-1,0
 569 1530 569 1530 645 1530 c 128,-1,1
-81 -430 m 1,17,-1
 -50 -280 l 1,18,19
 110 -280 110 -280 153 -80 c 2,20,-1
 404 1100 l 1,21,-1
 704 1100 l 1,22,-1
 452 -84 l 2,23,24
 379 -430 379 -430 -81 -430 c 1,17,-1
EndSplineSet
Validated: 1
EndChar

StartChar: k
Encoding: 107 107 77
Width: 1366
GlyphClass: 2
Flags: W
HStem: 0 21G<170 474.231 943.952 1356> 208 151<546 723.655> 1080 20G<1090.5 1430> 1490 20G<486.748 791>
VStem: 491 300<1210 1510> 1130 300<800 1100>
DStem2: 170 0 470 0 0.207912 0.978148<62.3735 284.564 429.33 1543.74>
LayerCount: 2
Fore
SplineSet
170 0 m 1,0,-1
 491 1510 l 1,1,-1
 791 1510 l 1,2,-1
 546 359 l 1,3,4
 796 382 796 382 942 581 c 0,5,6
 1051 730 1051 730 1130 1100 c 1,7,-1
 1430 1100 l 1,8,9
 1358 757 1358 757 1221 561 c 0,10,11
 1138 442 1138 442 1003 345 c 1,12,-1
 1356 0 l 1,13,-1
 963 0 l 1,14,-1
 743 231 l 1,15,16
 641 208 641 208 514 208 c 1,17,-1
 470 0 l 1,18,-1
 170 0 l 1,0,-1
EndSplineSet
Validated: 1
EndChar

StartChar: l
Encoding: 108 108 78
Width: 640
GlyphClass: 2
Flags: W
HStem: -20 150<542.251 626> 1490 20G<486.754 791>
VStem: 221 304<149.122 341.521> 491 300<1210 1510>
DStem2: 166.083 -20 466.233 -20 0.207912 0.978148<323.716 1564.12>
LayerCount: 2
Fore
SplineSet
626 -20 m 1,0,1
 221 -20 221 -20 221 209 c 0,2,3
 221 240 221 240 229 276 c 2,4,-1
 491 1510 l 1,5,-1
 791 1510 l 1,6,-1
 530 280 l 2,7,8
 525 255 525 255 525 234 c 0,9,10
 525 130 525 130 658 130 c 1,11,-1
 626 -20 l 1,0,1
EndSplineSet
Validated: 1
EndChar

StartChar: m
Encoding: 109 109 79
Width: 2144
GlyphClass: 2
Flags: W
HStem: 0 21G<170 474.238 922 1226.24 1674 1978.26> 950 170<878.099 1187.5 1620.55 1916.5> 1080 20G<399.745 704>
VStem: 170 300<0 300> 922 300<0 300> 1674 300<0 300> 1844 300<688.584 898.308>
DStem2: 170 0 470 0 0.207912 0.978148<62.3735 841.111 1004 1124.61> 922 0 1222 0 0.207912 0.978148<62.3735 840.645> 1674 0 1974 0 0.207912 0.978148<62.3735 853.867>
LayerCount: 2
Fore
SplineSet
170 0 m 1,0,-1
 404 1100 l 1,1,-1
 704 1100 l 1,2,-1
 666 921 l 1,3,4
 850 1120 850 1120 1097 1120 c 0,5,6
 1278 1120 1278 1120 1338 1009 c 0,7,8
 1364 961 1364 961 1371 896 c 1,9,10
 1587 1120 1587 1120 1829 1120 c 0,11,12
 2004 1120 2004 1120 2086 1016 c 0,13,14
 2144 942 2144 942 2144 841 c 0,15,16
 2144 799 2144 799 2134 752 c 2,17,-1
 1974 0 l 1,18,-1
 1674 0 l 1,19,-1
 1833 747 l 2,20,21
 1844 800 1844 800 1844 838 c 0,22,23
 1844 877 1844 877 1832 899 c 0,24,25
 1805 950 1805 950 1735 950 c 0,26,27
 1636 950 1636 950 1522 854 c 0,28,29
 1377 732 1377 732 1336 538 c 2,30,-1
 1222 0 l 1,31,-1
 922 0 l 1,32,-1
 1081 747 l 2,33,34
 1092 797 1092 797 1092 834 c 0,35,36
 1092 875 1092 875 1079 900 c 0,37,38
 1053 950 1053 950 983 950 c 0,39,40
 884 950 884 950 770 854 c 0,41,42
 625 732 625 732 584 538 c 2,43,-1
 470 0 l 1,44,-1
 170 0 l 1,0,-1
EndSplineSet
Validated: 1
EndChar

StartChar: n
Encoding: 110 110 80
Width: 1422
GlyphClass: 2
Flags: W
HStem: 0 21G<170 474.238 952 1256.26> 950 170<900.21 1212.5> 1080 20G<399.745 704>
VStem: 170 300<0 300> 952 300<0 300> 1121 302<688.955 929.474>
DStem2: 170 0 470 0 0.207912 0.978148<62.3735 838.898 1004 1124.61> 952 0 1252 0 0.207912 0.978148<62.3735 847.852>
LayerCount: 2
Fore
SplineSet
170 0 m 1,0,-1
 404 1100 l 1,1,-1
 704 1100 l 1,2,-1
 666 921 l 1,3,4
 874 1120 874 1120 1128 1120 c 0,5,6
 1297 1120 1297 1120 1371 1016 c 0,7,8
 1423 944 1423 944 1423 846 c 0,9,10
 1423 802 1423 802 1412 752 c 2,11,-1
 1252 0 l 1,12,-1
 952 0 l 1,13,-1
 1111 747 l 2,14,15
 1121 796 1121 796 1121 832 c 0,16,17
 1121 871 1121 871 1109 895 c 0,18,19
 1079 950 1079 950 1002 950 c 0,20,21
 858 950 858 950 729 815 c 0,22,23
 618 699 618 699 584 538 c 2,24,-1
 470 0 l 1,25,-1
 170 0 l 1,0,-1
EndSplineSet
Validated: 1
EndChar

StartChar: o
Encoding: 111 111 81
Width: 1404
GlyphClass: 2
Flags: W
HStem: -20 150<544.687 838.85> 970 150<799.15 1093.31>
VStem: 164 315<197.672 585.187> 1159 315<514.813 902.328>
LayerCount: 2
Fore
SplineSet
673 130 m 0,0,1
 816 130 816 130 941 248 c 0,2,3
 1097 396 1097 396 1145 624 c 0,4,5
 1159 690 1159 690 1159 744 c 0,6,7
 1159 820 1159 820 1132 874 c 0,8,9
 1084 970 1084 970 965 970 c 0,10,11
 822 970 822 970 697 852 c 0,12,13
 541 704 541 704 493 476 c 0,14,15
 479 410 479 410 479 356 c 0,16,17
 479 280 479 280 506 226 c 0,18,19
 554 130 554 130 673 130 c 0,0,1
623 -20 m 0,20,21
 360 -20 360 -20 237 145 c 0,22,23
 164 244 164 244 164 383 c 0,24,25
 164 429 164 429 172 480 c 0,26,27
 214 747 214 747 466 939 c 0,28,29
 704 1120 704 1120 1015 1120 c 0,30,31
 1278 1120 1278 1120 1401 955 c 0,32,33
 1474 856 1474 856 1474 717 c 0,34,35
 1474 671 1474 671 1466 620 c 0,36,37
 1424 353 1424 353 1172 161 c 0,38,39
 934 -20 934 -20 623 -20 c 0,20,21
EndSplineSet
Validated: 1
EndChar

StartChar: p
Encoding: 112 112 82
Width: 1452
GlyphClass: 2
Flags: W
HStem: -410 21G<83 387.248> -20 137<591.181 869.482> 962 158<868.809 1141.63> 1080 20G<399.748 704>
VStem: 83 300<-410 -110> 1203 322<500.491 898.55>
DStem2: 83 -410 383 -410 0.207912 0.978148<62.3735 1257.2 1423.13 1543.74>
LayerCount: 2
Fore
SplineSet
737 -20 m 0,0,1
 631 -20 631 -20 580 35 c 0,2,3
 548 69 548 69 531 129 c 1,4,-1
 539 136 l 1,5,6
 610 117 610 117 685 117 c 0,7,8
 855 117 855 117 994 248 c 0,9,10
 1143 389 1143 389 1187 595 c 0,11,12
 1203 671 1203 671 1203 732 c 0,13,14
 1203 811 1203 811 1177 867 c 0,15,16
 1134 962 1134 962 1014 962 c 0,17,18
 903 962 903 962 798 880 c 0,19,20
 629 747 629 747 585 541 c 2,21,-1
 383 -410 l 1,22,-1
 83 -410 l 1,23,-1
 404 1100 l 1,24,-1
 704 1100 l 1,25,-1
 666 921 l 1,26,27
 840 1120 840 1120 1082 1120 c 128,-1,28
 1324 1120 1324 1120 1448 957 c 0,29,30
 1525 856 1525 856 1525 725 c 0,31,32
 1525 682 1525 682 1519 643 c 0,33,34
 1476 361 1476 361 1219 161 c 0,35,36
 985 -20 985 -20 737 -20 c 0,0,1
EndSplineSet
Validated: 1
EndChar

StartChar: q
Encoding: 113 113 83
Width: 1385
GlyphClass: 2
Flags: W
HStem: -410 21G<828 1132.25> -20 137<566.549 785.555> 47 99<738.787 872.168> 970 150<796.573 1053.38>
VStem: 161 323<203.714 595.708> 828 300<-410 -110> 1081 297<580.82 944.846>
DStem2: 828 -410 1128 -410 0.207912 0.978148<62.3735 1264.92>
LayerCount: 2
Fore
SplineSet
603 -20 m 0,0,1
 364 -20 364 -20 237 145 c 0,2,3
 161 243 161 243 161 376 c 0,4,5
 161 426 161 426 172 480 c 0,6,7
 225 755 225 755 466 939 c 0,8,9
 704 1120 704 1120 1005 1120 c 0,10,11
 1220 1120 1220 1120 1313 1010 c 0,12,13
 1378 934 1378 934 1378 817 c 0,14,15
 1378 766 1378 766 1365 705 c 2,16,-1
 1128 -410 l 1,17,-1
 828 -410 l 1,18,-1
 1064 700 l 2,19,20
 1081 780 1081 780 1081 831 c 0,21,22
 1081 873 1081 873 1070 900 c 0,23,24
 1042 970 1042 970 955 970 c 0,25,26
 823 970 823 970 697 852 c 0,27,28
 542 705 542 705 501 514 c 0,29,30
 484 435 484 435 484 371 c 0,31,32
 484 281 484 281 518 220 c 0,33,34
 575 117 575 117 713 117 c 0,35,36
 815 117 815 117 906 146 c 1,37,-1
 912 139 l 1,38,39
 875 87 875 87 821 47 c 0,40,41
 732 -20 732 -20 603 -20 c 0,0,1
EndSplineSet
Validated: 1
EndChar

StartChar: r
Encoding: 114 114 84
Width: 1231
GlyphClass: 2
Flags: W
HStem: 0 21G<170 474.238> 950 170<900.21 1211.5> 1080 20G<399.745 704>
VStem: 170 300<0 300>
DStem2: 170 0 470 0 0.207912 0.978148<62.3735 838.898 1004 1124.61>
LayerCount: 2
Fore
SplineSet
170 0 m 1,0,-1
 404 1100 l 1,1,-1
 704 1100 l 1,2,-1
 666 921 l 1,3,4
 874 1120 874 1120 1128 1120 c 0,5,6
 1295 1120 1295 1120 1371 1016 c 0,7,8
 1406 968 1406 968 1418 903 c 1,9,-1
 1111 747 l 1,10,11
 1121 795 1121 795 1121 831 c 0,12,13
 1121 870 1121 870 1109 895 c 0,14,15
 1082 950 1082 950 1002 950 c 0,16,17
 858 950 858 950 729 815 c 0,18,19
 618 699 618 699 584 538 c 2,20,-1
 470 0 l 1,21,-1
 170 0 l 1,0,-1
EndSplineSet
Validated: 1
EndChar

StartChar: s
Encoding: 115 115 85
Width: 1086
GlyphClass: 2
Flags: W
HStem: -20 152<408.454 698.164> 968 152<699.854 921.253>
VStem: 376 286<698 923.24> 799 300<249.258 427.586>
LayerCount: 2
Fore
SplineSet
523 -20 m 0,0,1
 243 -20 243 -20 108 180 c 1,2,-1
 348 293 l 1,3,4
 379 132 379 132 544 132 c 0,5,6
 656 132 656 132 729 199 c 0,7,8
 783 248 783 248 795 311 c 0,9,10
 799 332 799 332 799 351 c 0,11,12
 799 407 799 407 734 440 c 2,13,-1
 517 549 l 2,14,15
 376 620 376 620 376 776 c 0,16,17
 376 791 376 791 378 806 c 0,18,19
 392 944 392 944 544 1038 c 0,20,21
 677 1120 677 1120 848 1120 c 0,22,23
 1071 1120 1071 1120 1150 987 c 1,24,-1
 952 866 l 1,25,26
 919 968 919 968 825 968 c 0,27,28
 762 968 762 968 720 940 c 0,29,30
 673 908 673 908 664 866 c 0,31,32
 662 857 662 857 662 849 c 0,33,34
 662 808 662 808 739 769 c 2,35,-1
 951 663 l 2,36,37
 1099 589 1099 589 1099 422 c 0,38,39
 1099 398 1099 398 1095 372 c 0,40,41
 1069 192 1069 192 887 73 c 0,42,43
 745 -20 745 -20 523 -20 c 0,0,1
EndSplineSet
Validated: 1
EndChar

StartChar: t
Encoding: 116 116 86
Width: 780
GlyphClass: 2
Flags: W
HStem: -20 150<542.251 626> 950 150<264 372 704 972> 1490 20G<486.756 791>
VStem: 221 304<149.122 339.99> 491 300<1210 1510>
DStem2: 166.083 -20 466.233 -20 0.207912 0.978148<323.716 991.616 1207.36 1564.12>
LayerCount: 2
Fore
SplineSet
626 -20 m 1,0,1
 221 -20 221 -20 221 209 c 0,2,3
 221 240 221 240 229 276 c 2,4,-1
 372 950 l 1,5,-1
 232 950 l 1,6,-1
 264 1100 l 1,7,-1
 404 1100 l 1,8,-1
 491 1510 l 1,9,-1
 791 1510 l 1,10,-1
 704 1100 l 1,11,-1
 1004 1100 l 1,12,-1
 972 950 l 1,13,-1
 672 950 l 1,14,-1
 530 280 l 2,15,16
 525 255 525 255 525 234 c 0,17,18
 525 130 525 130 658 130 c 1,19,-1
 626 -20 l 1,0,1
EndSplineSet
Validated: 1
EndChar

StartChar: u
Encoding: 117 117 87
Width: 1422
GlyphClass: 2
Flags: W
HStem: -20 170<443.5 755.79> 0 21G<952 1256.25> 1080 20G<399.745 704 1181.76 1486>
VStem: 233 302<170.526 411.045> 404 300<800 1100> 1186 300<800 1100>
DStem2: 165.779 -20 465.716 -20 0.207912 0.978148<359.576 1145.05> 947.749 -20 1247.75 -20 0.207912 0.978148<82.8203 203.436 368.536 1145.06>
LayerCount: 2
Fore
SplineSet
1252 0 m 1,0,-1
 952 0 l 1,1,-1
 990 179 l 1,2,3
 782 -20 782 -20 528 -20 c 0,4,5
 359 -20 359 -20 285 84 c 0,6,7
 233 156 233 156 233 254 c 0,8,9
 233 298 233 298 244 348 c 2,10,-1
 404 1100 l 1,11,-1
 704 1100 l 1,12,-1
 545 353 l 2,13,14
 535 304 535 304 535 268 c 0,15,16
 535 229 535 229 547 205 c 0,17,18
 577 150 577 150 654 150 c 0,19,20
 798 150 798 150 927 285 c 0,21,22
 1038 401 1038 401 1072 562 c 2,23,-1
 1186 1100 l 1,24,-1
 1486 1100 l 1,25,-1
 1252 0 l 1,0,-1
EndSplineSet
Validated: 1
EndChar

StartChar: v
Encoding: 118 118 88
Width: 1348
GlyphClass: 2
Flags: W
HStem: 0 21G<517.836 837.691> 1080 20G<239 555.191 1377.29 1577>
VStem: 239 311<789 1100> 1391 186<914 1100>
DStem2: 550 1100 239 1100 0.249985 -0.96825<0 919.489> 781 210 824 0 0.564872 0.825178<0 1078.98>
LayerCount: 2
Fore
SplineSet
523 0 m 1,0,-1
 239 1100 l 1,1,-1
 550 1100 l 1,2,-1
 781 210 l 1,3,-1
 1391 1100 l 1,4,-1
 1577 1100 l 1,5,-1
 824 0 l 1,6,-1
 523 0 l 1,0,-1
EndSplineSet
Validated: 1
EndChar

StartChar: w
Encoding: 119 119 89
Width: 2052
GlyphClass: 2
Flags: W
HStem: -20 170<462.5 757.447 1201 1556.38> 1080 20G<399.745 704 1151.72 1456 1625 2024.5>
VStem: 234 300<201.723 411.416> 404 300<800 1100> 1156 300<800 1100> 1843 286<520.876 902.842>
DStem2: 165.779 -20 465.716 -20 0.207912 0.978148<354.539 1145.05> 917.292 -20 1217.72 -20 0.207912 0.978148<370.512 1145.16>
LayerCount: 2
Fore
SplineSet
549 -20 m 0,0,1
 376 -20 376 -20 292 84 c 0,2,3
 234 156 234 156 234 258 c 0,4,5
 234 300 234 300 244 348 c 2,6,-1
 404 1100 l 1,7,-1
 704 1100 l 1,8,-1
 545 353 l 2,9,10
 534 301 534 301 534 263 c 0,11,12
 534 224 534 224 546 201 c 0,13,14
 573 150 573 150 643 150 c 0,15,16
 742 150 742 150 856 246 c 0,17,18
 999 366 999 366 1041 562 c 2,19,-1
 1156 1100 l 1,20,-1
 1456 1100 l 1,21,-1
 1297 353 l 2,22,23
 1286 302 1286 302 1286 264 c 0,24,25
 1286 223 1286 223 1299 200 c 0,26,27
 1325 150 1325 150 1400 150 c 0,28,29
 1538 150 1538 150 1666 282 c 0,30,31
 1792 413 1792 413 1829 586 c 0,32,33
 1843 653 1843 653 1843 712 c 0,34,35
 1843 794 1843 794 1816 864 c 0,36,37
 1760 1004 1760 1004 1625 1100 c 1,38,-1
 1979 1100 l 1,39,40
 2070 1012 2070 1012 2108 892 c 0,41,42
 2128 828 2128 828 2129 753 c 0,43,44
 2129 690 2129 690 2114 619 c 0,45,46
 2059 360 2059 360 1815.5 170 c 128,-1,47
 1572 -20 1572 -20 1299 -20 c 0,48,49
 1103 -20 1103 -20 1040 91 c 0,50,51
 1014 137 1014 137 1007 204 c 1,52,53
 791 -20 791 -20 549 -20 c 0,0,1
EndSplineSet
Validated: 1
EndChar

StartChar: x
Encoding: 120 120 90
Width: 1190
GlyphClass: 2
Flags: W
HStem: 0 21G<5 255.895 855.579 1185> 1080 20G<239 569.398 1168.05 1419>
VStem: 5 229<0 229> 1190 229<871 1100>
DStem2: 5 0 234 0 0.732904 0.680332<167.835 731.249 1054.12 1616.86> 558 1100 239 1100 0.495799 -0.868437<0 436.23 670.888 1108.48>
LayerCount: 2
Fore
SplineSet
5 0 m 1,0,-1
 572 517 l 1,1,-1
 239 1100 l 1,2,-1
 558 1100 l 1,3,-1
 774 721 l 1,4,-1
 1190 1100 l 1,5,-1
 1419 1100 l 1,6,-1
 853 583 l 1,7,-1
 1185 0 l 1,8,-1
 867 0 l 1,9,-1
 650 380 l 1,10,-1
 234 0 l 1,11,-1
 5 0 l 1,0,-1
EndSplineSet
Validated: 1
EndChar

StartChar: y
Encoding: 121 121 91
Width: 1422
GlyphClass: 2
Flags: W
HStem: -430 150<380.844 684.139> -20 170<443.5 754.794> 1080 20G<399.745 704 1181.72 1486>
VStem: 233 301<170.424 411.045> 404 300<800 1100> 1186 300<800 1100>
DStem2: 78.631 -430 378.568 -430 0.207912 0.978148<778.528 1564.21> 860.144 -430 1160.85 -430 0.207912 0.978148<786.85 1564.32>
LayerCount: 2
Fore
SplineSet
528 -20 m 0,0,1
 359 -20 359 -20 285 84 c 0,2,3
 233 155 233 155 233 253 c 0,4,5
 233 298 233 298 244 348 c 2,6,-1
 404 1100 l 1,7,-1
 704 1100 l 1,8,-1
 545 353 l 2,9,10
 534 304 534 304 534 268 c 0,11,12
 534 229 534 229 547 205 c 0,13,14
 577 150 577 150 654 150 c 0,15,16
 798 150 798 150 927 285 c 0,17,18
 1036 399 1036 399 1071 562 c 2,19,-1
 1186 1100 l 1,20,-1
 1486 1100 l 1,21,-1
 1309 267 l 2,22,23
 1246 -30 1246 -30 1045 -214 c 0,24,25
 810 -430 810 -430 476 -430 c 0,26,27
 293 -430 293 -430 161 -355 c 1,28,-1
 334 -174 l 1,29,30
 385 -280 385 -280 503 -280 c 0,31,32
 694 -280 694 -280 844 -105 c 0,33,34
 941 9 941 9 990 180 c 1,35,36
 778 -20 778 -20 528 -20 c 0,0,1
EndSplineSet
Validated: 1
EndChar

StartChar: z
Encoding: 122 122 92
Width: 1230
GlyphClass: 2
Flags: W
HStem: 0 150<544 1100> 950 150<382 991>
LayerCount: 2
Fore
SplineSet
40 0 m 1,0,-1
 73 150 l 1,1,2
 912 566 912 566 991 950 c 1,3,-1
 350 950 l 1,4,-1
 382 1100 l 1,5,-1
 1334 1100 l 1,6,7
 1208 492 1208 492 544 150 c 1,8,-1
 1132 150 l 1,9,-1
 1100 0 l 1,10,-1
 40 0 l 1,0,-1
EndSplineSet
Validated: 1
EndChar

StartChar: braceleft
Encoding: 123 123 93
Width: 898
GlyphClass: 2
Flags: W
HStem: -250 170<684.327 825> 669 171<199 398> 1590 170<1020.97 1216>
VStem: 287 318<-7.2373 264.927>
DStem2: 203.287 -250 518.074 -250 0.207912 0.978148<445.682 939.401 1114.36 1813.02>
LayerCount: 2
Fore
SplineSet
825 -250 m 1,0,1
 287 -250 287 -250 287 91 c 0,2,3
 287 144 287 144 300 205 c 2,4,-1
 398 669 l 1,5,-1
 162 669 l 1,6,-1
 199 840 l 1,7,-1
 435 840 l 1,8,-1
 533 1305 l 2,9,10
 630 1760 630 1760 1252 1760 c 1,11,-1
 1216 1590 l 1,12,13
 909 1590 909 1590 848 1304 c 2,14,-1
 615 206 l 2,15,16
 605 159 605 159 605 119 c 0,17,18
 605 -80 605 -80 861 -80 c 1,19,-1
 825 -250 l 1,0,1
EndSplineSet
Validated: 1
EndChar

StartChar: bar
Encoding: 124 124 94
Width: 740
GlyphClass: 2
Flags: W
VStem: 192 300<-130 170> 569 300<1340 1640>
DStem2: 192 -130 492 -130 0.207912 0.978148<62.3735 1809.7>
LayerCount: 2
Fore
SplineSet
192 -130 m 1,0,-1
 569 1640 l 1,1,-1
 869 1640 l 1,2,-1
 492 -130 l 1,3,-1
 192 -130 l 1,0,-1
EndSplineSet
Validated: 1
EndChar

StartChar: braceright
Encoding: 125 125 95
Width: 898
GlyphClass: 2
Flags: W
HStem: -250 170<3 198.026> 669 171<821 1020> 1590 170<394 534.673>
VStem: 614 318<1163.22 1518.54>
DStem2: 274.074 -250 589.287 -250 0.207912 0.978148<307.251 1004.94 1179.89 1674.59>
LayerCount: 2
Fore
SplineSet
-33 -250 m 1,0,1
 3 -80 l 1,2,3
 310 -80 310 -80 371 206 c 2,4,-1
 604 1304 l 2,5,6
 614 1351 614 1351 614 1391 c 0,7,8
 614 1590 614 1590 358 1590 c 1,9,-1
 394 1760 l 1,10,11
 932 1760 932 1760 932 1419 c 0,12,13
 932 1366 932 1366 919 1305 c 2,14,-1
 821 840 l 1,15,-1
 1057 840 l 1,16,-1
 1020 669 l 1,17,-1
 784 669 l 1,18,-1
 686 205 l 2,19,20
 589 -250 589 -250 -33 -250 c 1,0,1
EndSplineSet
Validated: 1
EndChar

StartChar: asciitilde
Encoding: 126 126 96
Width: 1242
GlyphClass: 2
Flags: W
HStem: 546 195<896.69 1095.08> 747 195<463.259 660.208>
DStem2: 777 879 649 712 0.787376 -0.616473<-87.6109 257.97>
LayerCount: 2
Fore
SplineSet
1194 908 m 1,0,-1
 1304 857 l 1,1,2
 1155 546 1155 546 946 546 c 0,3,4
 859 546 859 546 777 611 c 2,5,-1
 649 712 l 2,6,7
 605 747 605 747 561 747 c 0,8,9
 457 747 457 747 364 580 c 1,10,-1
 254 631 l 1,11,12
 403 942 403 942 612 942 c 0,13,14
 697 942 697 942 777 879 c 2,15,-1
 906 778 l 2,16,17
 953 741 953 741 998 741 c 0,18,19
 1108 741 1108 741 1194 908 c 1,0,-1
EndSplineSet
Validated: 1
EndChar

StartChar: exclamdown
Encoding: 161 161 98
Width: 792
GlyphClass: 2
Flags: W
HStem: -410 21G<128 492.981> 750 370<505.695 684.234>
VStem: 128 653
LayerCount: 2
Fore
SplineSet
634 1120 m 128,-1,1
 710 1120 710 1120 752 1066 c 0,2,3
 781 1028 781 1028 781 976 c 0,4,5
 781 956 781 956 777 935 c 0,6,7
 761 858 761 858 696.5 804 c 128,-1,8
 632 750 632 750 556 750 c 0,9,10
 478 750 478 750 438 804 c 0,11,12
 409 843 409 843 409 894 c 0,13,14
 409 914 409 914 413 935 c 0,15,16
 429 1012 429 1012 493.5 1066 c 128,-1,0
 558 1120 558 1120 634 1120 c 128,-1,1
490 -410 m 1,17,-1
 128 -410 l 1,18,-1
 420 650 l 1,19,-1
 648 650 l 1,20,-1
 490 -410 l 1,17,-1
EndSplineSet
Validated: 1
EndChar

StartChar: cent
Encoding: 162 162 99
Width: 1268
GlyphClass: 2
Flags: W
HStem: -20 150<545.761 637> 968 152<1030 1090>
VStem: 164 315<198.871 585>
DStem2: 616 -120 766 -120 0.207912 0.978148<31.1868 102.181 323.62 1090.88 1298.98 1369.97>
LayerCount: 2
Fore
SplineSet
637 -20 m 1,0,1
 358 -20 358 -20 237 145 c 0,2,3
 164 244 164 244 164 383 c 0,4,5
 164 429 164 429 172 480 c 0,6,7
 214 747 214 747 466 939 c 0,8,9
 650 1079 650 1079 878 1111 c 1,10,-1
 901 1220 l 1,11,-1
 1051 1220 l 1,12,-1
 1030 1120 l 1,13,14
 1277 1115 1277 1115 1412 939 c 1,15,-1
 1151 822 l 1,16,17
 1111 952 1111 952 997 968 c 1,18,-1
 827 166 l 1,19,20
 886 195 886 195 941 248 c 0,21,22
 1021 324 1021 324 1073 422 c 1,23,-1
 1284 261 l 1,24,25
 1235 209 1235 209 1172 161 c 0,26,27
 997 28 997 28 790 -7 c 1,28,-1
 766 -120 l 1,29,-1
 616 -120 l 1,30,-1
 637 -20 l 1,0,1
669 130 m 1,31,-1
 843 947 l 1,32,33
 767 918 767 918 697 852 c 0,34,35
 541 704 541 704 493 476 c 0,36,37
 479 410 479 410 479 356 c 0,38,39
 479 280 479 280 506 226 c 0,40,41
 553 132 553 132 669 130 c 1,31,-1
EndSplineSet
Validated: 1
EndChar

StartChar: sterling
Encoding: 163 163 100
Width: 1256
GlyphClass: 2
Flags: W
HStem: 0 170<106 206 506 1118> 680 150<246 315 646 1087> 1380 150<967.568 1276.9>
DStem2: 169.865 0 469.865 0 0.207912 0.978148<236.171 695.316 910.856 1144.79>
LayerCount: 2
Fore
SplineSet
70 0 m 1,0,-1
 106 170 l 1,1,-1
 206 170 l 1,2,-1
 315 680 l 1,3,-1
 215 680 l 1,4,-1
 246 830 l 1,5,-1
 346 830 l 1,6,7
 411 1147 411 1147 651 1352 c 0,8,9
 859 1530 859 1530 1166 1530 c 0,10,11
 1363 1530 1363 1530 1495 1455 c 1,12,-1
 1322 1274 l 1,13,14
 1271 1380 1271 1380 1152 1380 c 0,15,16
 955 1380 955 1380 812 1205 c 0,17,18
 697 1067 697 1067 646 830 c 1,19,-1
 1118 830 l 1,20,-1
 1087 680 l 1,21,-1
 615 680 l 1,22,-1
 506 170 l 1,23,-1
 1154 170 l 1,24,-1
 1118 0 l 1,25,-1
 70 0 l 1,0,-1
EndSplineSet
Validated: 1
EndChar

StartChar: currency
Encoding: 164 164 101
Width: 1526
GlyphClass: 2
Flags: W
HStem: 185 150<650.01 946.299> 1175 150<901.576 1197.77>
VStem: 269 315<403.523 787.081> 1264 315<722.895 1106.97>
DStem2: 175 260 292 112 0.77151 0.636217<0 200.117 1586.07 1784.81> 565 1398 386 1250 0.618614 -0.785695<5.55096 209.03 1246.21 1448.4>
LayerCount: 2
Fore
SplineSet
778 335 m 0,0,1
 921 335 921 335 1046 453 c 0,2,3
 1202 601 1202 601 1250 829 c 0,4,5
 1264 895 1264 895 1264 949 c 0,6,7
 1264 1025 1264 1025 1237 1079 c 0,8,9
 1189 1175 1189 1175 1070 1175 c 0,10,11
 927 1175 927 1175 802 1057 c 0,12,13
 646 909 646 909 598 681 c 0,14,15
 584 615 584 615 584 561 c 0,16,17
 584 485 584 485 611 431 c 0,18,19
 659 335 659 335 778 335 c 0,0,1
565 1398 m 1,20,-1
 701 1227 l 1,21,22
 891 1325 891 1325 1120 1325 c 0,23,24
 1282 1325 1282 1325 1391 1262 c 1,25,-1
 1555 1398 l 1,26,-1
 1672 1250 l 1,27,-1
 1526 1130 l 1,28,29
 1579 1041 1579 1041 1579 922 c 0,30,31
 1579 876 1579 876 1571 825 c 0,32,33
 1534 592 1534 592 1338 416 c 1,34,-1
 1461 260 l 1,35,-1
 1282 112 l 1,36,-1
 1146 283 l 1,37,38
 957 185 957 185 728 185 c 0,39,40
 565 185 565 185 456 248 c 1,41,-1
 292 112 l 1,42,-1
 175 260 l 1,43,-1
 322 381 l 1,44,45
 269 470 269 470 269 588 c 0,46,47
 269 634 269 634 277 685 c 0,48,49
 314 918 314 918 510 1093 c 1,50,-1
 386 1250 l 1,51,-1
 565 1398 l 1,20,-1
EndSplineSet
Validated: 1
EndChar

StartChar: yen
Encoding: 165 165 102
Width: 1524
GlyphClass: 2
Flags: W
HStem: 0 21G<588 912.234> 274 150<355 646 999 1315> 548 150<415 588 1211 1375> 1490 20G<326 661.453 1608.46 1840>
VStem: 326 329<1181 1510> 1624 216<1294 1510>
DStem2: 655 1510 326 1510 0.30754 -0.951535<0 752.041> 993 698 1211 698 0.612276 0.790644<133.476 1028.35>
LayerCount: 2
Fore
SplineSet
588 0 m 1,0,-1
 646 274 l 1,1,-1
 323 274 l 1,2,-1
 355 424 l 1,3,-1
 677 424 l 1,4,-1
 636 548 l 1,5,-1
 383 548 l 1,6,-1
 415 698 l 1,7,-1
 588 698 l 1,8,-1
 326 1510 l 1,9,-1
 655 1510 l 1,10,-1
 917 698 l 1,11,-1
 993 698 l 1,12,-1
 1624 1510 l 1,13,-1
 1840 1510 l 1,14,-1
 1211 698 l 1,15,-1
 1407 698 l 1,16,-1
 1375 548 l 1,17,-1
 1094 548 l 1,18,-1
 999 424 l 1,19,-1
 1347 424 l 1,20,-1
 1315 274 l 1,21,-1
 966 274 l 1,22,-1
 908 0 l 1,23,-1
 588 0 l 1,0,-1
EndSplineSet
Validated: 1
EndChar

StartChar: brokenbar
Encoding: 166 166 103
Width: 740
GlyphClass: 2
Flags: W
VStem: 192 300<-130 170> 358 300<347 647> 403 300<862 1162> 569 300<1340 1640>
DStem2: 192 -130 492 -130 0.207912 0.978148<62.3735 794.534 1076.57 1809.7>
LayerCount: 2
Fore
SplineSet
492 -130 m 1,0,-1
 192 -130 l 1,1,-1
 358 647 l 1,2,-1
 658 647 l 1,3,-1
 492 -130 l 1,0,-1
569 1640 m 1,4,-1
 869 1640 l 1,5,-1
 703 862 l 1,6,-1
 403 862 l 1,7,-1
 569 1640 l 1,4,-1
EndSplineSet
Validated: 1
EndChar

StartChar: section
Encoding: 167 167 104
Width: 1100
GlyphClass: 2
Flags: W
HStem: -20 152<447.747 669.333> 1378 152<750.667 972.253>
VStem: 270 300<659.168 849.381> 427 286<1113.52 1330.85> 707 286<179.146 396.478> 850 300<660.619 850.832>
LayerCount: 2
Fore
SplineSet
521 -20 m 0,0,1
 298 -20 298 -20 219 113 c 1,2,-1
 417 234 l 1,3,4
 450 132 450 132 544 132 c 0,5,6
 607 132 607 132 649 160 c 0,7,8
 697 193 697 193 705 234 c 0,9,10
 707 243 707 243 707 251 c 0,11,12
 707 306 707 306 638 341 c 2,13,-1
 426 447 l 2,14,15
 270 525 270 525 270 678 c 0,16,17
 270 702 270 702 274 728 c 0,18,19
 296 871 296 871 412 974 c 1,20,-1
 610 869 l 1,21,22
 582 832 582 832 574 789 c 0,23,24
 570 768 570 768 570 749 c 0,25,26
 570 679 570 679 628 650 c 2,27,-1
 845 541 l 2,28,29
 993 467 993 467 993 324 c 0,30,31
 993 309 993 309 991 294 c 0,32,33
 972 153 972 153 825 62 c 0,34,35
 692 -20 692 -20 521 -20 c 0,0,1
899 1530 m 0,36,37
 1122 1530 1122 1530 1201 1397 c 1,38,-1
 1003 1276 l 1,39,40
 970 1378 970 1378 876 1378 c 0,41,42
 813 1378 813 1378 771 1350 c 0,43,44
 723 1317 723 1317 715 1276 c 0,45,46
 713 1267 713 1267 713 1259 c 0,47,48
 713 1204 713 1204 782 1169 c 2,49,-1
 994 1063 l 2,50,51
 1150 985 1150 985 1150 832 c 0,52,53
 1150 808 1150 808 1146 782 c 0,54,55
 1124 639 1124 639 1008 536 c 1,56,-1
 810 641 l 1,57,58
 838 678 838 678 846 721 c 0,59,60
 850 742 850 742 850 761 c 0,61,62
 850 831 850 831 792 860 c 2,63,-1
 575 969 l 2,64,65
 427 1043 427 1043 427 1186 c 0,66,67
 427 1201 427 1201 429 1216 c 0,68,69
 448 1357 448 1357 595 1448 c 0,70,71
 728 1530 728 1530 899 1530 c 0,36,37
EndSplineSet
Validated: 1
EndChar

StartChar: dieresis
Encoding: 168 168 105
Width: 654
GlyphClass: 2
Flags: W
HStem: 1190 282<359.1 523.967 694.75 858.5>
VStem: 299 285<1249.1 1411.9> 633 287<1250.63 1410.79>
LayerCount: 2
Fore
SplineSet
807 1472 m 128,-1,1
 865 1472 865 1472 897 1431 c 0,2,3
 920 1402 920 1402 920 1363 c 0,4,5
 920 1345 920 1345 917 1331 c 0,6,7
 905 1272 905 1272 855 1231 c 128,-1,8
 805 1190 805 1190 747 1190 c 0,9,10
 688 1190 688 1190 656 1231 c 0,11,12
 633 1261 633 1261 633 1300 c 0,13,14
 633 1319 633 1319 636 1331 c 0,15,16
 648 1390 648 1390 698.5 1431 c 128,-1,0
 749 1472 749 1472 807 1472 c 128,-1,1
472 1472 m 128,-1,18
 531 1472 531 1472 562 1431 c 0,19,20
 584 1402 584 1402 584 1363 c 0,21,22
 584 1348 584 1348 580 1330 c 0,23,24
 568 1271 568 1271 519.5 1230.5 c 128,-1,25
 471 1190 471 1190 412 1190 c 0,26,27
 354 1190 354 1190 322 1231 c 0,28,29
 299 1260 299 1260 299 1299 c 0,30,31
 299 1318 299 1318 302 1331 c 0,32,33
 314 1390 314 1390 363.5 1431 c 128,-1,17
 413 1472 413 1472 472 1472 c 128,-1,18
EndSplineSet
Validated: 1
EndChar

StartChar: copyright
Encoding: 169 169 106
Width: 1341
GlyphClass: 2
Flags: W
HStem: 386 55<608.94 928.125> 567 94<677.966 930.173> 1254 94<838.051 1085.64> 1475 55<820.625 1146.4>
VStem: 308 61<667.677 1011.09> 430 207<700.152 1022.57> 1377 62<894.009 1241.74>
LayerCount: 2
Fore
SplineSet
1010 1348 m 0,0,1
 1221 1348 1221 1348 1294 1222 c 1,2,-1
 1124 1147 l 1,3,4
 1086 1254 1086 1254 973 1254 c 0,5,6
 882 1254 882 1254 801 1182 c 0,7,8
 678 1072 678 1072 647 917 c 0,9,10
 637 867 637 867 637 827 c 0,11,12
 637 770 637 770 657 732 c 0,13,14
 695 661 695 661 794 661 c 0,15,16
 886 661 886 661 967 733 c 0,17,18
 1031 790 1031 790 1070 860 c 1,19,-1
 1209 751 l 1,20,21
 1167 708 1167 708 1112 671 c 0,22,23
 957 567 957 567 758 567 c 0,24,25
 552 567 552 567 469 701 c 0,26,27
 430 764 430 764 430 849 c 0,28,29
 430 876 430 876 434 905 c 0,30,31
 462 1115 462 1115 656 1244 c 24,32,33
 812 1348 812 1348 1010 1348 c 0,0,1
996 1530 m 0,34,35
 1238 1530 1238 1530 1357 1357 c 0,36,37
 1439 1238 1439 1238 1439 1087 c 0,38,39
 1439 1023 1439 1023 1424 953 c 0,40,41
 1373 715 1373 715 1177 549 c 0,42,43
 986 386 986 386 751 386 c 0,44,45
 528 386 528 386 398 549 c 0,46,47
 308 662 308 662 308 818 c 0,48,49
 308 882 308 882 323 953 c 0,50,51
 375 1197 375 1197 568 1362 c 0,52,53
 764 1530 764 1530 996 1530 c 0,34,35
983 1475 m 0,54,55
 787 1475 787 1475 610 1330 c 0,56,57
 432 1184 432 1184 383 953 c 0,58,59
 369 885 369 885 369 825 c 0,60,61
 369 685 369 685 446 588 c 0,62,63
 562 441 562 441 765 441 c 0,64,65
 962 441 962 441 1143 591 c 0,66,67
 1317 736 1317 736 1363 953 c 0,68,69
 1377 1018 1377 1018 1377 1078 c 0,70,71
 1377 1218 1377 1218 1301 1327 c 0,72,73
 1199 1475 1199 1475 983 1475 c 0,54,55
EndSplineSet
Validated: 1
EndChar

StartChar: ordfeminine
Encoding: 170 170 107
Width: 652
VWidth: 1299
GlyphClass: 2
Flags: W
HStem: 733 170<212 788> 969 74<495.839 614.207> 1464 86<595.82 731.838>
VStem: 275 200<1074.48 1331.16> 650 190<979 1169> 734 188<1275.24 1425.69>
DStem2: 597.711 733 787.711 733 0.207912 0.978148<290.999 681.888>
LayerCount: 2
Fore
SplineSet
717 1550 m 0,0,1
 839 1550 839 1550 888 1492 c 0,2,3
 922 1451 922 1451 922 1392 c 0,4,5
 922 1367 922 1367 916 1338 c 2,6,-1
 840 979 l 1,7,-1
 650 979 l 1,8,-1
 726 1334 l 2,9,10
 734 1375 734 1375 734 1402 c 0,11,12
 734 1416 734 1416 732 1426 c 0,13,14
 723 1464 723 1464 686 1464 c 0,15,16
 640 1464 640 1464 585 1413 c 0,17,18
 505 1339 505 1339 484 1236 c 0,19,20
 475 1193 475 1193 475 1159 c 0,21,22
 475 1119 475 1119 488 1092 c 0,23,24
 512 1043 512 1043 574 1043 c 0,25,26
 611 1043 611 1043 645 1060 c 1,27,-1
 653 1055 l 1,28,29
 607 969 607 969 513 969 c 0,30,31
 376 969 376 969 316 1046 c 0,32,33
 275 1099 275 1099 275 1172 c 0,34,35
 275 1203 275 1203 283 1238 c 0,36,37
 308 1357 308 1357 429 1451 c 0,38,39
 556 1550 556 1550 717 1550 c 0,0,1
212 903 m 1,40,-1
 824 903 l 1,41,-1
 788 733 l 1,42,-1
 176 733 l 1,43,-1
 212 903 l 1,40,-1
EndSplineSet
Validated: 1
EndChar

StartChar: guillemotleft
Encoding: 171 171 108
Width: 1238
GlyphClass: 2
Flags: W
DStem2: 416 801 259 655 0.677941 -0.735117<0.890308 460.722> 302 855 416 801 0.800951 0.59873<58.9769 623.385> 854 801 697 655 0.677941 -0.735117<0.890308 460.722> 740 855 854 801 0.800951 0.59873<58.9769 623.385>
LayerCount: 2
Fore
SplineSet
740 855 m 1,0,-1
 1346 1308 l 1,1,-1
 1309 1135 l 1,2,-1
 854 801 l 1,3,-1
 1166 462 l 1,4,-1
 1112 205 l 1,5,-1
 697 655 l 1,6,-1
 740 855 l 1,0,-1
302 855 m 1,7,-1
 908 1308 l 1,8,-1
 871 1135 l 1,9,-1
 416 801 l 1,10,-1
 728 462 l 1,11,-1
 674 205 l 1,12,-1
 259 655 l 1,13,-1
 302 855 l 1,7,-1
EndSplineSet
Validated: 1
EndChar

StartChar: logicalnot
Encoding: 172 172 109
Width: 1240
GlyphClass: 2
Flags: W
HStem: 655 200<302 1069>
VStem: 1014 190<397 587>
LayerCount: 2
Fore
SplineSet
302 855 m 1,0,-1
 1302 855 l 1,1,-1
 1204 397 l 1,2,-1
 1014 397 l 1,3,-1
 1069 655 l 1,4,-1
 259 655 l 1,5,-1
 302 855 l 1,0,-1
EndSplineSet
Validated: 1
EndChar

StartChar: uni00AD
Encoding: 173 173 110
Width: 1240
GlyphClass: 2
Flags: W
HStem: 655 200<302 1259>
LayerCount: 2
Fore
SplineSet
302 855 m 1,0,-1
 1302 855 l 1,1,-1
 1259 655 l 1,2,-1
 259 655 l 1,3,-1
 302 855 l 1,0,-1
EndSplineSet
Validated: 1
EndChar

StartChar: registered
Encoding: 174 174 111
Width: 1341
GlyphClass: 2
Flags: W
HStem: 386 55<609.182 927.254> 1250 102<854.709 1031.18> 1475 55<819.086 1146.4>
VStem: 308 61<667.895 1012.79> 1051 215<983.722 1205.06> 1377 62<894.411 1241.74>
DStem2: 392.938 386 593.402 386 0.207912 0.978148<236.946 860.157 919.872 947.714>
LayerCount: 2
Fore
SplineSet
996 1530 m 0,0,1
 1238 1530 1238 1530 1357 1357 c 0,2,3
 1439 1238 1439 1238 1439 1087 c 0,4,5
 1439 1023 1439 1023 1424 953 c 0,6,7
 1373 715 1373 715 1177 549 c 0,8,9
 986 386 986 386 751 386 c 0,10,11
 528 386 528 386 398 549 c 0,12,13
 308 662 308 662 308 818 c 0,14,15
 308 882 308 882 323 953 c 0,16,17
 375 1197 375 1197 568 1362 c 0,18,19
 764 1530 764 1530 996 1530 c 0,0,1
1147 595 m 1,20,21
 1317 739 1317 739 1363 953 c 0,22,23
 1377 1018 1377 1018 1377 1078 c 0,24,25
 1377 1218 1377 1218 1301 1327 c 0,26,27
 1199 1475 1199 1475 983 1475 c 0,28,29
 797 1475 797 1475 628 1344 c 1,30,-1
 797 1344 l 1,31,-1
 776 1245 l 1,32,33
 880 1352 880 1352 1022 1352 c 0,34,35
 1154 1352 1154 1352 1219 1275 c 0,36,37
 1266 1220 1266 1220 1266 1144 c 0,38,39
 1266 1120 1266 1120 1261 1095 c 0,40,41
 1224 881 1224 881 967 782 c 1,42,-1
 1147 595 l 1,20,21
1126 577 m 1,43,-1
 922 577 l 1,44,-1
 708 831 l 1,45,-1
 716 841 l 1,46,47
 758 829 758 829 791 829 c 0,48,49
 871 829 871 829 937 885 c 0,50,51
 1022 959 1022 959 1042 1055 c 0,52,53
 1051 1096 1051 1096 1051 1129 c 0,54,55
 1051 1176 1051 1176 1033 1206 c 0,56,57
 1007 1250 1007 1250 949 1250 c 0,58,59
 876 1250 876 1250 818 1189 c 0,60,61
 748 1115 748 1115 727 1016 c 2,62,-1
 634 577 l 1,63,-1
 455 577 l 1,64,65
 570 441 570 441 765 441 c 0,66,67
 953 441 953 441 1126 577 c 1,43,-1
438 598 m 1,68,-1
 590 1313 l 1,69,70
 429 1171 429 1171 383 953 c 0,71,72
 369 885 369 885 369 825 c 0,73,74
 369 692 369 692 438 598 c 1,68,-1
EndSplineSet
Validated: 1
EndChar

StartChar: macron
Encoding: 175 175 112
Width: 680
GlyphClass: 2
Flags: W
HStem: 1255 170<323 927>
VStem: 287 676
LayerCount: 2
Fore
SplineSet
323 1425 m 1,0,-1
 963 1425 l 1,1,-1
 927 1255 l 1,2,-1
 287 1255 l 1,3,-1
 323 1425 l 1,0,-1
EndSplineSet
Validated: 1
EndChar

StartChar: degree
Encoding: 176 176 113
Width: 785
GlyphClass: 2
Flags: W
HStem: 876 118<501.106 693.137> 1434 116<607.863 799.894>
VStem: 266 217<1045.91 1290.54> 818 217<1138.11 1382.09>
LayerCount: 2
Fore
SplineSet
752 1550 m 0,0,1
 922 1550 922 1550 991 1446 c 0,2,3
 1035 1381 1035 1381 1035 1301 c 0,4,5
 1035 1270 1035 1270 1028 1237 c 0,6,7
 1001 1103 1001 1103 891 1007 c 0,8,9
 741 876 741 876 549 876 c 0,10,11
 379 876 379 876 310 980 c 0,12,13
 266 1045 266 1045 266 1125 c 0,14,15
 266 1156 266 1156 273 1189 c 0,16,17
 300 1323 300 1323 410 1419 c 0,18,19
 560 1550 560 1550 752 1550 c 0,0,1
581 994 m 0,20,21
 654 994 654 994 718 1061 c 0,22,23
 790 1136 790 1136 810 1239 c 0,24,25
 818 1279 818 1279 818 1312 c 0,26,27
 818 1354 818 1354 805 1383 c 0,28,29
 782 1434 782 1434 720 1434 c 0,30,31
 647 1434 647 1434 583 1367 c 0,32,33
 511 1292 511 1292 491 1189 c 0,34,35
 483 1149 483 1149 483 1116 c 0,36,37
 483 1074 483 1074 496 1045 c 0,38,39
 519 994 519 994 581 994 c 0,20,21
EndSplineSet
Validated: 1
EndChar

StartChar: plusminus
Encoding: 177 177 114
Width: 1241
GlyphClass: 2
Flags: W
HStem: 149 200<194 1152> 797 200<333 690 933 1290>
VStem: 605 200<397 597> 818 200<1197 1397>
DStem2: 552.286 149 752.286 149 0.207912 0.978148<295.123 662.472 908.624 1275.97>
LayerCount: 2
Fore
SplineSet
818 1397 m 1,0,-1
 1018 1397 l 1,1,-1
 933 997 l 1,2,-1
 1333 997 l 1,3,-1
 1290 797 l 1,4,-1
 890 797 l 1,5,-1
 805 397 l 1,6,-1
 605 397 l 1,7,-1
 690 797 l 1,8,-1
 290 797 l 1,9,-1
 333 997 l 1,10,-1
 733 997 l 1,11,-1
 818 1397 l 1,0,-1
194 349 m 1,12,-1
 1194 349 l 1,13,-1
 1152 149 l 1,14,-1
 152 149 l 1,15,-1
 194 349 l 1,12,-1
EndSplineSet
Validated: 1
EndChar

StartChar: uni00B2
Encoding: 178 178 115
Width: 677
VWidth: 1406
GlyphClass: 2
Flags: W
HStem: 783 97<431 823> 1463 97<543.752 715.461>
VStem: 728 204<1226.15 1424.22>
LayerCount: 2
Fore
SplineSet
691 1560 m 0,0,1
 831 1560 831 1560 892 1474 c 0,2,3
 932 1418 932 1418 932 1348 c 0,4,5
 932 1330 932 1330 929 1310 c 0,6,7
 915 1202 915 1202 805 1111 c 0,8,9
 658 989 658 989 431 880 c 1,10,-1
 844 880 l 1,11,-1
 823 783 l 1,12,-1
 186 783 l 1,13,-1
 206 876 l 1,14,15
 458 1004 458 1004 622 1152 c 0,16,17
 703 1225 703 1225 723 1324 c 0,18,19
 728 1347 728 1347 728 1367 c 0,20,21
 728 1400 728 1400 715 1425 c 0,22,23
 695 1463 695 1463 641 1463 c 0,24,25
 541 1463 541 1463 447 1285 c 1,26,-1
 316 1361 l 1,27,28
 339 1393 339 1393 375 1429 c 0,29,30
 507 1560 507 1560 691 1560 c 0,0,1
EndSplineSet
Validated: 1
EndChar

StartChar: uni00B3
Encoding: 179 179 116
Width: 717
VWidth: 1401
GlyphClass: 2
Flags: W
HStem: 771 95<415.133 618.654> 1217 99<575 682.051> 1463 92<603.912 791.5>
VStem: 718 213<972.655 1194.62 1338.8 1462.75>
LayerCount: 2
Fore
SplineSet
746 1555 m 0,0,1
 837 1555 837 1555 882 1508 c 0,2,3
 917 1473 917 1473 917 1423 c 0,4,5
 917 1417 917 1417 916 1410 c 0,6,7
 909 1329 909 1329 812 1287 c 1,8,9
 931 1239 931 1239 931 1118 c 0,10,11
 931 1104 931 1104 929 1090 c 0,12,13
 916 966 916 966 788 870 c 0,14,15
 658 771 658 771 495 771 c 0,16,17
 304 771 304 771 212 901 c 1,18,-1
 383 984 l 1,19,20
 406 866 406 866 515 866 c 0,21,22
 575 866 575 866 635 924 c 0,23,24
 692 979 692 979 711 1069 c 0,25,26
 718 1101 718 1101 718 1126 c 0,27,28
 718 1159 718 1159 706 1180 c 0,29,30
 686 1217 686 1217 634 1217 c 0,31,32
 603 1217 603 1217 551 1206 c 1,33,-1
 575 1316 l 1,34,35
 653 1316 653 1316 683 1338 c 0,36,37
 721 1365 721 1365 730 1409 c 0,38,39
 732 1418 732 1418 732 1426 c 0,40,41
 732 1463 732 1463 688 1463 c 0,42,43
 655 1463 655 1463 628 1442 c 0,44,45
 594 1416 594 1416 572 1371 c 1,46,-1
 471 1439 l 1,47,48
 592 1555 592 1555 746 1555 c 0,0,1
EndSplineSet
Validated: 1
EndChar

StartChar: uni00B5
Encoding: 181 181 117
Width: 1422
GlyphClass: 2
Flags: W
HStem: -410 21G<83 387.264> -20 170<512 755.79> 0 21G<952 1256.25> 1080 20G<399.748 704 1181.72 1486>
VStem: 83 300<-410 -110> 404 300<800 1100> 1186 300<800 1100>
DStem2: 83 -410 383 -410 0.207912 0.978148<62.3735 470.784 768.161 1543.74> 864.852 -410 1164.85 -410 0.207912 0.978148<481.533 602.149 771.259 1543.77>
LayerCount: 2
Fore
SplineSet
1252 0 m 1,0,-1
 952 0 l 1,1,-1
 990 179 l 1,2,3
 782 -20 782 -20 528 -20 c 0,4,5
 496 -20 496 -20 467 -16 c 1,6,-1
 383 -410 l 1,7,-1
 83 -410 l 1,8,-1
 404 1100 l 1,9,-1
 704 1100 l 1,10,-1
 545 353 l 2,11,12
 536 311 536 311 536 278 c 0,13,14
 536 240 536 240 548 213 c 0,15,16
 578 150 578 150 654 150 c 0,17,18
 798 150 798 150 927 285 c 0,19,20
 1037 400 1037 400 1071 562 c 2,21,-1
 1186 1100 l 1,22,-1
 1486 1100 l 1,23,-1
 1252 0 l 1,0,-1
EndSplineSet
Validated: 1
EndChar

StartChar: paragraph
Encoding: 182 182 118
Width: 1175
GlyphClass: 2
Flags: W
HStem: 0 21G<685 794.256 900 1009.25> 1424 86<1093 1203>
VStem: 685 105<0 105> 900 105<0 105>
DStem2: 685 0 790 0 0.207912 0.978148<21.8307 703.321> 900 0 1005 0 0.207912 0.978148<21.8307 1455.88>
LayerCount: 2
Fore
SplineSet
1005 0 m 1,0,-1
 900 0 l 1,1,-1
 1203 1424 l 1,2,-1
 1093 1424 l 1,3,-1
 790 0 l 1,4,-1
 685 0 l 1,5,-1
 831 688 l 1,6,7
 735 654 735 654 642 654 c 0,8,9
 444 654 444 654 364 782 c 0,10,11
 325 845 325 845 325 925 c 0,12,13
 325 965 325 965 335 1010 c 0,14,15
 380 1222 380 1222 559 1374 c 0,16,17
 720 1510 720 1510 934 1510 c 0,18,19
 971 1510 971 1510 1005 1505 c 1,20,-1
 1006 1510 l 1,21,-1
 1326 1510 l 1,22,-1
 1005 0 l 1,0,-1
EndSplineSet
Validated: 1
EndChar

StartChar: periodcentered
Encoding: 183 183 119
Width: 404
GlyphClass: 2
Flags: W
HStem: 570 370<273.695 452.234>
VStem: 177 372<666 844.217>
LayerCount: 2
Fore
SplineSet
402 940 m 128,-1,1
 478 940 478 940 520 886 c 0,2,3
 549 848 549 848 549 796 c 0,4,5
 549 776 549 776 545 755 c 0,6,7
 529 678 529 678 464.5 624 c 128,-1,8
 400 570 400 570 324 570 c 0,9,10
 246 570 246 570 206 624 c 0,11,12
 177 663 177 663 177 714 c 0,13,14
 177 734 177 734 181 755 c 0,15,16
 197 832 197 832 261.5 886 c 128,-1,0
 326 940 326 940 402 940 c 128,-1,1
EndSplineSet
Validated: 1
EndChar

StartChar: cedilla
Encoding: 184 184 120
Width: 406
GlyphClass: 2
Flags: W
HStem: -430 181<-33 121.449> -68 68<72 134.008>
VStem: 58 162<-57.1094 0> 152 192<-219.588 -84.4287>
LayerCount: 2
Fore
SplineSet
72 0 m 1,0,-1
 229 0 l 1,1,-1
 220 -40 l 1,2,3
 344 -80 344 -80 344 -180 c 0,4,5
 344 -196 344 -196 341 -213 c 0,6,7
 303 -430 303 -430 -71 -430 c 1,8,-1
 -33 -249 l 1,9,10
 131 -249 131 -249 150 -161 c 0,11,12
 152 -152 152 -152 152 -144 c 0,13,14
 152 -88 152 -88 58 -68 c 1,15,-1
 72 0 l 1,0,-1
EndSplineSet
Validated: 1
EndChar

StartChar: uni00B9
Encoding: 185 185 121
Width: 396
VWidth: 1401
GlyphClass: 2
Flags: W
HStem: 1455 95<349 435>
VStem: 293 200<785 985>
DStem2: 293 785 493 785 0.207912 0.978148<41.5823 684.882>
LayerCount: 2
Fore
SplineSet
349 1550 m 1,0,-1
 655 1550 l 1,1,-1
 493 785 l 1,2,-1
 293 785 l 1,3,-1
 435 1455 l 1,4,-1
 329 1455 l 1,5,-1
 349 1550 l 1,0,-1
EndSplineSet
Validated: 1
EndChar

StartChar: ordmasculine
Encoding: 186 186 122
Width: 710
VWidth: 1299
GlyphClass: 2
Flags: W
HStem: 733 170<212 846> 971 86<487.319 659.76> 1464 86<591.096 759.891>
VStem: 276 197<1087.82 1331.99> 772 198<1188.56 1437.53>
LayerCount: 2
Fore
SplineSet
212 903 m 1,0,-1
 882 903 l 1,1,-1
 846 733 l 1,2,-1
 176 733 l 1,3,-1
 212 903 l 1,0,-1
687 1464 m 0,4,5
 635 1464 635 1464 580 1413 c 0,6,7
 505 1343 505 1343 481 1230 c 0,8,9
 473 1192 473 1192 473 1163 c 0,10,11
 473 1130 473 1130 483 1107 c 0,12,13
 506 1057 506 1057 565 1057 c 0,14,15
 616 1057 616 1057 672 1109 c 0,16,17
 739 1173 739 1173 764 1296 c 0,18,19
 772 1334 772 1334 772 1364 c 0,20,21
 772 1397 772 1397 762 1420 c 0,22,23
 743 1464 743 1464 687 1464 c 0,4,5
715 1550 m 0,24,25
 860 1550 860 1550 926 1474 c 0,26,27
 970 1423 970 1423 970 1349 c 0,28,29
 970 1319 970 1319 963 1285 c 0,30,31
 937 1161 937 1161 815 1068 c 0,32,33
 687 971 687 971 532 971 c 0,34,35
 384 971 384 971 321 1050 c 0,36,37
 276 1106 276 1106 276 1179 c 0,38,39
 276 1208 276 1208 283 1239 c 0,40,41
 308 1358 308 1358 431 1453 c 0,42,43
 557 1550 557 1550 715 1550 c 0,24,25
EndSplineSet
Validated: 1
EndChar

StartChar: guillemotright
Encoding: 187 187 123
Width: 1238
GlyphClass: 2
Flags: W
DStem2: 251 378 214 205 0.800951 0.59873<0 564.408> 448 1308 394 1051 0.677941 -0.735117<152.316 612.148> 689 378 652 205 0.800951 0.59873<0 564.408> 886 1308 832 1051 0.677941 -0.735117<152.316 612.148>
LayerCount: 2
Fore
SplineSet
820 658 m 1,0,-1
 214 205 l 1,1,-1
 251 378 l 1,2,-1
 706 712 l 1,3,-1
 394 1051 l 1,4,-1
 448 1308 l 1,5,-1
 863 858 l 1,6,-1
 820 658 l 1,0,-1
1258 658 m 1,7,-1
 652 205 l 1,8,-1
 689 378 l 1,9,-1
 1144 712 l 1,10,-1
 832 1051 l 1,11,-1
 886 1308 l 1,12,-1
 1301 858 l 1,13,-1
 1258 658 l 1,7,-1
EndSplineSet
Validated: 1
EndChar

StartChar: onequarter
Encoding: 188 188 124
Width: 1538
GlyphClass: 2
Flags: W
HStem: 0 21G<169 440.417 1168 1372.26> 140 95<975 1198> 1417 95<441 527>
VStem: 169 256<0 256> 385 200<747 947> 1333 256<1254 1510>
DStem2: 169 0 425 0 0.610522 0.792<156.294 1906.57> 226.22 0 426.22 0 0.207912 0.978148<805.271 1448.57> 1168 0 1368 0 0.207912 0.978148<41.5823 143.178 240.26 610.359>
LayerCount: 2
Fore
SplineSet
441 1512 m 1,0,-1
 747 1512 l 1,1,-1
 585 747 l 1,2,-1
 385 747 l 1,3,-1
 527 1417 l 1,4,-1
 421 1417 l 1,5,-1
 441 1512 l 1,0,-1
1368 0 m 1,6,-1
 1168 0 l 1,7,-1
 1198 140 l 1,8,-1
 779 140 l 1,9,10
 1031 505 1031 505 1346 765 c 1,11,-1
 1531 765 l 1,12,-1
 1368 0 l 1,6,-1
1295 597 m 1,13,14
 1119 441 1119 441 975 235 c 1,15,-1
 1218 235 l 1,16,-1
 1295 597 l 1,13,14
169 0 m 1,17,-1
 1333 1510 l 1,18,-1
 1589 1510 l 1,19,-1
 425 0 l 1,20,-1
 169 0 l 1,17,-1
EndSplineSet
Validated: 1
EndChar

StartChar: onehalf
Encoding: 189 189 125
Width: 1660
GlyphClass: 2
Flags: W
HStem: 0 97<1148 1540> 680 97<1260.75 1432.46> 1417 95<441 527>
VStem: 169 256<0 256> 385 200<747 947> 1333 256<1254 1510> 1445 204<443.15 641.217>
DStem2: 169 0 425 0 0.610522 0.792<156.294 1906.57> 226.22 0 426.22 0 0.207912 0.978148<805.271 1448.57>
LayerCount: 2
Fore
SplineSet
1408 777 m 0,0,1
 1548 777 1548 777 1609 691 c 0,2,3
 1649 635 1649 635 1649 565 c 0,4,5
 1649 547 1649 547 1646 527 c 0,6,7
 1632 419 1632 419 1522 328 c 0,8,9
 1375 206 1375 206 1148 97 c 1,10,-1
 1561 97 l 1,11,-1
 1540 0 l 1,12,-1
 903 0 l 1,13,-1
 923 93 l 1,14,15
 1175 221 1175 221 1339 369 c 0,16,17
 1420 442 1420 442 1440 541 c 0,18,19
 1445 564 1445 564 1445 584 c 0,20,21
 1445 617 1445 617 1432 642 c 0,22,23
 1412 680 1412 680 1358 680 c 0,24,25
 1258 680 1258 680 1164 502 c 1,26,-1
 1033 578 l 1,27,28
 1056 610 1056 610 1092 646 c 0,29,30
 1224 777 1224 777 1408 777 c 0,0,1
441 1512 m 1,31,-1
 747 1512 l 1,32,-1
 585 747 l 1,33,-1
 385 747 l 1,34,-1
 527 1417 l 1,35,-1
 421 1417 l 1,36,-1
 441 1512 l 1,31,-1
169 0 m 1,37,-1
 1333 1510 l 1,38,-1
 1589 1510 l 1,39,-1
 425 0 l 1,40,-1
 169 0 l 1,37,-1
EndSplineSet
Validated: 1
EndChar

StartChar: threequarters
Encoding: 190 190 126
Width: 1817
GlyphClass: 2
Flags: W
HStem: 0 21G<448 719.417 1447 1651.26> 140 95<1254 1477> 736 95<507.133 710.654> 1182 99<667 774.051> 1428 92<695.912 876.495>
VStem: 448 256<0 256> 810 213<937.655 1159.62 1303.8 1427.75> 1612 256<1254 1510>
DStem2: 448 0 704 0 0.610522 0.792<156.294 1906.57> 1447 0 1647 0 0.207912 0.978148<41.5823 143.178 240.26 610.359>
LayerCount: 2
Fore
SplineSet
838 1520 m 0,0,1
 929 1520 929 1520 974 1473 c 0,2,3
 1009 1438 1009 1438 1009 1388 c 0,4,5
 1009 1382 1009 1382 1008 1375 c 0,6,7
 1001 1294 1001 1294 904 1252 c 1,8,9
 1023 1204 1023 1204 1023 1083 c 0,10,11
 1023 1069 1023 1069 1021 1055 c 0,12,13
 1008 931 1008 931 880 835 c 0,14,15
 750 736 750 736 587 736 c 0,16,17
 396 736 396 736 304 866 c 1,18,-1
 475 949 l 1,19,20
 498 831 498 831 607 831 c 0,21,22
 667 831 667 831 727 889 c 0,23,24
 784 944 784 944 803 1034 c 0,25,26
 810 1066 810 1066 810 1091 c 0,27,28
 810 1124 810 1124 798 1145 c 0,29,30
 778 1182 778 1182 726 1182 c 0,31,32
 695 1182 695 1182 643 1171 c 1,33,-1
 667 1281 l 1,34,35
 745 1281 745 1281 775 1303 c 0,36,37
 813 1330 813 1330 822 1374 c 0,38,39
 824 1383 824 1383 824 1391 c 0,40,41
 824 1428 824 1428 780 1428 c 0,42,43
 747 1428 747 1428 720 1407 c 0,44,45
 686 1381 686 1381 664 1336 c 1,46,-1
 563 1404 l 1,47,48
 684 1520 684 1520 838 1520 c 0,0,1
1647 0 m 1,49,-1
 1447 0 l 1,50,-1
 1477 140 l 1,51,-1
 1058 140 l 1,52,53
 1310 505 1310 505 1625 765 c 1,54,-1
 1810 765 l 1,55,-1
 1647 0 l 1,49,-1
1574 597 m 1,56,57
 1398 441 1398 441 1254 235 c 1,58,-1
 1497 235 l 1,59,-1
 1574 597 l 1,56,57
448 0 m 1,60,-1
 1612 1510 l 1,61,-1
 1868 1510 l 1,62,-1
 704 0 l 1,63,-1
 448 0 l 1,60,-1
EndSplineSet
Validated: 1
EndChar

StartChar: questiondown
Encoding: 191 191 127
Width: 1408
GlyphClass: 2
Flags: W
HStem: -430 170<540.826 826.873> 750 370<858.766 1037.31>
VStem: 116 347<-180.148 127.039>
LayerCount: 2
Fore
SplineSet
987 1120 m 0,0,1
 1065 1120 1065 1120 1105 1066 c 0,2,3
 1134 1028 1134 1028 1134 976 c 0,4,5
 1134 956 1134 956 1130 935 c 0,6,7
 1114 858 1114 858 1049.5 804 c 128,-1,8
 985 750 985 750 909 750 c 128,-1,9
 833 750 833 750 791 804 c 0,10,11
 762 842 762 842 762 894 c 0,12,13
 762 914 762 914 766 935 c 0,14,15
 782 1012 782 1012 846.5 1066 c 128,-1,16
 911 1120 911 1120 987 1120 c 0,0,1
575 -430 m 0,17,18
 314 -430 314 -430 191 -282 c 0,19,20
 116 -192 116 -192 116 -68 c 0,21,22
 116 -19 116 -19 128 35 c 0,23,24
 173 248 173 248 438 437 c 2,25,-1
 737 650 l 1,26,-1
 999 650 l 1,27,-1
 656 326 l 2,28,29
 503 182 503 182 472 34 c 0,30,31
 463 -6 463 -6 463 -43 c 0,32,33
 463 -119 463 -119 502 -175 c 0,34,35
 560 -260 560 -260 670 -260 c 0,36,37
 785 -260 785 -260 904 -166 c 24,38,39
 1003 -87 1003 -87 1080 69 c 1,40,-1
 1278 -48 l 1,41,42
 1226 -116 1226 -116 1163 -178 c 0,43,44
 909 -430 909 -430 575 -430 c 0,17,18
EndSplineSet
Validated: 1
EndChar

StartChar: AE
Encoding: 198 198 128
Width: 2362
GlyphClass: 2
Flags: W
HStem: 0 1G<5 226.134 1497.5 1738.5> 670 170<766 1163 1520 2067> 1360 170<1765.48 2160.95> 1490 20G<988.795 1326.69>
VStem: 5 208<0 208>
DStem2: 5 0 213 0 0.550996 0.834508<114.607 916.166 1120.29 1656.15> 1368 1314 1060 1288 0.229199 -0.97338<-45.2854 0 249.689 414.396 661.695 1200.53>
LayerCount: 2
Fore
SplineSet
1544 -20 m 0,0,1
 1451 -20 1451 -20 1356 0 c 1,2,-1
 1201 670 l 1,3,-1
 653 670 l 1,4,-1
 213 0 l 1,5,-1
 5 0 l 1,6,-1
 1002 1510 l 1,7,-1
 1322 1510 l 1,8,-1
 1368 1314 l 1,9,10
 1667 1530 1667 1530 2038 1530 c 0,11,12
 2406 1530 2406 1530 2583 1295 c 1,13,-1
 2298 1167 l 1,14,15
 2201 1360 2201 1360 1991 1360 c 0,16,17
 1760 1360 1760 1360 1584 1203 c 0,18,19
 1498 1126 1498 1126 1433 1037 c 1,20,-1
 1480 840 l 1,21,-1
 2104 840 l 1,22,-1
 2067 670 l 1,23,-1
 1520 670 l 1,24,-1
 1642 151 l 1,25,26
 1835 162 1835 162 1998 307 c 0,27,28
 2103 400 2103 400 2175 511 c 1,29,-1
 2385 344 l 1,30,31
 2316 273 2316 273 2231 208 c 0,32,33
 1933 -20 1933 -20 1544 -20 c 0,0,1
1163 840 m 1,34,-1
 1060 1288 l 1,35,-1
 766 840 l 1,36,-1
 1163 840 l 1,34,-1
EndSplineSet
Validated: 1
EndChar

StartChar: Eth
Encoding: 208 208 129
Width: 1796
GlyphClass: 2
Flags: W
HStem: -20 138<674.307 1015.77> 0 21G<170 494.235> 680 150<246 315 666 1005> 1360 170<1067.62 1429.28> 1490 20G<486.735 811>
VStem: 170 320<0 320> 1582 339<739.256 1199.71>
DStem2: 165.749 -20 485.749 -20 0.207912 0.978148<86.9786 715.734 935.434 1204.07 1381.24 1564.19>
LayerCount: 2
Fore
SplineSet
170 0 m 1,0,-1
 315 680 l 1,1,-1
 215 680 l 1,2,-1
 246 830 l 1,3,-1
 346 830 l 1,4,-1
 491 1510 l 1,5,-1
 811 1510 l 1,6,-1
 759 1266 l 1,7,8
 989 1530 989 1530 1325 1530 c 0,9,10
 1667 1530 1667 1530 1826 1314 c 0,11,12
 1921 1185 1921 1185 1921 991 c 0,13,14
 1921 936 1921 936 1909 859 c 0,15,16
 1848 468 1848 468 1487 208 c 0,17,18
 1170 -20 1170 -20 842 -20 c 0,19,20
 735 -20 735 -20 662 32 c 0,21,22
 605 73 605 73 575 139 c 1,23,-1
 583 146 l 1,24,25
 677 118 677 118 763 118 c 0,26,27
 1039 118 1039 118 1254 306 c 0,28,29
 1496 518 1496 518 1563 835 c 0,30,31
 1582 924 1582 924 1582 995 c 0,32,33
 1582 1125 1582 1125 1532 1212 c 0,34,35
 1447 1360 1447 1360 1246 1360 c 0,36,37
 1060 1360 1060 1360 897 1225 c 0,38,39
 718 1076 718 1076 674 868 c 2,40,-1
 666 830 l 1,41,-1
 1036 830 l 1,42,-1
 1005 680 l 1,43,-1
 634 680 l 1,44,-1
 490 0 l 1,45,-1
 170 0 l 1,0,-1
EndSplineSet
Validated: 1
EndChar

StartChar: multiply
Encoding: 215 215 130
Width: 1188
GlyphClass: 2
Flags: W
DStem2: 270 472 381 331 0.771748 0.635928<0 441.447 666.312 1107.76> 562 1179 391 1038 0.618165 -0.786048<5.12655 359.684 544.878 899.436>
LayerCount: 2
Fore
SplineSet
562 1179 m 1,0,-1
 784 896 l 1,1,-1
 1128 1179 l 1,2,-1
 1239 1038 l 1,3,-1
 895 755 l 1,4,-1
 1118 472 l 1,5,-1
 947 331 l 1,6,-1
 725 614 l 1,7,-1
 381 331 l 1,8,-1
 270 472 l 1,9,-1
 613 755 l 1,10,-1
 391 1038 l 1,11,-1
 562 1179 l 1,0,-1
EndSplineSet
Validated: 1
EndChar

StartChar: Oslash
Encoding: 216 216 131
Width: 1819
GlyphClass: 2
Flags: W
HStem: -20 170<707.527 1100.09> 1360 170<1041.42 1431.57>
VStem: 196 339<307.637 769.058> 1605 339<741.733 1202.36>
DStem2: 414 35 527 -40 0.620265 0.784392<11.2606 39.2025 303.295 1640.8 1904.27 1930.81>
LayerCount: 2
Fore
SplineSet
1611 1550 m 1,0,-1
 1725 1475 l 1,1,-1
 1701 1445 l 1,2,3
 1790 1395 1790 1395 1849 1314 c 0,4,5
 1944 1185 1944 1185 1944 991 c 0,6,7
 1944 928 1944 928 1932 859 c 0,8,9
 1867 479 1867 479 1510 208 c 0,10,11
 1209 -20 1209 -20 823 -20 c 0,12,13
 680 -20 680 -20 568 12 c 1,14,-1
 527 -40 l 1,15,-1
 414 35 l 1,16,-1
 438 66 l 1,17,18
 350 116 350 116 291 196 c 0,19,20
 196 325 196 325 196 519 c 0,21,22
 196 582 196 582 208 651 c 0,23,24
 274 1037 274 1037 630 1302 c 0,25,26
 937 1530 937 1530 1317 1530 c 0,27,28
 1459 1530 1459 1530 1570 1499 c 1,29,-1
 1611 1550 l 1,0,-1
871 150 m 0,30,31
 1100 150 1100 150 1277 307 c 0,32,33
 1521 523 1521 523 1587 836 c 0,34,35
 1605 922 1605 922 1605 995 c 0,36,37
 1605 1129 1605 1129 1555 1212 c 0,38,39
 1547 1226 1547 1226 1538 1238 c 1,40,-1
 705 185 l 1,41,42
 775 150 775 150 871 150 c 0,30,31
602 273 m 1,43,-1
 1434 1326 l 1,44,45
 1365 1360 1365 1360 1270 1360 c 0,46,47
 1040 1360 1040 1360 863 1203 c 0,48,49
 619 987 619 987 553 674 c 0,50,51
 535 588 535 588 535 515 c 0,52,53
 535 381 535 381 585 298 c 0,54,55
 593 285 593 285 602 273 c 1,43,-1
EndSplineSet
Validated: 1
EndChar

StartChar: Thorn
Encoding: 222 222 132
Width: 1595
GlyphClass: 2
Flags: W
HStem: 0 21G<170 494.234> 162 138<712.398 1017.09> 1164 184<1023.33 1285.33> 1490 20G<486.748 811>
VStem: 170 320<0 320> 491 320<1190 1510> 1371 340<713.965 1078.18>
DStem2: 170 0 490 0 0.207912 0.978148<66.5317 1005.16 1174.66 1543.74>
LayerCount: 2
Fore
SplineSet
170 0 m 1,0,-1
 491 1510 l 1,1,-1
 811 1510 l 1,2,-1
 720 1084 l 1,3,4
 950 1348 950 1348 1270 1348 c 0,5,6
 1497 1348 1497 1348 1617 1199 c 0,7,8
 1711 1083 1711 1083 1711 931 c 0,9,10
 1711 887 1711 887 1703 840 c 0,11,12
 1645 489 1645 489 1339 297 c 0,13,14
 1123 162 1123 162 910 162 c 0,15,16
 773 162 773 162 700 214 c 0,17,18
 643 255 643 255 613 321 c 1,19,-1
 621 328 l 1,20,21
 715 300 715 300 801 300 c 0,22,23
 996 300 996 300 1134 420 c 0,24,25
 1305 569 1305 569 1359 825 c 0,26,27
 1371 881 1371 881 1371 929 c 0,28,29
 1371 1017 1371 1017 1330 1075 c 0,30,31
 1268 1164 1268 1164 1131 1164 c 0,32,33
 993 1164 993 1164 846 1040 c 0,34,35
 681 901 681 901 635 685 c 2,36,-1
 490 0 l 1,37,-1
 170 0 l 1,0,-1
EndSplineSet
Validated: 1
EndChar

StartChar: germandbls
Encoding: 223 223 133
Width: 1454
GlyphClass: 2
Flags: W
HStem: -20 137<590.784 859.695> 0 21G<170 474.246> 953 10<839 850.682> 1365 165<927.375 1132.02>
VStem: 170 300<0 300> 1149 301<1138.86 1345.59> 1180 338<471.282 813.293>
DStem2: 165.749 -20 465.749 -20 0.207912 0.978148<82.8203 1205.43>
LayerCount: 2
Fore
SplineSet
170 0 m 1,0,-1
 358 883 l 2,1,2
 426 1200 426 1200 667 1379 c 0,3,4
 872 1530 872 1530 1125 1530 c 0,5,6
 1299 1530 1299 1530 1389 1434 c 0,7,8
 1450 1368 1450 1368 1450 1274 c 0,9,10
 1450 1260 1450 1260 1449 1246 c 0,11,12
 1436 1101 1436 1101 1257 1013 c 1,13,14
 1380 971 1380 971 1443 894 c 0,15,16
 1518 804 1518 804 1518 678 c 0,17,18
 1518 629 1518 629 1506 574 c 0,19,20
 1464 376 1464 376 1289 213 c 0,21,22
 1038 -20 1038 -20 737 -20 c 0,23,24
 631 -20 631 -20 579 35 c 0,25,26
 547 69 547 69 530 129 c 1,27,-1
 539 136 l 1,28,29
 610 117 610 117 685 117 c 0,30,31
 856 117 856 117 1011 270 c 0,32,33
 1132 389 1132 389 1168 554 c 0,34,35
 1180 611 1180 611 1180 660 c 0,36,37
 1180 742 1180 742 1145 800 c 0,38,39
 1058 945 1058 945 837 953 c 1,40,-1
 839 963 l 1,41,42
 1102 1041 1102 1041 1145 1235 c 0,43,44
 1149 1255 1149 1255 1149 1273 c 0,45,46
 1149 1311 1149 1311 1129 1336 c 0,47,48
 1105 1365 1105 1365 1062 1365 c 0,49,50
 968 1365 968 1365 875 1281 c 24,51,52
 710 1129 710 1129 653 862 c 2,53,-1
 470 0 l 1,54,-1
 170 0 l 1,0,-1
EndSplineSet
Validated: 1
EndChar

StartChar: ae
Encoding: 230 230 134
Width: 1958
GlyphClass: 2
Flags: W
HStem: -20 137<566.549 785.555 1249.65 1492.96> 47 99<738.787 872.168> 475 150<1348 1703> 970 150<796.573 1054.07 1478.45 1767.61>
VStem: 161 323<203.714 595.708> 1081 297<634.375 889.077>
DStem2: 910.749 -20 1210.59 -20 0.207912 0.978148<233.466 568.44 721.815 866.234>
LayerCount: 2
Fore
SplineSet
915 0 m 1,0,-1
 1064 700 l 2,1,2
 1081 780 1081 780 1081 831 c 0,3,4
 1081 873 1081 873 1070 900 c 0,5,6
 1042 970 1042 970 955 970 c 0,7,8
 823 970 823 970 697 852 c 0,9,10
 542 705 542 705 501 514 c 0,11,12
 484 435 484 435 484 371 c 0,13,14
 484 281 484 281 518 220 c 0,15,16
 575 117 575 117 713 117 c 0,17,18
 815 117 815 117 906 146 c 1,19,-1
 912 139 l 1,20,21
 875 87 875 87 821 47 c 0,22,23
 732 -20 732 -20 603 -20 c 0,24,25
 364 -20 364 -20 237 145 c 0,26,27
 161 243 161 243 161 376 c 0,28,29
 161 426 161 426 172 480 c 0,30,31
 225 755 225 755 466 939 c 0,32,33
 704 1120 704 1120 1005 1120 c 0,34,35
 1199 1120 1199 1120 1294 1030 c 1,36,37
 1477 1120 1477 1120 1695 1120 c 0,38,39
 1953 1120 1953 1120 2092 939 c 1,40,-1
 1831 822 l 1,41,42
 1785 970 1785 970 1645 970 c 0,43,44
 1502 970 1502 970 1377 852 c 1,45,46
 1378 835 1378 835 1378 817 c 0,47,48
 1378 766 1378 766 1365 705 c 2,49,-1
 1348 625 l 1,50,-1
 1735 625 l 1,51,-1
 1703 475 l 1,52,-1
 1316 475 l 1,53,-1
 1248 156 l 1,54,55
 1291 130 1291 130 1353 130 c 0,56,57
 1496 130 1496 130 1621 248 c 0,58,59
 1701 324 1701 324 1753 422 c 1,60,-1
 1964 261 l 1,61,62
 1915 209 1915 209 1852 161 c 0,63,64
 1614 -20 1614 -20 1303 -20 c 0,65,66
 1211 -20 1211 -20 1137 0 c 1,67,-1
 915 0 l 1,0,-1
EndSplineSet
Validated: 1
EndChar

StartChar: eth
Encoding: 240 240 135
Width: 1434
GlyphClass: 2
Flags: W
HStem: -20 150<545.358 838.767> 970 150<793.432 965> 1510 20G<989.126 1041>
VStem: 164 317<194.562 601.31> 1222 317<656.382 1129.14>
DStem2: 891 1270 974 1164 0.780501 0.625154<0 122.91 389.89 522.014>
LayerCount: 2
Fore
SplineSet
626 -20 m 0,0,1
 362 -20 362 -20 237 145 c 0,2,3
 164 241 164 241 164 381 c 0,4,5
 164 428 164 428 172 480 c 0,6,7
 213 745 213 745 466 939 c 0,8,9
 703 1120 703 1120 1015 1120 c 1,10,-1
 965 970 l 1,11,12
 816 970 816 970 694 854 c 0,13,14
 540 708 540 708 500 514 c 0,15,16
 481 426 481 426 481 357 c 0,17,18
 481 278 481 278 506 226 c 0,19,20
 551 130 551 130 673 130 c 0,21,22
 815 130 815 130 941 250 c 0,23,24
 1135 434 1135 434 1205 760 c 0,25,26
 1222 841 1222 841 1222 915 c 0,27,28
 1222 1117 1222 1117 1092 1261 c 1,29,-1
 974 1164 l 1,30,-1
 891 1270 l 1,31,-1
 986 1348 l 1,32,33
 960 1364 960 1364 931 1379 c 1,34,-1
 998 1530 l 1,35,36
 1084 1516 1084 1516 1149 1483 c 1,37,-1
 1295 1603 l 1,38,-1
 1378 1497 l 1,39,-1
 1276 1413 l 1,40,41
 1539 1234 1539 1234 1539 901 c 0,42,43
 1539 848 1539 848 1532 792 c 0,44,45
 1482 396 1482 396 1172 161 c 0,46,47
 932 -20 932 -20 626 -20 c 0,0,1
EndSplineSet
Validated: 1
EndChar

StartChar: divide
Encoding: 247 247 136
Width: 1240
GlyphClass: 2
Flags: W
HStem: 175 370<607.695 786.234> 655 200<302 1259> 965 370<775.695 954.234>
CounterMasks: 1 e0
LayerCount: 2
Fore
SplineSet
658 175 m 0,0,1
 580 175 580 175 540 229 c 0,2,3
 511 268 511 268 511 319 c 0,4,5
 511 339 511 339 515 360 c 0,6,7
 531 437 531 437 595.5 491 c 128,-1,8
 660 545 660 545 736 545 c 128,-1,9
 812 545 812 545 854 491 c 0,10,11
 883 453 883 453 883 401 c 0,12,13
 883 381 883 381 879 360 c 0,14,15
 863 283 863 283 798.5 229 c 128,-1,16
 734 175 734 175 658 175 c 0,0,1
904 1335 m 128,-1,18
 980 1335 980 1335 1022 1281 c 0,19,20
 1051 1243 1051 1243 1051 1191 c 0,21,22
 1051 1171 1051 1171 1047 1150 c 0,23,24
 1031 1073 1031 1073 966.5 1019 c 128,-1,25
 902 965 902 965 826 965 c 0,26,27
 748 965 748 965 708 1019 c 0,28,29
 679 1058 679 1058 679 1109 c 0,30,31
 679 1129 679 1129 683 1150 c 0,32,33
 699 1227 699 1227 763.5 1281 c 128,-1,17
 828 1335 828 1335 904 1335 c 128,-1,18
302 855 m 1,34,-1
 1302 855 l 1,35,-1
 1259 655 l 1,36,-1
 259 655 l 1,37,-1
 302 855 l 1,34,-1
EndSplineSet
Validated: 1
EndChar

StartChar: oslash
Encoding: 248 248 137
Width: 1404
GlyphClass: 2
Flags: W
HStem: -20 150<588.806 838.85> 970 150<799.15 1049.19>
VStem: 164 315<254 585> 1159 315<515 848.559>
DStem2: 303 7 418 -68 0.61982 0.784744<12.4234 56.2224 310.483 1181.57 1435.04 1479.46>
LayerCount: 2
Fore
SplineSet
623 -20 m 0,0,1
 539 -20 539 -20 469 -3 c 1,2,-1
 418 -68 l 1,3,-1
 303 7 l 1,4,-1
 338 51 l 1,5,6
 279 88 279 88 237 145 c 0,7,8
 164 244 164 244 164 383 c 0,9,10
 164 429 164 429 172 480 c 0,11,12
 214 747 214 747 466 939 c 0,13,14
 704 1120 704 1120 1015 1120 c 0,15,16
 1099 1120 1099 1120 1169 1103 c 1,17,-1
 1220 1168 l 1,18,-1
 1334 1093 l 1,19,-1
 1299 1049 l 1,20,21
 1358 1012 1358 1012 1401 955 c 0,22,23
 1474 856 1474 856 1474 717 c 0,24,25
 1474 671 1474 671 1466 620 c 0,26,27
 1424 353 1424 353 1172 161 c 0,28,29
 934 -20 934 -20 623 -20 c 0,0,1
673 130 m 0,30,31
 816 130 816 130 941 248 c 0,32,33
 1097 396 1097 396 1145 624 c 0,34,35
 1159 690 1159 690 1159 744 c 0,36,37
 1159 804 1159 804 1142 850 c 1,38,-1
 587 146 l 1,39,40
 624 130 624 130 673 130 c 0,30,31
495 251 m 1,41,-1
 1051 954 l 1,42,43
 1014 970 1014 970 965 970 c 0,44,45
 822 970 822 970 697 852 c 0,46,47
 541 704 541 704 493 476 c 0,48,49
 479 410 479 410 479 356 c 0,50,51
 479 297 479 297 495 251 c 1,41,-1
EndSplineSet
Validated: 1
EndChar

StartChar: thorn
Encoding: 254 254 138
Width: 1451
GlyphClass: 2
Flags: W
HStem: -410 21G<83 387.248> -20 137<591.181 869.482> 962 158<868.809 1141.63> 1490 20G<486.75 791>
VStem: 83 300<-410 -110> 491 300<1210 1510> 1203 322<500.491 898.55>
DStem2: 83 -410 383 -410 0.207912 0.978148<62.3735 1257.2 1423.13 1962.87>
LayerCount: 2
Fore
SplineSet
83 -410 m 1,0,-1
 491 1510 l 1,1,-1
 791 1510 l 1,2,-1
 666 921 l 1,3,4
 840 1120 840 1120 1082 1120 c 128,-1,5
 1324 1120 1324 1120 1448 957 c 0,6,7
 1525 856 1525 856 1525 725 c 0,8,9
 1525 682 1525 682 1519 643 c 0,10,11
 1476 361 1476 361 1219 161 c 0,12,13
 985 -20 985 -20 737 -20 c 0,14,15
 631 -20 631 -20 580 35 c 0,16,17
 548 69 548 69 531 129 c 1,18,-1
 539 136 l 1,19,20
 610 117 610 117 685 117 c 0,21,22
 855 117 855 117 994 248 c 0,23,24
 1143 389 1143 389 1187 595 c 0,25,26
 1203 671 1203 671 1203 732 c 0,27,28
 1203 811 1203 811 1177 867 c 0,29,30
 1134 962 1134 962 1014 962 c 0,31,32
 903 962 903 962 798 880 c 0,33,34
 629 747 629 747 585 541 c 2,35,-1
 383 -410 l 1,36,-1
 83 -410 l 1,0,-1
EndSplineSet
Validated: 1
EndChar

StartChar: Dcroat
Encoding: 272 272 139
Width: 1796
GlyphClass: 2
Flags: W
HStem: -20 138<674.307 1015.77> 0 21G<170 494.235> 680 150<246 315 666 1005> 1360 170<1067.62 1429.28> 1490 20G<486.735 811>
VStem: 170 320<0 320> 1582 339<739.256 1199.71>
DStem2: 165.749 -20 485.749 -20 0.207912 0.978148<86.9786 715.734 935.434 1204.07 1381.24 1564.19>
LayerCount: 2
Fore
SplineSet
170 0 m 1,0,-1
 315 680 l 1,1,-1
 215 680 l 1,2,-1
 246 830 l 1,3,-1
 346 830 l 1,4,-1
 491 1510 l 1,5,-1
 811 1510 l 1,6,-1
 759 1266 l 1,7,8
 989 1530 989 1530 1325 1530 c 0,9,10
 1667 1530 1667 1530 1826 1314 c 0,11,12
 1921 1185 1921 1185 1921 991 c 0,13,14
 1921 936 1921 936 1909 859 c 0,15,16
 1848 468 1848 468 1487 208 c 0,17,18
 1170 -20 1170 -20 842 -20 c 0,19,20
 735 -20 735 -20 662 32 c 0,21,22
 605 73 605 73 575 139 c 1,23,-1
 583 146 l 1,24,25
 677 118 677 118 763 118 c 0,26,27
 1039 118 1039 118 1254 306 c 0,28,29
 1496 518 1496 518 1563 835 c 0,30,31
 1582 924 1582 924 1582 995 c 0,32,33
 1582 1125 1582 1125 1532 1212 c 0,34,35
 1447 1360 1447 1360 1246 1360 c 0,36,37
 1060 1360 1060 1360 897 1225 c 0,38,39
 718 1076 718 1076 674 868 c 2,40,-1
 666 830 l 1,41,-1
 1036 830 l 1,42,-1
 1005 680 l 1,43,-1
 634 680 l 1,44,-1
 490 0 l 1,45,-1
 170 0 l 1,0,-1
EndSplineSet
Validated: 1
EndChar

StartChar: dcroat
Encoding: 273 273 140
Width: 1451
GlyphClass: 2
Flags: W
HStem: -20 158<543.369 816.191> 0 21G<981 1285.25> 983 137<815.518 1093.82> 1200 150<978 1236 1568 1606> 1490 20G<1297.75 1602>
VStem: 160 322<201.45 599.509>
DStem2: 976.749 -20 1276.75 -20 0.207912 0.978148<82.8203 203.436 369.365 1247.24 1462.99 1564.19>
LayerCount: 2
Fore
SplineSet
1281 0 m 1,0,-1
 981 0 l 1,1,-1
 1019 179 l 1,2,3
 845 -20 845 -20 603 -20 c 128,-1,4
 361 -20 361 -20 237 143 c 0,5,6
 160 244 160 244 160 375 c 0,7,8
 160 418 160 418 166 457 c 0,9,10
 209 739 209 739 466 939 c 0,11,12
 700 1120 700 1120 948 1120 c 0,13,14
 1054 1120 1054 1120 1105 1065 c 0,15,16
 1137 1031 1137 1031 1154 971 c 1,17,-1
 1146 964 l 1,18,19
 1075 983 1075 983 1000 983 c 0,20,21
 830 983 830 983 691 852 c 0,22,23
 542 711 542 711 498 505 c 0,24,25
 482 429 482 429 482 368 c 0,26,27
 482 289 482 289 508 233 c 0,28,29
 551 138 551 138 671 138 c 0,30,31
 782 138 782 138 887 220 c 0,32,33
 1056 353 1056 353 1100 559 c 2,34,-1
 1236 1200 l 1,35,-1
 946 1200 l 1,36,-1
 978 1350 l 1,37,-1
 1268 1350 l 1,38,-1
 1302 1510 l 1,39,-1
 1602 1510 l 1,40,-1
 1568 1350 l 1,41,-1
 1638 1350 l 1,42,-1
 1606 1200 l 1,43,-1
 1536 1200 l 1,44,-1
 1281 0 l 1,0,-1
EndSplineSet
Validated: 1
EndChar

StartChar: Hbar
Encoding: 294 294 141
Width: 1632
GlyphClass: 2
Flags: W
HStem: 0 21G<170 494.239 1142 1466.25> 670 170<669 1284> 1200 150<357 425 777 1397 1749 1817> 1490 20G<486.75 811 1458.75 1783>
VStem: 170 320<0 320> 1142 320<0 320>
DStem2: 170 0 490 0 0.207912 0.978148<66.5317 751.414 925.392 1226.79 1446.7 1543.74> 1142 0 1462 0 0.207912 0.978148<66.5317 684.882 858.86 1226.79 1446.7 1543.74>
LayerCount: 2
Fore
SplineSet
170 0 m 1,0,-1
 425 1200 l 1,1,-1
 325 1200 l 1,2,-1
 357 1350 l 1,3,-1
 457 1350 l 1,4,-1
 491 1510 l 1,5,-1
 811 1510 l 1,6,-1
 777 1350 l 1,7,-1
 1429 1350 l 1,8,-1
 1463 1510 l 1,9,-1
 1783 1510 l 1,10,-1
 1749 1350 l 1,11,-1
 1849 1350 l 1,12,-1
 1817 1200 l 1,13,-1
 1717 1200 l 1,14,-1
 1462 0 l 1,15,-1
 1142 0 l 1,16,-1
 1284 670 l 1,17,-1
 632 670 l 1,18,-1
 490 0 l 1,19,-1
 170 0 l 1,0,-1
1397 1200 m 1,20,-1
 745 1200 l 1,21,-1
 669 840 l 1,22,-1
 1321 840 l 1,23,-1
 1397 1200 l 1,20,-1
EndSplineSet
Validated: 1
EndChar

StartChar: hbar
Encoding: 295 295 142
Width: 1422
GlyphClass: 2
Flags: W
HStem: 0 21G<170 474.238 952 1256.26> 950 170<900.21 1212> 1200 150<407 425 757 1015> 1490 20G<486.75 791>
VStem: 170 300<0 300> 952 300<0 300> 1121 302<688.955 929.474>
DStem2: 170 0 470 0 0.207912 0.978148<62.3735 838.898 1004 1226.79 1442.54 1543.74> 952 0 1252 0 0.207912 0.978148<62.3735 847.792>
LayerCount: 2
Fore
SplineSet
170 0 m 1,0,-1
 425 1200 l 1,1,-1
 375 1200 l 1,2,-1
 407 1350 l 1,3,-1
 457 1350 l 1,4,-1
 491 1510 l 1,5,-1
 791 1510 l 1,6,-1
 757 1350 l 1,7,-1
 1047 1350 l 1,8,-1
 1015 1200 l 1,9,-1
 725 1200 l 1,10,-1
 666 921 l 1,11,12
 874 1120 874 1120 1128 1120 c 0,13,14
 1296 1120 1296 1120 1371 1016 c 0,15,16
 1423 944 1423 944 1423 846 c 0,17,18
 1423 804 1423 804 1412 752 c 2,19,-1
 1252 0 l 1,20,-1
 952 0 l 1,21,-1
 1111 747 l 2,22,23
 1121 794 1121 794 1121 832 c 0,24,25
 1121 871 1121 871 1109 895 c 0,26,27
 1079 950 1079 950 1002 950 c 0,28,29
 858 950 858 950 729 815 c 0,30,31
 618 699 618 699 584 538 c 2,32,-1
 470 0 l 1,33,-1
 170 0 l 1,0,-1
EndSplineSet
Validated: 1
EndChar

StartChar: kgreenlandic
Encoding: 312 312 143
Width: 1366
GlyphClass: 2
Flags: W
HStem: 0 21G<170 474.231 943.952 1356> 208 151<546 723.655> 1080 20G<399.745 704 1090.5 1430>
VStem: 404 300<800 1100> 1130 300<800 1100>
DStem2: 170 0 470 0 0.207912 0.978148<62.3735 284.564 429.33 1124.61>
LayerCount: 2
Fore
SplineSet
170 0 m 1,0,-1
 404 1100 l 1,1,-1
 704 1100 l 1,2,-1
 546 359 l 1,3,4
 796 382 796 382 942 581 c 0,5,6
 1051 730 1051 730 1130 1100 c 1,7,-1
 1430 1100 l 1,8,9
 1358 757 1358 757 1221 561 c 0,10,11
 1138 442 1138 442 1003 345 c 1,12,-1
 1356 0 l 1,13,-1
 963 0 l 1,14,-1
 743 231 l 1,15,16
 641 208 641 208 514 208 c 1,17,-1
 470 0 l 1,18,-1
 170 0 l 1,0,-1
EndSplineSet
Validated: 1
EndChar

StartChar: Lslash
Encoding: 321 321 144
Width: 1128
GlyphClass: 2
Flags: W
HStem: 0 170<526 1118> 1490 20G<486.755 811>
VStem: 491 320<1190 1510>
DStem2: 170 0 489.865 0 0.207912 0.978148<240.302 533.671 710.584 789.269 966.181 1543.74> 677 880 640 707 0.889274 0.457374<0 335.207>
LayerCount: 2
Fore
SplineSet
170 0 m 1,0,-1
 281 522 l 1,1,-1
 270 516 l 1,2,-1
 222 646 l 1,3,-1
 318 695 l 1,4,-1
 491 1510 l 1,5,-1
 811 1510 l 1,6,-1
 677 880 l 1,7,-1
 990 1041 l 1,8,-1
 1038 911 l 1,9,-1
 640 707 l 1,10,-1
 526 170 l 1,11,-1
 1154 170 l 1,12,-1
 1118 0 l 1,13,-1
 170 0 l 1,0,-1
EndSplineSet
Validated: 1
EndChar

StartChar: lslash
Encoding: 322 322 145
Width: 769
GlyphClass: 2
Flags: W
HStem: -20 150<601.251 685> 1490 20G<545.759 850>
VStem: 280 304<149.122 336.469> 550 300<1210 1510>
DStem2: 171 664 220 534 0.889274 0.457375<0 139.309 629.717 808.384> 225.083 -20 525.233 -20 0.207912 0.978148<323.746 638.977 816.868 878.055 1055.95 1564.12>
LayerCount: 2
Fore
SplineSet
685 -20 m 1,0,1
 280 -20 280 -20 280 209 c 0,2,3
 280 238 280 238 288 276 c 2,4,-1
 358 605 l 1,5,-1
 220 534 l 1,6,-1
 171 664 l 1,7,-1
 395 779 l 1,8,-1
 550 1510 l 1,9,-1
 850 1510 l 1,10,-1
 731 952 l 1,11,-1
 904 1041 l 1,12,-1
 953 911 l 1,13,-1
 694 778 l 1,14,-1
 589 280 l 2,15,16
 584 256 584 256 584 234 c 0,17,18
 584 130 584 130 717 130 c 1,19,-1
 685 -20 l 1,0,1
EndSplineSet
Validated: 1
EndChar

StartChar: Eng
Encoding: 330 330 146
Width: 1631
GlyphClass: 2
Flags: W
HStem: -430 150<921 1042.98> 0 21G<170 494.249> 1346 184<1064.39 1326.22> 1490 20G<486.748 811>
VStem: 170 320<0 320> 1381 322<1024.32 1292.07>
DStem2: 78.6007 -430 398.601 -430 0.207912 0.978148<506.138 1646.2 1800.4 1983.35> 1049.61 -430 1369.46 -430 0.207912 0.978148<232.641 1629.84>
LayerCount: 2
Fore
SplineSet
170 0 m 1,0,-1
 491 1510 l 1,1,-1
 811 1510 l 1,2,-1
 759 1266 l 1,3,4
 989 1530 989 1530 1309 1530 c 0,5,6
 1543 1530 1543 1530 1640 1391 c 0,7,8
 1703 1301 1703 1301 1703 1188 c 0,9,10
 1703 1141 1703 1141 1692 1089 c 2,11,-1
 1443 -84 l 2,12,13
 1370 -430 1370 -430 890 -430 c 1,14,-1
 921 -280 l 1,15,16
 1082 -280 1082 -280 1124 -80 c 2,17,-1
 1371 1083 l 2,18,19
 1381 1129 1381 1129 1381 1167 c 0,20,21
 1381 1233 1381 1233 1351 1276 c 0,22,23
 1303 1346 1303 1346 1193 1346 c 0,24,25
 1000 1346 1000 1346 846 1196 c 0,26,27
 718 1072 718 1072 674 866 c 2,28,-1
 490 0 l 1,29,-1
 170 0 l 1,0,-1
EndSplineSet
Validated: 1
EndChar

StartChar: eng
Encoding: 331 331 147
Width: 1422
GlyphClass: 2
Flags: W
HStem: -430 150<732 847.408> 0 21G<170 474.238> 950 170<900.21 1212.5> 1080 20G<399.745 704>
VStem: 170 300<0 300> 1122 301<688.588 929.576>
DStem2: 78.6007 -430 378.601 -430 0.207912 0.978148<501.98 1278.5 1443.6 1564.22> 860.605 -430 1160.46 -430 0.207912 0.978148<220.166 1288.64>
LayerCount: 2
Fore
SplineSet
170 0 m 1,0,-1
 404 1100 l 1,1,-1
 704 1100 l 1,2,-1
 666 921 l 1,3,4
 874 1120 874 1120 1128 1120 c 0,5,6
 1297 1120 1297 1120 1371 1016 c 0,7,8
 1423 945 1423 945 1423 847 c 0,9,10
 1423 802 1423 802 1412 752 c 2,11,-1
 1234 -84 l 2,12,13
 1160 -430 1160 -430 701 -430 c 1,14,-1
 732 -280 l 1,15,16
 892 -280 892 -280 935 -80 c 2,17,-1
 1111 747 l 2,18,19
 1122 797 1122 797 1122 833 c 0,20,21
 1122 872 1122 872 1109 895 c 0,22,23
 1079 950 1079 950 1002 950 c 0,24,25
 858 950 858 950 729 815 c 0,26,27
 618 699 618 699 584 538 c 2,28,-1
 470 0 l 1,29,-1
 170 0 l 1,0,-1
EndSplineSet
Validated: 1
EndChar

StartChar: OE
Encoding: 338 338 148
Width: 2613
GlyphClass: 2
Flags: W
HStem: -20 170<688.992 1098.94 1659.51 2067.24> 670 170<1929 2318> 1360 170<1041.42 1452.5 2014.55 2411.95>
VStem: 196 339<307.637 769.058> 1605 339<842.038 1201.29>
CounterMasks: 1 e0
LayerCount: 2
Fore
SplineSet
871 150 m 0,0,1
 1100 150 1100 150 1277 307 c 0,2,3
 1521 523 1521 523 1587 836 c 0,4,5
 1605 922 1605 922 1605 995 c 0,6,7
 1605 1129 1605 1129 1555 1212 c 0,8,9
 1467 1360 1467 1360 1270 1360 c 0,10,11
 1040 1360 1040 1360 863 1203 c 0,12,13
 619 987 619 987 553 674 c 0,14,15
 535 588 535 588 535 515 c 0,16,17
 535 381 535 381 585 298 c 0,18,19
 673 150 673 150 871 150 c 0,0,1
823 -20 m 0,20,21
 450 -20 450 -20 291 196 c 0,22,23
 196 325 196 325 196 519 c 0,24,25
 196 582 196 582 208 651 c 0,26,27
 274 1037 274 1037 630 1302 c 0,28,29
 937 1530 937 1530 1317 1530 c 0,30,31
 1603 1530 1603 1530 1763 1403 c 1,32,33
 2006 1530 2006 1530 2289 1530 c 0,34,35
 2657 1530 2657 1530 2834 1295 c 1,36,-1
 2549 1167 l 1,37,38
 2452 1360 2452 1360 2242 1360 c 0,39,40
 2047 1360 2047 1360 1890 1247 c 1,41,42
 1944 1138 1944 1138 1944 991 c 0,43,44
 1944 927 1944 927 1929 840 c 1,45,-1
 2355 840 l 1,46,-1
 2318 670 l 1,47,-1
 1879 670 l 1,48,49
 1789 445 1789 445 1580 264 c 1,50,51
 1669 150 1669 150 1843 150 c 0,52,53
 2072 150 2072 150 2249 307 c 0,54,55
 2354 400 2354 400 2426 511 c 1,56,-1
 2636 344 l 1,57,58
 2567 273 2567 273 2482 208 c 0,59,60
 2184 -20 2184 -20 1795 -20 c 0,61,62
 1510 -20 1510 -20 1350 106 c 1,63,64
 1110 -20 1110 -20 823 -20 c 0,20,21
EndSplineSet
Validated: 1
EndChar

StartChar: oe
Encoding: 339 339 149
Width: 1959
GlyphClass: 2
Flags: W
HStem: -20 150<544.687 840.217 1225.38 1519.85> 475 150<1467 1704> 970 150<799.15 1092.53 1479.22 1768.61>
VStem: 164 315<197.672 585.187> 1159 315<626.279 899.075>
CounterMasks: 1 e0
LayerCount: 2
Fore
SplineSet
673 130 m 0,0,1
 816 130 816 130 941 248 c 0,2,3
 1097 396 1097 396 1145 624 c 0,4,5
 1159 690 1159 690 1159 744 c 0,6,7
 1159 820 1159 820 1132 874 c 0,8,9
 1084 970 1084 970 965 970 c 0,10,11
 822 970 822 970 697 852 c 0,12,13
 541 704 541 704 493 476 c 0,14,15
 479 410 479 410 479 356 c 0,16,17
 479 280 479 280 506 226 c 0,18,19
 554 130 554 130 673 130 c 0,0,1
623 -20 m 0,20,21
 360 -20 360 -20 237 145 c 0,22,23
 164 244 164 244 164 383 c 0,24,25
 164 429 164 429 172 480 c 0,26,27
 214 747 214 747 466 939 c 0,28,29
 704 1120 704 1120 1015 1120 c 0,30,31
 1199 1120 1199 1120 1314 1040 c 1,32,33
 1489 1120 1489 1120 1696 1120 c 0,34,35
 1954 1120 1954 1120 2093 939 c 1,36,-1
 1832 822 l 1,37,38
 1786 970 1786 970 1646 970 c 0,39,40
 1535 970 1535 970 1435 899 c 1,41,42
 1474 819 1474 819 1474 717 c 0,43,44
 1474 673 1474 673 1467 625 c 1,45,-1
 1736 625 l 1,46,-1
 1704 475 l 1,47,-1
 1425 475 l 1,48,49
 1360 318 1360 318 1209 191 c 1,50,51
 1259 130 1259 130 1354 130 c 0,52,53
 1497 130 1497 130 1622 248 c 0,54,55
 1702 324 1702 324 1754 422 c 1,56,-1
 1965 261 l 1,57,58
 1916 209 1916 209 1853 161 c 0,59,60
 1615 -20 1615 -20 1304 -20 c 0,61,62
 1120 -20 1120 -20 1005 60 c 1,63,64
 830 -20 830 -20 623 -20 c 0,20,21
EndSplineSet
Validated: 1
EndChar

StartChar: Tbar
Encoding: 358 358 150
Width: 1260
GlyphClass: 2
Flags: W
HStem: 0 21G<470 794.254> 630 150<451 604 956 1109> 1340 170<331 755 1075 1535>
VStem: 470 320<0 320>
DStem2: 470 0 790 0 0.207912 0.978148<66.5317 644.093 864 1369.97>
LayerCount: 2
Fore
SplineSet
470 0 m 1,0,-1
 604 630 l 1,1,-1
 419 630 l 1,2,-1
 451 780 l 1,3,-1
 636 780 l 1,4,-1
 755 1340 l 1,5,-1
 295 1340 l 1,6,-1
 331 1510 l 1,7,-1
 1571 1510 l 1,8,-1
 1535 1340 l 1,9,-1
 1075 1340 l 1,10,-1
 956 780 l 1,11,-1
 1141 780 l 1,12,-1
 1109 630 l 1,13,-1
 924 630 l 1,14,-1
 790 0 l 1,15,-1
 470 0 l 1,0,-1
EndSplineSet
Validated: 1
EndChar

StartChar: tbar
Encoding: 359 359 151
Width: 780
GlyphClass: 2
Flags: W
HStem: -20 150<542.251 626> 522 150<173 281 613 721> 950 150<264 372 704 972> 1490 20G<486.756 791>
VStem: 221 304<149.122 334.778> 491 300<1210 1510>
DStem2: 166.083 -20 466.233 -20 0.207912 0.978148<323.716 554.049 769.797 991.616 1207.36 1564.12>
LayerCount: 2
Fore
SplineSet
626 -20 m 1,0,1
 221 -20 221 -20 221 209 c 0,2,3
 221 240 221 240 229 276 c 2,4,-1
 281 522 l 1,5,-1
 141 522 l 1,6,-1
 173 672 l 1,7,-1
 313 672 l 1,8,-1
 372 950 l 1,9,-1
 232 950 l 1,10,-1
 264 1100 l 1,11,-1
 404 1100 l 1,12,-1
 491 1510 l 1,13,-1
 791 1510 l 1,14,-1
 704 1100 l 1,15,-1
 1004 1100 l 1,16,-1
 972 950 l 1,17,-1
 672 950 l 1,18,-1
 613 672 l 1,19,-1
 753 672 l 1,20,-1
 721 522 l 1,21,-1
 581 522 l 1,22,-1
 530 280 l 2,23,24
 525 255 525 255 525 234 c 0,25,26
 525 130 525 130 658 130 c 1,27,-1
 626 -20 l 1,0,1
EndSplineSet
Validated: 1
EndChar

StartChar: longs
Encoding: 383 383 152
Width: 1231
GlyphClass: 2
Flags: W
HStem: 0 21G<210 514.241> 680 150<186 355> 1380 150<1013.82 1315.09>
VStem: 210 300<0 300>
DStem2: 210 0 510 0 0.207912 0.978148<62.3735 695.288 848.455 1150.73>
LayerCount: 2
Fore
SplineSet
210 0 m 1,0,-1
 355 680 l 1,1,-1
 155 680 l 1,2,-1
 186 830 l 1,3,-1
 386 830 l 1,4,5
 453 1160 453 1160 693 1349 c 0,6,7
 924 1530 924 1530 1220 1530 c 0,8,9
 1403 1530 1403 1530 1535 1455 c 1,10,-1
 1362 1274 l 1,11,12
 1311 1380 1311 1380 1192 1380 c 0,13,14
 1002 1380 1002 1380 852 1205 c 0,15,16
 738 1071 738 1071 686 830 c 2,17,-1
 510 0 l 1,18,-1
 210 0 l 1,0,-1
EndSplineSet
Validated: 1
EndChar

StartChar: florin
Encoding: 402 402 153
Width: 1191
GlyphClass: 2
Flags: W
HStem: -430 150<-50 65.6926> 680 150<246 315 646 1087> 1380 150<973.822 1275.09>
DStem2: 78.6052 -430 378.455 -430 0.207912 0.978148<220.255 1134.89 1350.43 1590.34>
LayerCount: 2
Fore
SplineSet
-81 -430 m 1,0,-1
 -50 -280 l 1,1,2
 110 -280 110 -280 153 -80 c 2,3,-1
 315 680 l 1,4,-1
 215 680 l 1,5,-1
 246 830 l 1,6,-1
 346 830 l 1,7,8
 413 1160 413 1160 653 1349 c 0,9,10
 884 1530 884 1530 1180 1530 c 0,11,12
 1363 1530 1363 1530 1495 1455 c 1,13,-1
 1322 1274 l 1,14,15
 1271 1380 1271 1380 1152 1380 c 0,16,17
 962 1380 962 1380 812 1205 c 0,18,19
 698 1071 698 1071 646 830 c 1,20,-1
 1118 830 l 1,21,-1
 1087 680 l 1,22,-1
 615 680 l 1,23,-1
 452 -84 l 2,24,25
 379 -430 379 -430 -81 -430 c 1,0,-1
EndSplineSet
Validated: 1
EndChar

StartChar: endash
Encoding: 8211 8211 154
Width: 1240
GlyphClass: 2
Flags: W
HStem: 655 200<302 1259>
LayerCount: 2
Fore
SplineSet
302 855 m 1,0,-1
 1302 855 l 1,1,-1
 1259 655 l 1,2,-1
 259 655 l 1,3,-1
 302 855 l 1,0,-1
EndSplineSet
Validated: 1
EndChar

StartChar: emdash
Encoding: 8212 8212 155
Width: 1540
GlyphClass: 2
Flags: W
HStem: 655 200<302 1559>
LayerCount: 2
Fore
SplineSet
302 855 m 1,0,-1
 1602 855 l 1,1,-1
 1559 655 l 1,2,-1
 259 655 l 1,3,-1
 302 855 l 1,0,-1
EndSplineSet
Validated: 1
EndChar

StartChar: afii00208
Encoding: 8213 8213 156
Width: 1540
GlyphClass: 2
Flags: W
HStem: 655 200<302 1559>
LayerCount: 2
Fore
SplineSet
302 855 m 1,0,-1
 1602 855 l 1,1,-1
 1559 655 l 1,2,-1
 259 655 l 1,3,-1
 302 855 l 1,0,-1
EndSplineSet
Validated: 1
EndChar

StartChar: quoteleft
Encoding: 8216 8216 157
Width: 373
GlyphClass: 2
Flags: W
HStem: 954 596
VStem: 274 218<1141.62 1330.12>
LayerCount: 2
Fore
SplineSet
424 954 m 1,0,1
 274 1024 274 1024 274 1165 c 0,2,3
 274 1197 274 1197 282 1232 c 0,4,5
 323 1426 323 1426 559 1550 c 1,6,-1
 648 1429 l 1,7,8
 517 1354 517 1354 495 1250 c 0,9,10
 492 1236 492 1236 492 1223 c 0,11,12
 492 1149 492 1149 590 1115 c 1,13,-1
 424 954 l 1,0,1
EndSplineSet
Validated: 1
EndChar

StartChar: quoteright
Encoding: 8217 8217 158
Width: 373
GlyphClass: 2
Flags: W
HStem: 954 596
VStem: 414 217<1173.88 1362.38>
LayerCount: 2
Fore
SplineSet
481 1550 m 1,0,1
 631 1480 631 1480 631 1339 c 0,2,3
 631 1307 631 1307 623 1272 c 0,4,5
 582 1078 582 1078 346 954 c 1,6,-1
 257 1075 l 1,7,8
 388 1150 388 1150 411 1254 c 0,9,10
 414 1268 414 1268 414 1281 c 0,11,12
 414 1355 414 1355 315 1389 c 1,13,-1
 481 1550 l 1,0,1
EndSplineSet
Validated: 1
EndChar

StartChar: quotesinglbase
Encoding: 8218 8218 159
Width: 373
GlyphClass: 2
Flags: W
HStem: -268 596
VStem: 154 218<-48.1235 140.381>
LayerCount: 2
Fore
SplineSet
222 328 m 1,0,1
 372 258 372 258 372 117 c 0,2,3
 372 85 372 85 364 50 c 0,4,5
 323 -144 323 -144 86 -268 c 1,6,-1
 -2 -147 l 1,7,8
 129 -72 129 -72 151 32 c 0,9,10
 154 46 154 46 154 59 c 0,11,12
 154 133 154 133 55 167 c 1,13,-1
 222 328 l 1,0,1
EndSplineSet
Validated: 1
EndChar

StartChar: quotereversed
Encoding: 8219 8219 160
Width: 373
GlyphClass: 2
Flags: W
HStem: 954 596
VStem: 283 209<1106.99 1326.35>
LayerCount: 2
Fore
SplineSet
550 1550 m 1,0,1
 648 1389 l 1,2,3
 515 1349 515 1349 496 1254 c 0,4,5
 492 1235 492 1235 492 1217 c 0,6,7
 492 1136 492 1136 572 1075 c 1,8,-1
 433 954 l 1,9,10
 283 1055 283 1055 283 1204 c 0,11,12
 283 1237 283 1237 290 1272 c 0,13,14
 331 1464 331 1464 550 1550 c 1,0,1
EndSplineSet
Validated: 1
EndChar

StartChar: quotedblleft
Encoding: 8220 8220 161
Width: 725
GlyphClass: 2
Flags: W
HStem: 954 596
VStem: 274 218<1141.62 1330.12> 626 218<1141.62 1330.12>
LayerCount: 2
Fore
SplineSet
424 954 m 1,0,1
 274 1024 274 1024 274 1165 c 0,2,3
 274 1197 274 1197 282 1232 c 0,4,5
 323 1426 323 1426 559 1550 c 1,6,-1
 648 1429 l 1,7,8
 517 1354 517 1354 495 1250 c 0,9,10
 492 1236 492 1236 492 1223 c 0,11,12
 492 1149 492 1149 590 1115 c 1,13,-1
 424 954 l 1,0,1
776 954 m 1,14,15
 626 1024 626 1024 626 1165 c 0,16,17
 626 1197 626 1197 634 1232 c 0,18,19
 675 1426 675 1426 911 1550 c 1,20,-1
 1000 1429 l 1,21,22
 869 1354 869 1354 847 1250 c 0,23,24
 844 1236 844 1236 844 1223 c 0,25,26
 844 1149 844 1149 942 1115 c 1,27,-1
 776 954 l 1,14,15
EndSplineSet
Validated: 1
EndChar

StartChar: quotedblright
Encoding: 8221 8221 162
Width: 725
GlyphClass: 2
Flags: W
HStem: 954 596
VStem: 414 217<1173.88 1362.38> 766 217<1173.88 1362.38>
LayerCount: 2
Fore
SplineSet
833 1550 m 1,0,1
 983 1480 983 1480 983 1339 c 0,2,3
 983 1307 983 1307 975 1272 c 0,4,5
 934 1078 934 1078 698 954 c 1,6,-1
 609 1075 l 1,7,8
 740 1150 740 1150 763 1254 c 0,9,10
 766 1268 766 1268 766 1281 c 0,11,12
 766 1355 766 1355 667 1389 c 1,13,-1
 833 1550 l 1,0,1
481 1550 m 1,14,15
 631 1480 631 1480 631 1339 c 0,16,17
 631 1307 631 1307 623 1272 c 0,18,19
 582 1078 582 1078 346 954 c 1,20,-1
 257 1075 l 1,21,22
 388 1150 388 1150 411 1254 c 0,23,24
 414 1268 414 1268 414 1281 c 0,25,26
 414 1355 414 1355 315 1389 c 1,27,-1
 481 1550 l 1,14,15
EndSplineSet
Validated: 1
EndChar

StartChar: quotedblbase
Encoding: 8222 8222 163
Width: 725
GlyphClass: 2
Flags: W
HStem: -268 596
VStem: 154 218<-48.1235 140.381> 506 218<-48.1235 140.381>
LayerCount: 2
Fore
SplineSet
574 328 m 1,0,1
 724 258 724 258 724 117 c 0,2,3
 724 85 724 85 716 50 c 0,4,5
 675 -144 675 -144 438 -268 c 1,6,-1
 350 -147 l 1,7,8
 481 -72 481 -72 503 32 c 0,9,10
 506 46 506 46 506 59 c 0,11,12
 506 133 506 133 407 167 c 1,13,-1
 574 328 l 1,0,1
222 328 m 1,14,15
 372 258 372 258 372 117 c 0,16,17
 372 85 372 85 364 50 c 0,18,19
 323 -144 323 -144 86 -268 c 1,20,-1
 -2 -147 l 1,21,22
 129 -72 129 -72 151 32 c 0,23,24
 154 46 154 46 154 59 c 0,25,26
 154 133 154 133 55 167 c 1,27,-1
 222 328 l 1,14,15
EndSplineSet
Validated: 1
EndChar

StartChar: dagger
Encoding: 8224 8224 164
Width: 1240
GlyphClass: 2
Flags: W
HStem: 0 21G<460 784.257> 1010 170<371 675 1031 1335> 1490 20G<776.758 1101>
VStem: 460 320<0 320> 781 320<1190 1510>
DStem2: 460 0 780 0 0.207912 0.978148<66.5317 1032.63 1272.93 1543.74>
LayerCount: 2
Fore
SplineSet
460 0 m 1,0,-1
 675 1010 l 1,1,-1
 335 1010 l 1,2,-1
 371 1180 l 1,3,-1
 711 1180 l 1,4,-1
 781 1510 l 1,5,-1
 1101 1510 l 1,6,-1
 1031 1180 l 1,7,-1
 1371 1180 l 1,8,-1
 1335 1010 l 1,9,-1
 995 1010 l 1,10,-1
 780 0 l 1,11,-1
 460 0 l 1,0,-1
EndSplineSet
Validated: 1
EndChar

StartChar: daggerdbl
Encoding: 8225 8225 165
Width: 1240
GlyphClass: 2
Flags: W
HStem: 0 21G<460 784.242> 330 170<226 530 886 1190> 1010 170<371 675 1031 1335> 1490 20G<776.758 1101>
VStem: 460 320<0 320> 781 320<1190 1510>
DStem2: 460 0 780 0 0.207912 0.978148<66.5317 337.343 577.644 1032.63 1272.93 1543.74>
LayerCount: 2
Fore
SplineSet
460 0 m 1,0,-1
 530 330 l 1,1,-1
 190 330 l 1,2,-1
 226 500 l 1,3,-1
 566 500 l 1,4,-1
 675 1010 l 1,5,-1
 335 1010 l 1,6,-1
 371 1180 l 1,7,-1
 711 1180 l 1,8,-1
 781 1510 l 1,9,-1
 1101 1510 l 1,10,-1
 1031 1180 l 1,11,-1
 1371 1180 l 1,12,-1
 1335 1010 l 1,13,-1
 995 1010 l 1,14,-1
 886 500 l 1,15,-1
 1226 500 l 1,16,-1
 1190 330 l 1,17,-1
 850 330 l 1,18,-1
 780 0 l 1,19,-1
 460 0 l 1,0,-1
EndSplineSet
Validated: 1
EndChar

StartChar: bullet
Encoding: 8226 8226 166
Width: 984
GlyphClass: 2
Flags: W
HStem: 417 674<546.038 758.962>
LayerCount: 2
Fore
SplineSet
551 417 m 0,0,1
 381 417 381 417 312 521 c 0,2,3
 268 586 268 586 268 666 c 0,4,5
 268 697 268 697 275 730 c 0,6,7
 302 864 302 864 412 960 c 0,8,9
 562 1091 562 1091 754 1091 c 0,10,11
 924 1091 924 1091 993 987 c 0,12,13
 1037 922 1037 922 1037 842 c 0,14,15
 1037 811 1037 811 1030 778 c 0,16,17
 1003 644 1003 644 893 548 c 0,18,19
 743 417 743 417 551 417 c 0,0,1
EndSplineSet
Validated: 1
EndChar

StartChar: ellipsis
Encoding: 8230 8230 167
Width: 1274
GlyphClass: 2
Flags: W
HStem: -20 370<147.695 326.234 583.695 762.234 1017.69 1196.23>
LayerCount: 2
Fore
SplineSet
1068 -20 m 0,0,1
 990 -20 990 -20 950 34 c 0,2,3
 921 73 921 73 921 124 c 0,4,5
 921 144 921 144 925 165 c 0,6,7
 941 242 941 242 1005.5 296 c 128,-1,8
 1070 350 1070 350 1146 350 c 128,-1,9
 1222 350 1222 350 1264 296 c 0,10,11
 1293 258 1293 258 1293 206 c 0,12,13
 1293 186 1293 186 1289 165 c 0,14,15
 1273 88 1273 88 1208.5 34 c 128,-1,16
 1144 -20 1144 -20 1068 -20 c 0,0,1
634 -20 m 0,17,18
 556 -20 556 -20 516 34 c 0,19,20
 487 73 487 73 487 124 c 0,21,22
 487 144 487 144 491 165 c 0,23,24
 507 242 507 242 571.5 296 c 128,-1,25
 636 350 636 350 712 350 c 128,-1,26
 788 350 788 350 830 296 c 0,27,28
 859 258 859 258 859 206 c 0,29,30
 859 186 859 186 855 165 c 0,31,32
 839 88 839 88 774.5 34 c 128,-1,33
 710 -20 710 -20 634 -20 c 0,17,18
198 -20 m 0,34,35
 120 -20 120 -20 80 34 c 0,36,37
 51 73 51 73 51 124 c 0,38,39
 51 144 51 144 55 165 c 0,40,41
 71 242 71 242 135.5 296 c 128,-1,42
 200 350 200 350 276 350 c 128,-1,43
 352 350 352 350 394 296 c 0,44,45
 423 258 423 258 423 206 c 0,46,47
 423 186 423 186 419 165 c 0,48,49
 403 88 403 88 338.5 34 c 128,-1,50
 274 -20 274 -20 198 -20 c 0,34,35
EndSplineSet
Validated: 1
EndChar

StartChar: perthousand
Encoding: 8240 8240 168
Width: 2535
GlyphClass: 2
Flags: W
HStem: -20 118<1168.11 1360.14 1961.11 2153.14> 0 21G<319 590.417> 538 116<1274.86 1466.89 2067.86 2259.89> 856 118<597.106 789.137> 1414 116<703.863 895.894> 1490 20G<1467.58 1739>
VStem: 319 256<0 256> 362 217<1025.91 1270.54> 914 217<1118.11 1362.09> 933 217<149.909 394.535> 1483 256<1254 1510> 1485 217<242.111 486.091> 1726 217<149.909 394.535> 2278 217<242.111 486.091>
DStem2: 319 0 575 0 0.610522 0.792<156.294 1906.57>
LayerCount: 2
Fore
SplineSet
2009 -20 m 0,0,1
 1839 -20 1839 -20 1770 84 c 0,2,3
 1726 149 1726 149 1726 229 c 0,4,5
 1726 260 1726 260 1733 293 c 0,6,7
 1760 427 1760 427 1870 523 c 0,8,9
 2020 654 2020 654 2212 654 c 0,10,11
 2382 654 2382 654 2451 550 c 0,12,13
 2495 485 2495 485 2495 405 c 0,14,15
 2495 374 2495 374 2488 341 c 0,16,17
 2461 207 2461 207 2351 111 c 0,18,19
 2201 -20 2201 -20 2009 -20 c 0,0,1
2041 98 m 0,20,21
 2114 98 2114 98 2178 165 c 0,22,23
 2250 240 2250 240 2270 343 c 0,24,25
 2278 383 2278 383 2278 416 c 0,26,27
 2278 458 2278 458 2265 487 c 0,28,29
 2242 538 2242 538 2180 538 c 0,30,31
 2107 538 2107 538 2043 471 c 0,32,33
 1971 396 1971 396 1951 293 c 0,34,35
 1943 253 1943 253 1943 220 c 0,36,37
 1943 178 1943 178 1956 149 c 0,38,39
 1979 98 1979 98 2041 98 c 0,20,21
1216 -20 m 0,40,41
 1046 -20 1046 -20 977 84 c 0,42,43
 933 149 933 149 933 229 c 0,44,45
 933 260 933 260 940 293 c 0,46,47
 967 427 967 427 1077 523 c 0,48,49
 1227 654 1227 654 1419 654 c 0,50,51
 1589 654 1589 654 1658 550 c 0,52,53
 1702 485 1702 485 1702 405 c 0,54,55
 1702 374 1702 374 1695 341 c 0,56,57
 1668 207 1668 207 1558 111 c 0,58,59
 1408 -20 1408 -20 1216 -20 c 0,40,41
1248 98 m 0,60,61
 1321 98 1321 98 1385 165 c 0,62,63
 1457 240 1457 240 1477 343 c 0,64,65
 1485 383 1485 383 1485 416 c 0,66,67
 1485 458 1485 458 1472 487 c 0,68,69
 1449 538 1449 538 1387 538 c 0,70,71
 1314 538 1314 538 1250 471 c 0,72,73
 1178 396 1178 396 1158 293 c 0,74,75
 1150 253 1150 253 1150 220 c 0,76,77
 1150 178 1150 178 1163 149 c 0,78,79
 1186 98 1186 98 1248 98 c 0,60,61
848 1530 m 0,80,81
 1018 1530 1018 1530 1087 1426 c 0,82,83
 1131 1361 1131 1361 1131 1281 c 0,84,85
 1131 1250 1131 1250 1124 1217 c 0,86,87
 1097 1083 1097 1083 987 987 c 0,88,89
 837 856 837 856 645 856 c 0,90,91
 475 856 475 856 406 960 c 0,92,93
 362 1025 362 1025 362 1105 c 0,94,95
 362 1136 362 1136 369 1169 c 0,96,97
 396 1303 396 1303 506 1399 c 0,98,99
 656 1530 656 1530 848 1530 c 0,80,81
677 974 m 0,100,101
 750 974 750 974 814 1041 c 0,102,103
 886 1116 886 1116 906 1219 c 0,104,105
 914 1259 914 1259 914 1292 c 0,106,107
 914 1334 914 1334 901 1363 c 0,108,109
 878 1414 878 1414 816 1414 c 0,110,111
 743 1414 743 1414 679 1347 c 0,112,113
 607 1272 607 1272 587 1169 c 0,114,115
 579 1129 579 1129 579 1096 c 0,116,117
 579 1054 579 1054 592 1025 c 0,118,119
 615 974 615 974 677 974 c 0,100,101
319 0 m 1,120,-1
 1483 1510 l 1,121,-1
 1739 1510 l 1,122,-1
 575 0 l 1,123,-1
 319 0 l 1,120,-1
EndSplineSet
Validated: 1
EndChar

StartChar: minute
Encoding: 8242 8242 169
Width: 408
GlyphClass: 2
Flags: W
HStem: 1170 380
VStem: 269 448
LayerCount: 2
Fore
SplineSet
491 1550 m 1,0,-1
 717 1550 l 1,1,-1
 456 1170 l 1,2,-1
 269 1170 l 1,3,-1
 491 1550 l 1,0,-1
EndSplineSet
Validated: 1
EndChar

StartChar: second
Encoding: 8243 8243 170
Width: 736
GlyphClass: 2
Flags: W
HStem: 1170 380
LayerCount: 2
Fore
SplineSet
819 1550 m 1,0,-1
 1045 1550 l 1,1,-1
 784 1170 l 1,2,-1
 597 1170 l 1,3,-1
 819 1550 l 1,0,-1
491 1550 m 1,4,-1
 717 1550 l 1,5,-1
 456 1170 l 1,6,-1
 269 1170 l 1,7,-1
 491 1550 l 1,4,-1
EndSplineSet
Validated: 1
EndChar

StartChar: guilsinglleft
Encoding: 8249 8249 171
Width: 800
GlyphClass: 2
Flags: W
VStem: 259 649
DStem2: 416 801 259 655 0.677941 -0.735117<0.890308 460.722> 302 855 416 801 0.800951 0.59873<58.9769 623.385>
LayerCount: 2
Fore
SplineSet
302 855 m 1,0,-1
 908 1308 l 1,1,-1
 871 1135 l 1,2,-1
 416 801 l 1,3,-1
 728 462 l 1,4,-1
 674 205 l 1,5,-1
 259 655 l 1,6,-1
 302 855 l 1,0,-1
EndSplineSet
Validated: 1
EndChar

StartChar: guilsinglright
Encoding: 8250 8250 172
Width: 800
GlyphClass: 2
Flags: W
VStem: 214 649
DStem2: 251 378 214 205 0.800951 0.59873<0 564.408> 448 1308 394 1051 0.677941 -0.735117<152.316 612.148>
LayerCount: 2
Fore
SplineSet
820 658 m 1,0,-1
 214 205 l 1,1,-1
 251 378 l 1,2,-1
 706 712 l 1,3,-1
 394 1051 l 1,4,-1
 448 1308 l 1,5,-1
 863 858 l 1,6,-1
 820 658 l 1,0,-1
EndSplineSet
Validated: 1
EndChar

StartChar: fraction
Encoding: 8260 8260 173
Width: 1119
GlyphClass: 2
Flags: W
HStem: 0 21G<10 281.417> 1490 20G<1158.58 1430>
VStem: 10 256<0 256> 1174 256<1254 1510>
DStem2: 10 0 266 0 0.610522 0.792<156.294 1906.57>
LayerCount: 2
Fore
SplineSet
10 0 m 1,0,-1
 1174 1510 l 1,1,-1
 1430 1510 l 1,2,-1
 266 0 l 1,3,-1
 10 0 l 1,0,-1
EndSplineSet
Validated: 1
EndChar

StartChar: Euro
Encoding: 8364 8364 174
Width: 1810
GlyphClass: 2
Flags: W
HStem: -20 170<787.992 1194.24> 520 150<162 295 651 1321> 794 150<221 343 752 1379> 1360 170<1140.42 1538.95>
VStem: 295 339<311.223 520>
LayerCount: 2
Fore
SplineSet
922 -20 m 0,0,1
 549 -20 549 -20 390 196 c 0,2,3
 295 324 295 324 295 520 c 1,4,-1
 131 520 l 1,5,-1
 162 670 l 1,6,-1
 310 670 l 1,7,8
 322 734 322 734 343 794 c 1,9,-1
 189 794 l 1,10,-1
 221 944 l 1,11,-1
 408 944 l 1,12,13
 517 1144 517 1144 729 1302 c 0,14,15
 1036 1530 1036 1530 1416 1530 c 0,16,17
 1784 1530 1784 1530 1961 1295 c 1,18,-1
 1676 1167 l 1,19,20
 1579 1360 1579 1360 1369 1360 c 0,21,22
 1139 1360 1139 1360 962 1203 c 0,23,24
 832 1088 832 1088 752 944 c 1,25,-1
 1411 944 l 1,26,-1
 1379 794 l 1,27,-1
 686 794 l 1,28,29
 665 734 665 734 651 670 c 1,30,-1
 1352 670 l 1,31,-1
 1321 520 l 1,32,-1
 634 520 l 1,33,34
 634 381 634 381 684 298 c 0,35,36
 772 150 772 150 970 150 c 0,37,38
 1199 150 1199 150 1376 307 c 0,39,40
 1481 400 1481 400 1553 511 c 1,41,-1
 1763 344 l 1,42,43
 1694 273 1694 273 1609 208 c 0,44,45
 1311 -20 1311 -20 922 -20 c 0,0,1
EndSplineSet
Validated: 1
EndChar

StartChar: afii61248
Encoding: 8453 8453 175
Width: 2112
GlyphClass: 2
Flags: W
HStem: -20 94<1425.64 1677.93> 0 21G<496 767.417> 667 94<1586.07 1838.36> 749 94<594.966 847.173> 1436 94<755.051 1002.64> 1490 20G<1644.58 1916>
VStem: 347 207<882.152 1204.57> 496 256<0 256> 1178 207<114.013 432.147> 1660 256<1254 1510> 1879 207<308.853 626.987>
DStem2: 496 0 752 0 0.610522 0.792<156.294 1906.57>
LayerCount: 2
Fore
SplineSet
1506 -20 m 0,0,1
 1298 -20 1298 -20 1217 114 c 0,2,3
 1178 177 1178 177 1178 262 c 0,4,5
 1178 289 1178 289 1182 318 c 0,6,7
 1210 528 1210 528 1404 657 c 24,8,9
 1560 761 1560 761 1758 761 c 0,10,11
 1966 761 1966 761 2047 627 c 0,12,13
 2086 564 2086 564 2086 479 c 0,14,15
 2086 452 2086 452 2082 423 c 0,16,17
 2054 213 2054 213 1860 84 c 0,18,19
 1704 -20 1704 -20 1506 -20 c 0,0,1
927 1530 m 0,20,21
 1138 1530 1138 1530 1211 1404 c 1,22,-1
 1041 1329 l 1,23,24
 1003 1436 1003 1436 890 1436 c 0,25,26
 799 1436 799 1436 718 1364 c 0,27,28
 595 1254 595 1254 564 1099 c 0,29,30
 554 1049 554 1049 554 1009 c 0,31,32
 554 952 554 952 574 914 c 0,33,34
 612 843 612 843 711 843 c 0,35,36
 803 843 803 843 884 915 c 0,37,38
 948 972 948 972 987 1042 c 1,39,-1
 1126 933 l 1,40,41
 1084 890 1084 890 1029 853 c 0,42,43
 874 749 874 749 675 749 c 0,44,45
 469 749 469 749 386 883 c 0,46,47
 347 946 347 946 347 1031 c 0,48,49
 347 1058 347 1058 351 1087 c 0,50,51
 379 1297 379 1297 573 1426 c 24,52,53
 729 1530 729 1530 927 1530 c 0,20,21
1542 74 m 0,54,55
 1634 74 1634 74 1715 146 c 0,56,57
 1836 254 1836 254 1869 411 c 0,58,59
 1879 461 1879 461 1879 501 c 0,60,61
 1879 558 1879 558 1859 596 c 0,62,63
 1821 667 1821 667 1722 667 c 0,64,65
 1630 667 1630 667 1549 595 c 0,66,67
 1428 487 1428 487 1395 330 c 0,68,69
 1385 280 1385 280 1385 240 c 0,70,71
 1385 183 1385 183 1405 145 c 0,72,73
 1443 74 1443 74 1542 74 c 0,54,55
496 0 m 1,74,-1
 1660 1510 l 1,75,-1
 1916 1510 l 1,76,-1
 752 0 l 1,77,-1
 496 0 l 1,74,-1
EndSplineSet
Validated: 1
EndChar

StartChar: afii61289
Encoding: 8467 8467 176
Width: 1117
GlyphClass: 2
Flags: W
HStem: -20 236<542 712.313> 0 21G<20 400.364> 1510 20G<1039.5 1137>
LayerCount: 2
Fore
SplineSet
596 -20 m 0,0,1
 488 -20 488 -20 420 44 c 1,2,-1
 384 0 l 1,3,-1
 20 0 l 1,4,5
 216 162 216 162 354 325 c 1,6,7
 363 420 363 420 385 524 c 0,8,9
 419 686 419 686 505 865 c 0,10,11
 683 1240 683 1240 873 1423 c 0,12,13
 984 1530 984 1530 1095 1530 c 0,14,15
 1179 1530 1179 1530 1219 1480 c 0,16,17
 1251 1439 1251 1439 1251 1371 c 0,18,19
 1251 1331 1251 1331 1240 1281 c 0,20,21
 1220 1186 1220 1186 1160 1041 c 0,22,23
 1015 688 1015 688 644 272 c 1,24,25
 644 216 644 216 665 216 c 0,26,27
 678 216 678 216 714 261 c 0,28,29
 725 275 725 275 749 319 c 1,30,-1
 1065 319 l 1,31,32
 935 144 935 144 820.5 62 c 128,-1,33
 706 -20 706 -20 596 -20 c 0,0,1
EndSplineSet
Validated: 1
EndChar

StartChar: trademark
Encoding: 8482 8482 177
Width: 2043
VWidth: 1401
GlyphClass: 2
Flags: W
HStem: 1425 95<343 553 753 983 1299.01 1554.76 1770.56 2012.26>
VStem: 410 200<755 955> 891 200<755 955> 1362 200<755 955> 1833 200<755 955> 1955.5 201.5<1240.53 1391.53>
DStem2: 410 755 610 755 0.207912 0.978148<41.5823 685.09> 891 755 1091 755 0.207912 0.978148<41.5823 657.987 726.673 782.173> 1362 755 1562 755 0.207912 0.978148<41.5823 609.592> 1833 755 2033 755 0.207912 0.978148<41.5823 646.782>
LayerCount: 2
Fore
SplineSet
1054 1520 m 1,0,-1
 1254 1520 l 1,1,-1
 1234 1425 l 1,2,3
 1344 1530 1344 1530 1488 1530 c 0,4,5
 1633 1530 1633 1530 1661 1399 c 1,6,7
 1786 1530 1786 1530 1960 1530 c 0,8,9
 2076 1530 2076 1530 2127 1460 c 0,10,11
 2157 1420 2157 1420 2157 1363 c 0,12,13
 2157 1336 2157 1336 2150 1304 c 2,14,-1
 2033 755 l 1,15,-1
 1833 755 l 1,16,-1
 1949 1300 l 2,17,18
 1955 1331 1955 1331 1955.5 1354 c 128,-1,19
 1956 1377 1956 1377 1949 1392 c 0,20,21
 1934 1425 1934 1425 1890 1425 c 0,22,23
 1822 1425 1822 1425 1756 1370 c 0,24,25
 1679 1306 1679 1306 1655 1192 c 2,26,-1
 1562 755 l 1,27,-1
 1362 755 l 1,28,-1
 1478 1300 l 2,29,30
 1484 1330 1484 1330 1484 1353 c 0,31,32
 1484 1377 1484 1377 1477 1393 c 0,33,34
 1462 1425 1462 1425 1419 1425 c 0,35,36
 1351 1425 1351 1425 1285 1370 c 0,37,38
 1208 1306 1208 1306 1184 1192 c 2,39,-1
 1091 755 l 1,40,-1
 891 755 l 1,41,-1
 1054 1520 l 1,0,-1
343 1520 m 1,42,-1
 1003 1520 l 1,43,-1
 983 1425 l 1,44,-1
 753 1425 l 1,45,-1
 610 755 l 1,46,-1
 410 755 l 1,47,-1
 553 1425 l 1,48,-1
 323 1425 l 1,49,-1
 343 1520 l 1,42,-1
EndSplineSet
Validated: 1
EndChar

StartChar: uni2126
Encoding: 8486 8486 178
Width: 1921
GlyphClass: 2
Flags: W
HStem: 0 170<56 419 720.896 773 991 1178.5 1471 1708> 1360 170<1095.17 1503.11>
VStem: 249 336<333.101 763.432> 1658 339<744.808 1200.28>
LayerCount: 2
Fore
SplineSet
20 0 m 1,0,-1
 56 170 l 1,1,-1
 419 170 l 1,2,3
 249 317 249 317 249 537 c 0,4,5
 249 592 249 592 260 651 c 0,6,7
 329 1030 329 1030 687 1299 c 0,8,9
 996 1530 996 1530 1369 1530 c 128,-1,10
 1742 1530 1742 1530 1901 1314 c 0,11,12
 1997 1184 1997 1184 1997 1000 c 0,13,14
 1997 933 1997 933 1984 859 c 0,15,16
 1916 455 1916 455 1560 224 c 24,17,18
 1506 189 1506 189 1471 170 c 1,19,-1
 1744 170 l 1,20,-1
 1708 0 l 1,21,-1
 955 0 l 1,22,-1
 991 170 l 1,23,24
 1197 189 1197 189 1329 307 c 24,25,26
 1573 524 1573 524 1639 836 c 0,27,28
 1658 926 1658 926 1658 1002 c 0,29,30
 1658 1126 1658 1126 1607 1212 c 0,31,32
 1519 1360 1519 1360 1322 1360 c 0,33,34
 1091 1360 1091 1360 915 1203 c 0,35,36
 672 987 672 987 605 674 c 0,37,38
 585 582 585 582 585 506 c 0,39,40
 585 376 585 376 643 292 c 8,41,42
 700 208 700 208 809 170 c 1,43,-1
 773 0 l 1,44,-1
 20 0 l 1,0,-1
EndSplineSet
Validated: 1
EndChar

StartChar: estimated
Encoding: 8494 8494 179
Width: 1261
GlyphClass: 2
Flags: W
HStem: -20 183<494.071 854.178> 491 189<548 1000> 935 185<639.618 998.502>
LayerCount: 2
Fore
SplineSet
625 -20 m 0,0,1
 374 -20 374 -20 255 145 c 0,2,3
 172 260 172 260 172 412 c 0,4,5
 172 479 172 479 188 553 c 0,6,7
 241 802 241 802 430 960 c 0,8,9
 622 1120 622 1120 864 1120 c 0,10,11
 1107 1120 1107 1120 1224 974 c 0,12,13
 1316 858 1316 858 1316 679 c 0,14,15
 1316 593 1316 593 1295 491 c 1,16,-1
 507 491 l 1,17,-1
 454 239 l 1,18,19
 533 163 533 163 664 163 c 0,20,21
 872 163 872 163 1030 351 c 1,22,-1
 1173 255 l 1,23,24
 1013 85 1013 85 883 32.5 c 128,-1,25
 753 -20 753 -20 625 -20 c 0,0,1
1000 680 m 1,26,-1
 1038 862 l 1,27,28
 956 935 956 935 826 935 c 0,29,30
 694 935 694 935 586 861 c 1,31,-1
 548 680 l 1,32,-1
 1000 680 l 1,26,-1
EndSplineSet
Validated: 1
EndChar

StartChar: partialdiff
Encoding: 8706 8706 180
Width: 1345
GlyphClass: 2
Flags: W
HStem: -20 273<528.665 740.3> 823 260<752.537 996.05> 1271 259<792.703 1086.02>
VStem: 196 314<295.91 525.949> 1137 309<1004.08 1223.15>
LayerCount: 2
Fore
SplineSet
538 -20 m 0,0,1
 300 -20 300 -20 222 173 c 0,2,3
 196 239 196 239 196 313 c 0,4,5
 196 363 196 363 208 416 c 0,6,7
 263 673 263 673 460.5 878 c 128,-1,8
 658 1083 658 1083 930 1083 c 0,9,10
 1043 1083 1043 1083 1130 1003 c 1,11,12
 1137 1051 1137 1051 1137 1089 c 0,13,14
 1137 1140 1137 1140 1124 1173 c 0,15,16
 1084 1271 1084 1271 964 1271 c 0,17,18
 800 1271 800 1271 631 1132 c 1,19,-1
 697 1443 l 1,20,21
 861 1530 861 1530 1058 1530 c 0,22,23
 1328 1530 1328 1530 1413 1314 c 0,24,25
 1446 1229 1446 1229 1446 1123 c 0,26,27
 1446 1042 1446 1042 1427 950 c 0,28,29
 1346 568 1346 568 1100 272 c 0,30,31
 858 -20 858 -20 538 -20 c 0,0,1
1038 699 m 1,32,33
 1029 756 1029 756 992 788 c 0,34,35
 952 823 952 823 885 823 c 0,36,37
 776 823 776 823 670 706 c 0,38,39
 545 567 545 567 517 431 c 0,40,41
 510 396 510 396 510 367 c 0,42,43
 510 324 510 324 526 295 c 0,44,45
 549 253 549 253 609 253 c 0,46,47
 716 253 716 253 837 376 c 128,-1,48
 958 499 958 499 1038 699 c 1,32,33
EndSplineSet
Validated: 1
EndChar

StartChar: uni2206
Encoding: 8710 8710 181
Width: 1682
GlyphClass: 2
Flags: W
HStem: 0 170<325 1310> 1490 20G<988.795 1326.7>
DStem2: 5 0 325 170 0.550996 0.834508<318.185 1639.5> 1322 1510 1051 1274 0.22886 -0.973459<167.715 1301.69>
LayerCount: 2
Fore
SplineSet
5 0 m 1,0,-1
 1002 1510 l 1,1,-1
 1322 1510 l 1,2,-1
 1677 0 l 1,3,-1
 5 0 l 1,0,-1
325 170 m 1,4,-1
 1310 170 l 1,5,-1
 1051 1274 l 1,6,-1
 325 170 l 1,4,-1
EndSplineSet
Validated: 1
EndChar

StartChar: product
Encoding: 8719 8719 182
Width: 1516
GlyphClass: 2
Flags: W
HStem: -410 21G<83 407.251 939 1263.25> 1340 170<775 1311>
VStem: 83 320<-410 -90> 491 1176<334 1510> 939 320<-410 -90>
DStem2: 83 -410 403 -410 0.207912 0.978148<66.5317 1855.63> 939 -410 1259 -410 0.207912 0.978148<66.5317 1789.1>
LayerCount: 2
Fore
SplineSet
83 -410 m 1,0,-1
 491 1510 l 1,1,-1
 1667 1510 l 1,2,-1
 1259 -410 l 1,3,-1
 939 -410 l 1,4,-1
 1311 1340 l 1,5,-1
 775 1340 l 1,6,-1
 403 -410 l 1,7,-1
 83 -410 l 1,0,-1
EndSplineSet
Validated: 1
EndChar

StartChar: summation
Encoding: 8721 8721 183
Width: 1490
GlyphClass: 2
Flags: W
HStem: -410 170<535 1283> 1340 170<844 1564>
DStem2: 36 -410 535 -240 0.634689 0.772767<448.08 1274.64> 844 1340 441 1510 0.396643 -0.917973<0 702.646>
LayerCount: 2
Fore
SplineSet
36 -410 m 1,0,-1
 845 575 l 1,1,-1
 441 1510 l 1,2,-1
 1600 1510 l 1,3,-1
 1564 1340 l 1,4,-1
 844 1340 l 1,5,-1
 1185 545 l 1,6,-1
 535 -240 l 1,7,-1
 1319 -240 l 1,8,-1
 1283 -410 l 1,9,-1
 36 -410 l 1,0,-1
EndSplineSet
Validated: 1
EndChar

StartChar: minus
Encoding: 8722 8722 184
Width: 1240
GlyphClass: 2
Flags: W
HStem: 655 200<302 1259>
LayerCount: 2
Fore
SplineSet
302 855 m 1,0,-1
 1302 855 l 1,1,-1
 1259 655 l 1,2,-1
 259 655 l 1,3,-1
 302 855 l 1,0,-1
EndSplineSet
Validated: 1
EndChar

StartChar: uni2215
Encoding: 8725 8725 185
Width: 1119
GlyphClass: 2
Flags: W
HStem: 0 21G<10 281.417> 1490 20G<1158.58 1430>
VStem: 10 256<0 256> 1174 256<1254 1510>
DStem2: 10 0 266 0 0.610522 0.792<156.294 1906.57>
LayerCount: 2
Fore
SplineSet
10 0 m 1,0,-1
 1174 1510 l 1,1,-1
 1430 1510 l 1,2,-1
 266 0 l 1,3,-1
 10 0 l 1,0,-1
EndSplineSet
Validated: 1
EndChar

StartChar: uni2219
Encoding: 8729 8729 186
Width: 404
GlyphClass: 2
Flags: W
HStem: 570 370<273.695 452.234>
VStem: 177 372<666 844.217>
LayerCount: 2
Fore
SplineSet
402 940 m 128,-1,1
 478 940 478 940 520 886 c 0,2,3
 549 848 549 848 549 796 c 0,4,5
 549 776 549 776 545 755 c 0,6,7
 529 678 529 678 464.5 624 c 128,-1,8
 400 570 400 570 324 570 c 0,9,10
 246 570 246 570 206 624 c 0,11,12
 177 663 177 663 177 714 c 0,13,14
 177 734 177 734 181 755 c 0,15,16
 197 832 197 832 261.5 886 c 128,-1,0
 326 940 326 940 402 940 c 128,-1,1
EndSplineSet
Validated: 1
EndChar

StartChar: radical
Encoding: 8730 8730 187
Width: 1681
GlyphClass: 2
Flags: W
HStem: 0 21G<512.296 850.209> 676 171<200 358> 1340 170<1722 1946>
DStem2: 638 847 358 676 0.228959 -0.973436<102.349 627.511> 781 236 837 0 0.551102 0.834438<0 1439.81>
LayerCount: 2
Fore
SplineSet
517 0 m 1,0,-1
 358 676 l 1,1,-1
 164 676 l 1,2,-1
 200 847 l 1,3,-1
 638 847 l 1,4,-1
 781 236 l 1,5,-1
 1619 1510 l 1,6,-1
 1982 1510 l 1,7,-1
 1946 1340 l 1,8,-1
 1722 1340 l 1,9,-1
 837 0 l 1,10,-1
 517 0 l 1,0,-1
EndSplineSet
Validated: 1
EndChar

StartChar: infinity
Encoding: 8734 8734 188
Width: 1511
GlyphClass: 2
Flags: W
HStem: 417 118<503.106 695.983 1027.96 1221.14> 975 116<609.863 803.044 1135.02 1327.89>
VStem: 268 217<568.532 832.069> 820 191<678.465 831.535> 1346 217<678.788 941.533>
CounterMasks: 1 38
LayerCount: 2
Fore
SplineSet
583 535 m 0,0,1
 656 535 656 535 720 602 c 0,2,3
 792 677 792 677 812 780 c 0,4,5
 820 820 820 820 820 853 c 0,6,7
 820 895 820 895 807 924 c 0,8,9
 784 975 784 975 722 975 c 0,10,11
 649 975 649 975 585 908 c 0,12,13
 513 833 513 833 493 730 c 0,14,15
 485 690 485 690 485 657 c 0,16,17
 485 615 485 615 498 586 c 0,18,19
 521 535 521 535 583 535 c 0,0,1
1109 535 m 0,20,21
 1182 535 1182 535 1246 602 c 0,22,23
 1318 677 1318 677 1338 780 c 0,24,25
 1346 820 1346 820 1346 853 c 0,26,27
 1346 895 1346 895 1333 924 c 0,28,29
 1310 975 1310 975 1248 975 c 0,30,31
 1175 975 1175 975 1111 908 c 0,32,33
 1039 833 1039 833 1019 730 c 0,34,35
 1011 690 1011 690 1011 657 c 0,36,37
 1011 615 1011 615 1024 586 c 0,38,39
 1047 535 1047 535 1109 535 c 0,20,21
1280 1091 m 0,40,41
 1450 1091 1450 1091 1519 987 c 0,42,43
 1563 922 1563 922 1563 842 c 0,44,45
 1563 811 1563 811 1556 778 c 0,46,47
 1529 644 1529 644 1419 548 c 0,48,49
 1269 417 1269 417 1077 417 c 0,50,51
 916 417 916 417 845 510 c 1,52,53
 713 417 713 417 551 417 c 0,54,55
 381 417 381 417 312 521 c 0,56,57
 268 586 268 586 268 666 c 0,58,59
 268 697 268 697 275 730 c 0,60,61
 302 864 302 864 412 960 c 0,62,63
 562 1091 562 1091 754 1091 c 0,64,65
 915 1091 915 1091 986 998 c 1,66,67
 1118 1091 1118 1091 1280 1091 c 0,40,41
EndSplineSet
Validated: 1
EndChar

StartChar: approxequal
Encoding: 8776 8776 189
Width: 1242
GlyphClass: 2
Flags: W
HStem: 346 195<854.69 1053.08> 547 195<421.259 618.208> 746 195<939.69 1138.08> 947 195<506.259 703.208> 1088 20G<1194 1280.14>
DStem2: 735 679 607 512 0.787376 -0.616473<-87.6109 257.97> 820 1079 692 912 0.787376 -0.616473<-87.6109 257.97>
LayerCount: 2
Fore
SplineSet
1152 708 m 1,0,-1
 1262 657 l 1,1,2
 1113 346 1113 346 904 346 c 0,3,4
 817 346 817 346 735 411 c 2,5,-1
 607 512 l 2,6,7
 563 547 563 547 519 547 c 0,8,9
 415 547 415 547 322 380 c 1,10,-1
 212 431 l 1,11,12
 361 742 361 742 570 742 c 0,13,14
 655 742 655 742 735 679 c 2,15,-1
 864 578 l 2,16,17
 911 541 911 541 956 541 c 0,18,19
 1066 541 1066 541 1152 708 c 1,0,-1
1237 1108 m 1,20,-1
 1347 1057 l 1,21,22
 1198 746 1198 746 989 746 c 0,23,24
 902 746 902 746 820 811 c 2,25,-1
 692 912 l 2,26,27
 648 947 648 947 604 947 c 0,28,29
 500 947 500 947 407 780 c 1,30,-1
 297 831 l 1,31,32
 446 1142 446 1142 655 1142 c 0,33,34
 740 1142 740 1142 820 1079 c 2,35,-1
 949 978 l 2,36,37
 996 941 996 941 1041 941 c 0,38,39
 1151 941 1151 941 1237 1108 c 1,20,-1
EndSplineSet
Validated: 1
EndChar

StartChar: notequal
Encoding: 8800 8800 190
Width: 1240
GlyphClass: 2
Flags: W
HStem: 430 200<254 437 768 1211> 879 200<349 792 1123 1307>
DStem2: 265 212 379 137 0.61982 0.784744<11.8036 277.683 639.792 850.069 1212.18 1479.46>
LayerCount: 2
Fore
SplineSet
1182 1373 m 1,0,-1
 1296 1298 l 1,1,-1
 1123 1079 l 1,2,-1
 1349 1079 l 1,3,-1
 1307 879 l 1,4,-1
 965 879 l 1,5,-1
 768 630 l 1,6,-1
 1254 630 l 1,7,-1
 1211 430 l 1,8,-1
 610 430 l 1,9,-1
 379 137 l 1,10,-1
 265 212 l 1,11,-1
 437 430 l 1,12,-1
 211 430 l 1,13,-1
 254 630 l 1,14,-1
 595 630 l 1,15,-1
 792 879 l 1,16,-1
 307 879 l 1,17,-1
 349 1079 l 1,18,-1
 949 1079 l 1,19,-1
 1182 1373 l 1,0,-1
EndSplineSet
Validated: 1
EndChar

StartChar: lessequal
Encoding: 8804 8804 191
Width: 1316
GlyphClass: 2
Flags: W
HStem: 100 200<234 1167>
DStem2: 539 935 340 801 0.870265 -0.492584<0 824.987> 383 1001 539 935 0.910655 0.413168<114.793 1094.84>
LayerCount: 2
Fore
SplineSet
383 1001 m 1,0,-1
 1463 1491 l 1,1,-1
 1431 1341 l 1,2,-1
 539 935 l 1,3,-1
 1260 534 l 1,4,-1
 1211 308 l 1,5,-1
 340 801 l 1,6,-1
 383 1001 l 1,0,-1
234 300 m 1,7,-1
 1210 300 l 1,8,-1
 1167 100 l 1,9,-1
 191 100 l 1,10,-1
 234 300 l 1,7,-1
EndSplineSet
Validated: 1
EndChar

StartChar: greaterequal
Encoding: 8805 8805 192
Width: 1316
GlyphClass: 2
Flags: W
HStem: 100 200<234 1167>
DStem2: 267 458 235 308 0.910655 0.413168<0 980.05> 487 1491 438 1265 0.870265 -0.492584<68.681 893.668>
LayerCount: 2
Fore
SplineSet
1315 798 m 1,0,-1
 235 308 l 1,1,-1
 267 458 l 1,2,-1
 1159 864 l 1,3,-1
 438 1265 l 1,4,-1
 487 1491 l 1,5,-1
 1358 998 l 1,6,-1
 1315 798 l 1,0,-1
234 300 m 1,7,-1
 1210 300 l 1,8,-1
 1167 100 l 1,9,-1
 191 100 l 1,10,-1
 234 300 l 1,7,-1
EndSplineSet
Validated: 1
EndChar

StartChar: lozenge
Encoding: 9674 9674 193
Width: 1198
GlyphClass: 2
Flags: W
HStem: -20 21G<585.29 613.16> 1510 20G<906.399 933.176>
DStem2: 227 738 511 804 0.660649 0.750695<237.17 656.639> 511 804 227 738 0.436739 -0.899588<0 494.19> 728 360 595 -20 0.672237 0.740336<0 412.285> 924 1530 788 1119 0.417012 -0.908901<316.845 814.674>
LayerCount: 2
Fore
SplineSet
728 360 m 1,0,-1
 1001 669 l 1,1,-1
 788 1119 l 1,2,-1
 511 804 l 1,3,-1
 728 360 l 1,0,-1
595 -20 m 1,4,-1
 227 738 l 1,5,-1
 924 1530 l 1,6,-1
 1286 741 l 1,7,-1
 595 -20 l 1,4,-1
EndSplineSet
Validated: 1
EndChar

StartChar: uni1E02
Encoding: 7682 7682 194
Width: 1558
Flags: W
HStem: -20 138<663.307 990.337> 0 21G<170 494.245> 1346 184<1058.73 1352> 1490 20G<486.748 811> 1570 370<1127.69 1306.23>
VStem: 170 320<0 320> 1268 335<394.47 681.522> 1297 317<1057.18 1303.69>
DStem2: 165.749 -20 485.749 -20 0.207912 0.978148<86.9786 1203.09 1381.24 1564.19>
LayerCount: 2
Fore
SplineSet
1256 1940 m 128,-1,1
 1332 1940 1332 1940 1374 1886 c 0,2,3
 1403 1848 1403 1848 1403 1796 c 0,4,5
 1403 1776 1403 1776 1399 1755 c 0,6,7
 1383 1678 1383 1678 1318.5 1624 c 128,-1,8
 1254 1570 1254 1570 1178 1570 c 0,9,10
 1100 1570 1100 1570 1060 1624 c 0,11,12
 1031 1663 1031 1663 1031 1714 c 0,13,14
 1031 1734 1031 1734 1035 1755 c 0,15,16
 1051 1832 1051 1832 1115.5 1886 c 128,-1,0
 1180 1940 1180 1940 1256 1940 c 128,-1,1
170 0 m 1,17,-1
 491 1510 l 1,18,-1
 811 1510 l 1,19,-1
 759 1266 l 1,20,21
 1008 1530 1008 1530 1269 1530 c 0,22,23
 1435 1530 1435 1530 1524 1441 c 0,24,25
 1614 1351 1614 1351 1614 1225 c 0,26,27
 1614 987 1614 987 1321 861 c 1,28,29
 1451 840 1451 840 1524 770 c 0,30,31
 1603 694 1603 694 1603 580 c 0,32,33
 1603 543 1603 543 1595 503 c 0,34,35
 1561 336 1561 336 1417 200 c 0,36,37
 1185 -20 1185 -20 831 -20 c 0,38,39
 724 -20 724 -20 651 32 c 0,40,41
 594 73 594 73 564 139 c 1,42,-1
 572 146 l 1,43,44
 666 118 666 118 752 118 c 0,45,46
 969 118 969 118 1102 229 c 0,47,48
 1227 334 1227 334 1261 493 c 0,49,50
 1268 526 1268 526 1268 556 c 0,51,52
 1268 626 1268 626 1229 676 c 0,53,54
 1173 749 1173 749 1051 749 c 0,55,56
 947 749 947 749 842 729 c 1,57,-1
 844 739 l 1,58,59
 956 780 956 780 1058 852 c 0,60,61
 1256 992 1256 992 1292 1161 c 0,62,63
 1297 1186 1297 1186 1297 1209 c 0,64,65
 1297 1260 1297 1260 1272 1294 c 0,66,67
 1234 1346 1234 1346 1151 1346 c 0,68,69
 1022 1346 1022 1346 895 1231 c 0,70,71
 717 1071 717 1071 674 867 c 2,72,-1
 490 0 l 1,73,-1
 170 0 l 1,17,-1
EndSplineSet
Validated: 1
EndChar

StartChar: uni1E03
Encoding: 7683 7683 195
Width: 1385
Flags: W
HStem: -20 150<565.619 822.427> 954 99<746.832 880.213> 983 137<833.445 1052.45> 1160 370<966.695 1145.23> 1490 20G<486.749 791>
VStem: 241 297<155.154 519.18> 491 300<1210 1510> 1135 323<504.292 896.286>
DStem2: 165.789 -20 465.726 -20 0.207912 0.978148<361.638 1564.18>
LayerCount: 2
Fore
SplineSet
1095 1530 m 128,-1,1
 1171 1530 1171 1530 1213 1476 c 0,2,3
 1242 1438 1242 1438 1242 1386 c 0,4,5
 1242 1366 1242 1366 1238 1345 c 0,6,7
 1222 1268 1222 1268 1157.5 1214 c 128,-1,8
 1093 1160 1093 1160 1017 1160 c 0,9,10
 939 1160 939 1160 899 1214 c 0,11,12
 870 1253 870 1253 870 1304 c 0,13,14
 870 1324 870 1324 874 1345 c 0,15,16
 890 1422 890 1422 954.5 1476 c 128,-1,0
 1019 1530 1019 1530 1095 1530 c 128,-1,1
614 -20 m 0,17,18
 399 -20 399 -20 306 90 c 0,19,20
 241 166 241 166 241 283 c 0,21,22
 241 334 241 334 254 395 c 2,23,-1
 491 1510 l 1,24,-1
 791 1510 l 1,25,-1
 555 400 l 2,26,27
 538 320 538 320 538 269 c 0,28,29
 538 227 538 227 549 200 c 0,30,31
 577 130 577 130 664 130 c 0,32,33
 796 130 796 130 922 248 c 0,34,35
 1077 395 1077 395 1118 586 c 0,36,37
 1135 665 1135 665 1135 729 c 0,38,39
 1135 819 1135 819 1101 880 c 0,40,41
 1044 983 1044 983 906 983 c 0,42,43
 804 983 804 983 713 954 c 1,44,-1
 707 961 l 1,45,46
 744 1013 744 1013 798 1053 c 0,47,48
 887 1120 887 1120 1016 1120 c 0,49,50
 1255 1120 1255 1120 1382 955 c 0,51,52
 1458 857 1458 857 1458 724 c 0,53,54
 1458 674 1458 674 1447 620 c 0,55,56
 1394 345 1394 345 1153 161 c 0,57,58
 915 -20 915 -20 614 -20 c 0,17,18
EndSplineSet
Validated: 1
EndChar

StartChar: uni1E0A
Encoding: 7690 7690 196
Width: 1796
Flags: W
HStem: -20 138<674.307 1015.77> 0 21G<170 494.24> 1360 170<1067.62 1429.28> 1490 20G<486.748 811> 1570 370<1222.69 1401.23>
VStem: 170 320<0 320> 1582 339<739.256 1199.71>
DStem2: 165.749 -20 485.749 -20 0.207912 0.978148<86.9786 1204.07 1381.24 1564.19>
LayerCount: 2
Fore
SplineSet
1351 1940 m 128,-1,1
 1427 1940 1427 1940 1469 1886 c 0,2,3
 1498 1848 1498 1848 1498 1796 c 0,4,5
 1498 1776 1498 1776 1494 1755 c 0,6,7
 1478 1678 1478 1678 1413.5 1624 c 128,-1,8
 1349 1570 1349 1570 1273 1570 c 0,9,10
 1195 1570 1195 1570 1155 1624 c 0,11,12
 1126 1663 1126 1663 1126 1714 c 0,13,14
 1126 1734 1126 1734 1130 1755 c 0,15,16
 1146 1832 1146 1832 1210.5 1886 c 128,-1,0
 1275 1940 1275 1940 1351 1940 c 128,-1,1
170 0 m 1,17,-1
 491 1510 l 1,18,-1
 811 1510 l 1,19,-1
 759 1266 l 1,20,21
 989 1530 989 1530 1325 1530 c 0,22,23
 1667 1530 1667 1530 1826 1314 c 0,24,25
 1921 1185 1921 1185 1921 991 c 0,26,27
 1921 936 1921 936 1909 859 c 0,28,29
 1848 468 1848 468 1487 208 c 0,30,31
 1170 -20 1170 -20 842 -20 c 0,32,33
 735 -20 735 -20 662 32 c 0,34,35
 605 73 605 73 575 139 c 1,36,-1
 583 146 l 1,37,38
 677 118 677 118 763 118 c 0,39,40
 1039 118 1039 118 1254 306 c 0,41,42
 1496 518 1496 518 1563 835 c 0,43,44
 1582 924 1582 924 1582 995 c 0,45,46
 1582 1125 1582 1125 1532 1212 c 0,47,48
 1447 1360 1447 1360 1246 1360 c 0,49,50
 1060 1360 1060 1360 897 1225 c 0,51,52
 718 1076 718 1076 674 868 c 2,53,-1
 490 0 l 1,54,-1
 170 0 l 1,17,-1
EndSplineSet
Validated: 1
EndChar

StartChar: uni1E0B
Encoding: 7691 7691 197
Width: 1451
Flags: W
HStem: -20 158<543.369 816.191> 0 21G<981 1285.25> 983 137<815.518 1093.82> 1160 370<852.695 1031.23> 1490 20G<1297.75 1602>
VStem: 160 322<201.45 599.509> 1302 300<1210 1510>
DStem2: 976.749 -20 1276.75 -20 0.207912 0.978148<82.8203 203.436 369.365 1564.19>
LayerCount: 2
Fore
SplineSet
981 1530 m 128,-1,1
 1057 1530 1057 1530 1099 1476 c 0,2,3
 1128 1438 1128 1438 1128 1386 c 0,4,5
 1128 1366 1128 1366 1124 1345 c 0,6,7
 1108 1268 1108 1268 1043.5 1214 c 128,-1,8
 979 1160 979 1160 903 1160 c 0,9,10
 825 1160 825 1160 785 1214 c 0,11,12
 756 1253 756 1253 756 1304 c 0,13,14
 756 1324 756 1324 760 1345 c 0,15,16
 776 1422 776 1422 840.5 1476 c 128,-1,0
 905 1530 905 1530 981 1530 c 128,-1,1
1281 0 m 1,17,-1
 981 0 l 1,18,-1
 1019 179 l 1,19,20
 845 -20 845 -20 603 -20 c 128,-1,21
 361 -20 361 -20 237 143 c 0,22,23
 160 244 160 244 160 375 c 0,24,25
 160 418 160 418 166 457 c 0,26,27
 209 739 209 739 466 939 c 0,28,29
 700 1120 700 1120 948 1120 c 0,30,31
 1054 1120 1054 1120 1105 1065 c 0,32,33
 1137 1031 1137 1031 1154 971 c 1,34,-1
 1146 964 l 1,35,36
 1075 983 1075 983 1000 983 c 0,37,38
 830 983 830 983 691 852 c 0,39,40
 542 711 542 711 498 505 c 0,41,42
 482 429 482 429 482 368 c 0,43,44
 482 289 482 289 508 233 c 0,45,46
 551 138 551 138 671 138 c 0,47,48
 782 138 782 138 887 220 c 0,49,50
 1056 353 1056 353 1100 559 c 2,51,-1
 1302 1510 l 1,52,-1
 1602 1510 l 1,53,-1
 1281 0 l 1,17,-1
EndSplineSet
Validated: 1
EndChar

StartChar: uni1E1E
Encoding: 7710 7710 198
Width: 1420
Flags: W
HStem: 0 21G<170 494.239> 670 170<669 1202> 1346 184<1064.39 1326.25> 1490 20G<486.748 811> 1570 370<1122.69 1301.23>
VStem: 170 320<0 320>
DStem2: 170 0 490 0 0.207912 0.978148<66.5317 751.414 925.392 1203.98 1360.79 1543.74>
LayerCount: 2
Fore
SplineSet
1251 1940 m 128,-1,1
 1327 1940 1327 1940 1369 1886 c 0,2,3
 1398 1848 1398 1848 1398 1796 c 0,4,5
 1398 1776 1398 1776 1394 1755 c 0,6,7
 1378 1678 1378 1678 1313.5 1624 c 128,-1,8
 1249 1570 1249 1570 1173 1570 c 0,9,10
 1095 1570 1095 1570 1055 1624 c 0,11,12
 1026 1663 1026 1663 1026 1714 c 0,13,14
 1026 1734 1026 1734 1030 1755 c 0,15,16
 1046 1832 1046 1832 1110.5 1886 c 128,-1,0
 1175 1940 1175 1940 1251 1940 c 128,-1,1
170 0 m 1,17,-1
 491 1510 l 1,18,-1
 811 1510 l 1,19,-1
 759 1266 l 1,20,21
 989 1530 989 1530 1309 1530 c 0,22,23
 1544 1530 1544 1530 1640 1391 c 0,24,25
 1676 1339 1676 1339 1689 1288 c 1,26,-1
 1379 1130 l 1,27,28
 1381 1148 1381 1148 1381 1164 c 0,29,30
 1381 1232 1381 1232 1351 1276 c 0,31,32
 1303 1346 1303 1346 1193 1346 c 0,33,34
 1000 1346 1000 1346 846 1196 c 0,35,36
 713 1067 713 1067 674 866 c 2,37,-1
 669 840 l 1,38,-1
 1239 840 l 1,39,-1
 1202 670 l 1,40,-1
 632 670 l 1,41,-1
 490 0 l 1,42,-1
 170 0 l 1,17,-1
EndSplineSet
Validated: 1
EndChar

StartChar: uni1E1F
Encoding: 7711 7711 199
Width: 1191
Flags: W
HStem: 0 21G<170 474.265> 680 150<246 315 646 1087> 1380 150<973.822 1275.09> 1570 370<913.695 1092.23>
VStem: 170 300<0 300>
DStem2: 170 0 470 0 0.207912 0.978148<62.3735 695.288 910.828 1150.73>
LayerCount: 2
Fore
SplineSet
1042 1940 m 128,-1,1
 1118 1940 1118 1940 1160 1886 c 0,2,3
 1189 1848 1189 1848 1189 1796 c 0,4,5
 1189 1776 1189 1776 1185 1755 c 0,6,7
 1169 1678 1169 1678 1104.5 1624 c 128,-1,8
 1040 1570 1040 1570 964 1570 c 0,9,10
 886 1570 886 1570 846 1624 c 0,11,12
 817 1663 817 1663 817 1714 c 0,13,14
 817 1734 817 1734 821 1755 c 0,15,16
 837 1832 837 1832 901.5 1886 c 128,-1,0
 966 1940 966 1940 1042 1940 c 128,-1,1
170 0 m 1,17,-1
 315 680 l 1,18,-1
 215 680 l 1,19,-1
 246 830 l 1,20,-1
 346 830 l 1,21,22
 413 1160 413 1160 653 1349 c 0,23,24
 884 1530 884 1530 1180 1530 c 0,25,26
 1363 1530 1363 1530 1495 1455 c 1,27,-1
 1322 1274 l 1,28,29
 1271 1380 1271 1380 1152 1380 c 0,30,31
 962 1380 962 1380 812 1205 c 0,32,33
 698 1071 698 1071 646 830 c 1,34,-1
 1118 830 l 1,35,-1
 1087 680 l 1,36,-1
 615 680 l 1,37,-1
 470 0 l 1,38,-1
 170 0 l 1,17,-1
EndSplineSet
Validated: 1
EndChar

StartChar: uni1E40
Encoding: 7744 7744 200
Width: 2542
Flags: W
HStem: 0 21G<170 494.249 1111 1435.25 2052 2376.24> 1346 184<1054.47 1306.63 1973.76 2253.87> 1490 20G<486.748 811> 1570 370<1550.69 1729.23>
VStem: 170 320<0 320> 1111 320<0 320> 2052 320<0 320> 2294 321<1024.75 1305.79>
DStem2: 170 0 490 0 0.207912 0.978148<66.5317 1192.65 1360.79 1543.74> 1111 0 1431 0 0.207912 0.978148<66.5317 1191.11> 2052 0 2372 0 0.207912 0.978148<66.5317 1208.07>
LayerCount: 2
Fore
SplineSet
1679 1940 m 128,-1,1
 1755 1940 1755 1940 1797 1886 c 0,2,3
 1826 1848 1826 1848 1826 1796 c 0,4,5
 1826 1776 1826 1776 1822 1755 c 0,6,7
 1806 1678 1806 1678 1741.5 1624 c 128,-1,8
 1677 1570 1677 1570 1601 1570 c 0,9,10
 1523 1570 1523 1570 1483 1624 c 0,11,12
 1454 1663 1454 1663 1454 1714 c 0,13,14
 1454 1734 1454 1734 1458 1755 c 0,15,16
 1474 1832 1474 1832 1538.5 1886 c 128,-1,0
 1603 1940 1603 1940 1679 1940 c 128,-1,1
170 0 m 1,17,-1
 491 1510 l 1,18,-1
 811 1510 l 1,19,-1
 759 1266 l 1,20,21
 981 1530 981 1530 1295 1530 c 0,22,23
 1607 1530 1607 1530 1657 1258 c 1,24,25
 1897 1530 1897 1530 2225 1530 c 0,26,27
 2458 1530 2458 1530 2556 1393 c 0,28,29
 2615 1310 2615 1310 2615 1198 c 0,30,31
 2615 1147 2615 1147 2603 1089 c 2,32,-1
 2372 0 l 1,33,-1
 2052 0 l 1,34,-1
 2282 1083 l 2,35,36
 2294 1141 2294 1141 2294 1185 c 0,37,38
 2294 1244 2294 1244 2272 1279 c 0,39,40
 2230 1346 2230 1346 2128 1346 c 0,41,42
 1972 1346 1972 1346 1826 1222 c 0,43,44
 1661 1083 1661 1083 1615 866 c 2,45,-1
 1431 0 l 1,46,-1
 1111 0 l 1,47,-1
 1341 1083 l 2,48,49
 1353 1137 1353 1137 1353 1180 c 0,50,51
 1353 1240 1353 1240 1329 1276 c 0,52,53
 1284 1346 1284 1346 1187 1346 c 0,54,55
 1034 1346 1034 1346 885 1222 c 0,56,57
 721 1086 721 1086 674 866 c 2,58,-1
 490 0 l 1,59,-1
 170 0 l 1,17,-1
EndSplineSet
Validated: 1
EndChar

StartChar: uni1E41
Encoding: 7745 7745 201
Width: 2144
Flags: W
HStem: 0 21G<170 474.238 922 1226.24 1674 1978.26> 950 170<878.099 1187.5 1620.55 1916.5> 1080 20G<399.745 704> 1160 370<1251.69 1430.23>
VStem: 170 300<0 300> 922 300<0 300> 1674 300<0 300> 1844 300<688.584 898.308>
DStem2: 170 0 470 0 0.207912 0.978148<62.3735 841.111 1004 1124.61> 922 0 1222 0 0.207912 0.978148<62.3735 840.645> 1674 0 1974 0 0.207912 0.978148<62.3735 853.867>
LayerCount: 2
Fore
SplineSet
1380 1530 m 128,-1,1
 1456 1530 1456 1530 1498 1476 c 0,2,3
 1527 1438 1527 1438 1527 1386 c 0,4,5
 1527 1366 1527 1366 1523 1345 c 0,6,7
 1507 1268 1507 1268 1442.5 1214 c 128,-1,8
 1378 1160 1378 1160 1302 1160 c 0,9,10
 1224 1160 1224 1160 1184 1214 c 0,11,12
 1155 1253 1155 1253 1155 1304 c 0,13,14
 1155 1324 1155 1324 1159 1345 c 0,15,16
 1175 1422 1175 1422 1239.5 1476 c 128,-1,0
 1304 1530 1304 1530 1380 1530 c 128,-1,1
170 0 m 1,17,-1
 404 1100 l 1,18,-1
 704 1100 l 1,19,-1
 666 921 l 1,20,21
 850 1120 850 1120 1097 1120 c 0,22,23
 1278 1120 1278 1120 1338 1009 c 0,24,25
 1364 961 1364 961 1371 896 c 1,26,27
 1587 1120 1587 1120 1829 1120 c 0,28,29
 2004 1120 2004 1120 2086 1016 c 0,30,31
 2144 942 2144 942 2144 841 c 0,32,33
 2144 799 2144 799 2134 752 c 2,34,-1
 1974 0 l 1,35,-1
 1674 0 l 1,36,-1
 1833 747 l 2,37,38
 1844 800 1844 800 1844 838 c 0,39,40
 1844 877 1844 877 1832 899 c 0,41,42
 1805 950 1805 950 1735 950 c 0,43,44
 1636 950 1636 950 1522 854 c 0,45,46
 1377 732 1377 732 1336 538 c 2,47,-1
 1222 0 l 1,48,-1
 922 0 l 1,49,-1
 1081 747 l 2,50,51
 1092 797 1092 797 1092 834 c 0,52,53
 1092 875 1092 875 1079 900 c 0,54,55
 1053 950 1053 950 983 950 c 0,56,57
 884 950 884 950 770 854 c 0,58,59
 625 732 625 732 584 538 c 2,60,-1
 470 0 l 1,61,-1
 170 0 l 1,17,-1
EndSplineSet
Validated: 1
EndChar

StartChar: uni1E56
Encoding: 7766 7766 202
Width: 1595
Flags: W
HStem: 0 21G<170 494.245> 344 138<751.398 1056.09> 1346 184<1062.33 1324.33> 1490 20G<486.748 811> 1570 370<1149.69 1328.23>
VStem: 170 320<0 320> 1410 340<895.965 1260.18>
DStem2: 170 0 490 0 0.207912 0.978148<66.5317 1191.29 1360.79 1543.74>
LayerCount: 2
Fore
SplineSet
1278 1940 m 128,-1,1
 1354 1940 1354 1940 1396 1886 c 0,2,3
 1425 1848 1425 1848 1425 1796 c 0,4,5
 1425 1776 1425 1776 1421 1755 c 0,6,7
 1405 1678 1405 1678 1340.5 1624 c 128,-1,8
 1276 1570 1276 1570 1200 1570 c 0,9,10
 1122 1570 1122 1570 1082 1624 c 0,11,12
 1053 1663 1053 1663 1053 1714 c 0,13,14
 1053 1734 1053 1734 1057 1755 c 0,15,16
 1073 1832 1073 1832 1137.5 1886 c 128,-1,0
 1202 1940 1202 1940 1278 1940 c 128,-1,1
170 0 m 1,17,-1
 491 1510 l 1,18,-1
 811 1510 l 1,19,-1
 759 1266 l 1,20,21
 989 1530 989 1530 1309 1530 c 0,22,23
 1536 1530 1536 1530 1656 1381 c 0,24,25
 1750 1265 1750 1265 1750 1113 c 0,26,27
 1750 1069 1750 1069 1742 1022 c 0,28,29
 1684 671 1684 671 1378 479 c 0,30,31
 1162 344 1162 344 949 344 c 0,32,33
 812 344 812 344 739 396 c 0,34,35
 682 437 682 437 652 503 c 1,36,-1
 660 510 l 1,37,38
 754 482 754 482 840 482 c 0,39,40
 1035 482 1035 482 1173 602 c 0,41,42
 1344 751 1344 751 1398 1007 c 0,43,44
 1410 1063 1410 1063 1410 1111 c 0,45,46
 1410 1199 1410 1199 1369 1257 c 0,47,48
 1307 1346 1307 1346 1170 1346 c 0,49,50
 1032 1346 1032 1346 885 1222 c 0,51,52
 720 1083 720 1083 674 867 c 2,53,-1
 490 0 l 1,54,-1
 170 0 l 1,17,-1
EndSplineSet
Validated: 1
EndChar

StartChar: uni1E57
Encoding: 7767 7767 203
Width: 1452
Flags: W
HStem: -410 21G<83 387.248> -20 137<591.181 869.482> 962 158<868.809 1141.63> 1080 20G<399.748 704> 1160 370<959.695 1138.23>
VStem: 83 300<-410 -110> 1203 322<500.491 898.55>
DStem2: 83 -410 383 -410 0.207912 0.978148<62.3735 1257.2 1423.13 1543.74>
LayerCount: 2
Fore
SplineSet
1088 1530 m 128,-1,1
 1164 1530 1164 1530 1206 1476 c 0,2,3
 1235 1438 1235 1438 1235 1386 c 0,4,5
 1235 1366 1235 1366 1231 1345 c 0,6,7
 1215 1268 1215 1268 1150.5 1214 c 128,-1,8
 1086 1160 1086 1160 1010 1160 c 0,9,10
 932 1160 932 1160 892 1214 c 0,11,12
 863 1253 863 1253 863 1304 c 0,13,14
 863 1324 863 1324 867 1345 c 0,15,16
 883 1422 883 1422 947.5 1476 c 128,-1,0
 1012 1530 1012 1530 1088 1530 c 128,-1,1
737 -20 m 0,17,18
 631 -20 631 -20 580 35 c 0,19,20
 548 69 548 69 531 129 c 1,21,-1
 539 136 l 1,22,23
 610 117 610 117 685 117 c 0,24,25
 855 117 855 117 994 248 c 0,26,27
 1143 389 1143 389 1187 595 c 0,28,29
 1203 671 1203 671 1203 732 c 0,30,31
 1203 811 1203 811 1177 867 c 0,32,33
 1134 962 1134 962 1014 962 c 0,34,35
 903 962 903 962 798 880 c 0,36,37
 629 747 629 747 585 541 c 2,38,-1
 383 -410 l 1,39,-1
 83 -410 l 1,40,-1
 404 1100 l 1,41,-1
 704 1100 l 1,42,-1
 666 921 l 1,43,44
 840 1120 840 1120 1082 1120 c 128,-1,45
 1324 1120 1324 1120 1448 957 c 0,46,47
 1525 856 1525 856 1525 725 c 0,48,49
 1525 682 1525 682 1519 643 c 0,50,51
 1476 361 1476 361 1219 161 c 0,52,53
 985 -20 985 -20 737 -20 c 0,17,18
EndSplineSet
Validated: 1
EndChar

StartChar: uni1E60
Encoding: 7776 7776 204
Width: 1352
Flags: W
HStem: -20 170<524.56 868.002> 1358 172<903.27 1179.12> 1570 370<1005.69 1184.23>
VStem: 497 321<1076.59 1257.6> 1058 335<366.796 607.527>
DStem2: 920 1032 701 782 0.886225 -0.463254<-127.013 333.901>
LayerCount: 2
Fore
SplineSet
651 -20 m 0,0,1
 298 -20 298 -20 119 232 c 1,2,-1
 395 363 l 1,3,4
 472 150 472 150 700 150 c 0,5,6
 853 150 853 150 956 264 c 0,7,8
 1034 350 1034 350 1053 449 c 0,9,10
 1058 475 1058 475 1058 499 c 0,11,12
 1058 595 1058 595 959 647 c 2,13,-1
 701 782 l 2,14,15
 497 889 497 889 497 1089 c 0,16,17
 497 1111 497 1111 500 1134 c 0,18,19
 519 1301 519 1301 702 1423 c 0,20,21
 862 1530 862 1530 1075 1530 c 0,22,23
 1343 1530 1343 1530 1469 1365 c 1,24,-1
 1233 1220 l 1,25,26
 1195 1358 1195 1358 1055 1358 c 0,27,28
 965 1358 965 1358 904 1315 c 0,29,30
 834 1266 834 1266 821 1197 c 0,31,32
 818 1181 818 1181 818 1167 c 0,33,34
 818 1085 818 1085 920 1032 c 2,35,-1
 1184 894 l 2,36,37
 1393 785 1393 785 1393 567 c 0,38,39
 1393 537 1393 537 1389 505 c 0,40,41
 1365 320 1365 320 1196 170 c 0,42,43
 981 -20 981 -20 651 -20 c 0,0,1
1134 1940 m 128,-1,45
 1210 1940 1210 1940 1252 1886 c 0,46,47
 1281 1848 1281 1848 1281 1796 c 0,48,49
 1281 1776 1281 1776 1277 1755 c 0,50,51
 1261 1678 1261 1678 1196.5 1624 c 128,-1,52
 1132 1570 1132 1570 1056 1570 c 0,53,54
 978 1570 978 1570 938 1624 c 0,55,56
 909 1663 909 1663 909 1714 c 0,57,58
 909 1734 909 1734 913 1755 c 0,59,60
 929 1832 929 1832 993.5 1886 c 128,-1,44
 1058 1940 1058 1940 1134 1940 c 128,-1,45
EndSplineSet
Validated: 1
EndChar

StartChar: uni1E61
Encoding: 7777 7777 205
Width: 1086
Flags: W
HStem: -20 152<408.454 698.164> 968 152<699.854 921.253> 1160 370<776.695 955.234>
VStem: 376 286<698 923.24> 799 300<249.258 427.586>
LayerCount: 2
Fore
SplineSet
523 -20 m 0,0,1
 243 -20 243 -20 108 180 c 1,2,-1
 348 293 l 1,3,4
 379 132 379 132 544 132 c 0,5,6
 656 132 656 132 729 199 c 0,7,8
 783 248 783 248 795 311 c 0,9,10
 799 332 799 332 799 351 c 0,11,12
 799 407 799 407 734 440 c 2,13,-1
 517 549 l 2,14,15
 376 620 376 620 376 776 c 0,16,17
 376 791 376 791 378 806 c 0,18,19
 392 944 392 944 544 1038 c 0,20,21
 677 1120 677 1120 848 1120 c 0,22,23
 1071 1120 1071 1120 1150 987 c 1,24,-1
 952 866 l 1,25,26
 919 968 919 968 825 968 c 0,27,28
 762 968 762 968 720 940 c 0,29,30
 673 908 673 908 664 866 c 0,31,32
 662 857 662 857 662 849 c 0,33,34
 662 808 662 808 739 769 c 2,35,-1
 951 663 l 2,36,37
 1099 589 1099 589 1099 422 c 0,38,39
 1099 398 1099 398 1095 372 c 0,40,41
 1069 192 1069 192 887 73 c 0,42,43
 745 -20 745 -20 523 -20 c 0,0,1
905 1530 m 128,-1,45
 981 1530 981 1530 1023 1476 c 0,46,47
 1052 1438 1052 1438 1052 1386 c 0,48,49
 1052 1366 1052 1366 1048 1345 c 0,50,51
 1032 1268 1032 1268 967.5 1214 c 128,-1,52
 903 1160 903 1160 827 1160 c 0,53,54
 749 1160 749 1160 709 1214 c 0,55,56
 680 1253 680 1253 680 1304 c 0,57,58
 680 1324 680 1324 684 1345 c 0,59,60
 700 1422 700 1422 764.5 1476 c 128,-1,44
 829 1530 829 1530 905 1530 c 128,-1,45
EndSplineSet
Validated: 1
EndChar

StartChar: uni1E6A
Encoding: 7786 7786 206
Width: 1260
Flags: W
HStem: 0 21G<470 794.254> 1340 170<331 755 1075 1535> 1570 370<915.695 1094.23>
VStem: 470 320<0 320>
DStem2: 470 0 790 0 0.207912 0.978148<66.5317 1369.97>
LayerCount: 2
Fore
SplineSet
1044 1940 m 128,-1,1
 1120 1940 1120 1940 1162 1886 c 0,2,3
 1191 1848 1191 1848 1191 1796 c 0,4,5
 1191 1776 1191 1776 1187 1755 c 0,6,7
 1171 1678 1171 1678 1106.5 1624 c 128,-1,8
 1042 1570 1042 1570 966 1570 c 0,9,10
 888 1570 888 1570 848 1624 c 0,11,12
 819 1663 819 1663 819 1714 c 0,13,14
 819 1734 819 1734 823 1755 c 0,15,16
 839 1832 839 1832 903.5 1886 c 128,-1,0
 968 1940 968 1940 1044 1940 c 128,-1,1
470 0 m 1,17,-1
 755 1340 l 1,18,-1
 295 1340 l 1,19,-1
 331 1510 l 1,20,-1
 1571 1510 l 1,21,-1
 1535 1340 l 1,22,-1
 1075 1340 l 1,23,-1
 790 0 l 1,24,-1
 470 0 l 1,17,-1
EndSplineSet
Validated: 1
EndChar

StartChar: uni1E6B
Encoding: 7787 7787 207
Width: 780
Flags: W
HStem: -20 150<542.251 626> 950 150<264 372 704 972> 1490 20G<486.756 791> 1570 370<608.695 787.234>
VStem: 221 304<149.122 339.99> 491 300<1210 1510>
DStem2: 166.083 -20 466.233 -20 0.207912 0.978148<323.716 991.616 1207.36 1564.12>
LayerCount: 2
Fore
SplineSet
737 1940 m 128,-1,1
 813 1940 813 1940 855 1886 c 0,2,3
 884 1848 884 1848 884 1796 c 0,4,5
 884 1776 884 1776 880 1755 c 0,6,7
 864 1678 864 1678 799.5 1624 c 128,-1,8
 735 1570 735 1570 659 1570 c 0,9,10
 581 1570 581 1570 541 1624 c 0,11,12
 512 1663 512 1663 512 1714 c 0,13,14
 512 1734 512 1734 516 1755 c 0,15,16
 532 1832 532 1832 596.5 1886 c 128,-1,0
 661 1940 661 1940 737 1940 c 128,-1,1
626 -20 m 1,17,18
 221 -20 221 -20 221 209 c 0,19,20
 221 240 221 240 229 276 c 2,21,-1
 372 950 l 1,22,-1
 232 950 l 1,23,-1
 264 1100 l 1,24,-1
 404 1100 l 1,25,-1
 491 1510 l 1,26,-1
 791 1510 l 1,27,-1
 704 1100 l 1,28,-1
 1004 1100 l 1,29,-1
 972 950 l 1,30,-1
 672 950 l 1,31,-1
 530 280 l 2,32,33
 525 255 525 255 525 234 c 0,34,35
 525 130 525 130 658 130 c 1,36,-1
 626 -20 l 1,17,18
EndSplineSet
Validated: 1
EndChar

StartChar: Wgrave
Encoding: 7808 7808 208
Width: 2475
Flags: W
HStem: -20 184<609.248 889.238 1556.37 1830.2> 1490 20G<486.739 811 1427.75 1752 2025 2468>
VStem: 247 322<204.445 484.983> 491 320<1190 1510> 1432 320<1190 1510> 2301 305<765.289 1222.26>
DStem2: 165.263 -20 485.987 -20 0.207912 0.978148<422.752 1564.29> 1106.86 -20 1426.99 -20 0.207912 0.978148<439.583 1564.17>
LayerCount: 2
Fore
SplineSet
638 -20 m 0,0,1
 407 -20 407 -20 307 117 c 0,2,3
 247 200 247 200 247 313 c 0,4,5
 247 364 247 364 259 421 c 2,6,-1
 491 1510 l 1,7,-1
 811 1510 l 1,8,-1
 581 427 l 2,9,10
 569 369 569 369 569 325 c 0,11,12
 569 266 569 266 591 231 c 0,13,14
 633 164 633 164 735 164 c 0,15,16
 891 164 891 164 1037 288 c 0,17,18
 1202 427 1202 427 1248 644 c 2,19,-1
 1432 1510 l 1,20,-1
 1752 1510 l 1,21,-1
 1522 427 l 2,22,23
 1510 373 1510 373 1510 331 c 0,24,25
 1510 271 1510 271 1534 234 c 0,26,27
 1579 164 1579 164 1676 164 c 0,28,29
 1827 164 1827 164 1991 320 c 0,30,31
 2221 537 2221 537 2283 838 c 0,32,33
 2301 927 2301 927 2301 1005 c 0,34,35
 2301 1116 2301 1116 2264 1206 c 0,36,37
 2193 1375 2193 1375 2025 1510 c 1,38,-1
 2412 1510 l 1,39,40
 2524 1403 2524 1403 2571 1253 c 0,41,42
 2606 1146 2606 1146 2606 1031 c 0,43,44
 2606 947 2606 947 2587 858 c 0,45,46
 2508 486 2508 486 2161 211 c 0,47,48
 1870 -20 1870 -20 1568 -20 c 0,49,50
 1256 -20 1256 -20 1206 252 c 1,51,52
 966 -20 966 -20 638 -20 c 0,0,1
1633 1970 m 1,53,-1
 1747 1641 l 1,54,-1
 1601 1550 l 1,55,-1
 1411 1835 l 1,56,-1
 1633 1970 l 1,53,-1
EndSplineSet
Validated: 1
EndChar

StartChar: wgrave
Encoding: 7809 7809 209
Width: 2052
Flags: W
HStem: -20 170<462.5 757.447 1201 1556.38> 1080 20G<399.745 704 1151.72 1456 1625 2024.5>
VStem: 234 300<201.723 411.416> 404 300<800 1100> 1156 300<800 1100> 1843 286<520.876 902.842>
DStem2: 165.779 -20 465.716 -20 0.207912 0.978148<354.539 1145.05> 917.292 -20 1217.72 -20 0.207912 0.978148<370.512 1145.16>
LayerCount: 2
Fore
SplineSet
549 -20 m 0,0,1
 376 -20 376 -20 292 84 c 0,2,3
 234 156 234 156 234 258 c 0,4,5
 234 300 234 300 244 348 c 2,6,-1
 404 1100 l 1,7,-1
 704 1100 l 1,8,-1
 545 353 l 2,9,10
 534 301 534 301 534 263 c 0,11,12
 534 224 534 224 546 201 c 0,13,14
 573 150 573 150 643 150 c 0,15,16
 742 150 742 150 856 246 c 0,17,18
 999 366 999 366 1041 562 c 2,19,-1
 1156 1100 l 1,20,-1
 1456 1100 l 1,21,-1
 1297 353 l 2,22,23
 1286 302 1286 302 1286 264 c 0,24,25
 1286 223 1286 223 1299 200 c 0,26,27
 1325 150 1325 150 1400 150 c 0,28,29
 1538 150 1538 150 1666 282 c 0,30,31
 1792 413 1792 413 1829 586 c 0,32,33
 1843 653 1843 653 1843 712 c 0,34,35
 1843 794 1843 794 1816 864 c 0,36,37
 1760 1004 1760 1004 1625 1100 c 1,38,-1
 1979 1100 l 1,39,40
 2070 1012 2070 1012 2108 892 c 0,41,42
 2128 828 2128 828 2129 753 c 0,43,44
 2129 690 2129 690 2114 619 c 0,45,46
 2059 360 2059 360 1815.5 170 c 128,-1,47
 1572 -20 1572 -20 1299 -20 c 0,48,49
 1103 -20 1103 -20 1040 91 c 0,50,51
 1014 137 1014 137 1007 204 c 1,52,53
 791 -20 791 -20 549 -20 c 0,0,1
1347 1560 m 1,54,-1
 1461 1231 l 1,55,-1
 1315 1140 l 1,56,-1
 1125 1425 l 1,57,-1
 1347 1560 l 1,54,-1
EndSplineSet
Validated: 1
EndChar

StartChar: Wacute
Encoding: 7810 7810 210
Width: 2475
Flags: W
HStem: -20 184<609.248 889.238 1556.37 1830.2> 1490 20G<486.739 811 1427.75 1752 2025 2468>
VStem: 247 322<204.445 484.983> 491 320<1190 1510> 1432 320<1190 1510> 2301 305<765.289 1222.26>
DStem2: 165.263 -20 485.987 -20 0.207912 0.978148<422.752 1564.29> 1106.86 -20 1426.99 -20 0.207912 0.978148<439.583 1564.17>
LayerCount: 2
Fore
SplineSet
1714 1970 m 1,0,-1
 1901 1815 l 1,1,-1
 1609 1550 l 1,2,-1
 1480 1661 l 1,3,-1
 1714 1970 l 1,0,-1
638 -20 m 0,4,5
 407 -20 407 -20 307 117 c 0,6,7
 247 200 247 200 247 313 c 0,8,9
 247 364 247 364 259 421 c 2,10,-1
 491 1510 l 1,11,-1
 811 1510 l 1,12,-1
 581 427 l 2,13,14
 569 369 569 369 569 325 c 0,15,16
 569 266 569 266 591 231 c 0,17,18
 633 164 633 164 735 164 c 0,19,20
 891 164 891 164 1037 288 c 0,21,22
 1202 427 1202 427 1248 644 c 2,23,-1
 1432 1510 l 1,24,-1
 1752 1510 l 1,25,-1
 1522 427 l 2,26,27
 1510 373 1510 373 1510 331 c 0,28,29
 1510 271 1510 271 1534 234 c 0,30,31
 1579 164 1579 164 1676 164 c 0,32,33
 1827 164 1827 164 1991 320 c 0,34,35
 2221 537 2221 537 2283 838 c 0,36,37
 2301 927 2301 927 2301 1005 c 0,38,39
 2301 1116 2301 1116 2264 1206 c 0,40,41
 2193 1375 2193 1375 2025 1510 c 1,42,-1
 2412 1510 l 1,43,44
 2524 1403 2524 1403 2571 1253 c 0,45,46
 2606 1146 2606 1146 2606 1031 c 0,47,48
 2606 947 2606 947 2587 858 c 0,49,50
 2508 486 2508 486 2161 211 c 0,51,52
 1870 -20 1870 -20 1568 -20 c 0,53,54
 1256 -20 1256 -20 1206 252 c 1,55,56
 966 -20 966 -20 638 -20 c 0,4,5
EndSplineSet
Validated: 1
EndChar

StartChar: wacute
Encoding: 7811 7811 211
Width: 2052
Flags: W
HStem: -20 170<462.5 757.447 1201 1556.38> 1080 20G<399.745 704 1151.72 1456 1625 2024.5>
VStem: 234 300<201.723 411.416> 404 300<800 1100> 1156 300<800 1100> 1843 286<520.876 902.842>
DStem2: 165.779 -20 465.716 -20 0.207912 0.978148<354.539 1145.05> 917.292 -20 1217.72 -20 0.207912 0.978148<370.512 1145.16>
LayerCount: 2
Fore
SplineSet
1431 1560 m 1,0,-1
 1618 1405 l 1,1,-1
 1326 1140 l 1,2,-1
 1197 1251 l 1,3,-1
 1431 1560 l 1,0,-1
549 -20 m 0,4,5
 376 -20 376 -20 292 84 c 0,6,7
 234 156 234 156 234 258 c 0,8,9
 234 300 234 300 244 348 c 2,10,-1
 404 1100 l 1,11,-1
 704 1100 l 1,12,-1
 545 353 l 2,13,14
 534 301 534 301 534 263 c 0,15,16
 534 224 534 224 546 201 c 0,17,18
 573 150 573 150 643 150 c 0,19,20
 742 150 742 150 856 246 c 0,21,22
 999 366 999 366 1041 562 c 2,23,-1
 1156 1100 l 1,24,-1
 1456 1100 l 1,25,-1
 1297 353 l 2,26,27
 1286 302 1286 302 1286 264 c 0,28,29
 1286 223 1286 223 1299 200 c 0,30,31
 1325 150 1325 150 1400 150 c 0,32,33
 1538 150 1538 150 1666 282 c 0,34,35
 1792 413 1792 413 1829 586 c 0,36,37
 1843 653 1843 653 1843 712 c 0,38,39
 1843 794 1843 794 1816 864 c 0,40,41
 1760 1004 1760 1004 1625 1100 c 1,42,-1
 1979 1100 l 1,43,44
 2070 1012 2070 1012 2108 892 c 0,45,46
 2128 828 2128 828 2129 753 c 0,47,48
 2129 690 2129 690 2114 619 c 0,49,50
 2059 360 2059 360 1815.5 170 c 128,-1,51
 1572 -20 1572 -20 1299 -20 c 0,52,53
 1103 -20 1103 -20 1040 91 c 0,54,55
 1014 137 1014 137 1007 204 c 1,56,57
 791 -20 791 -20 549 -20 c 0,4,5
EndSplineSet
Validated: 1
EndChar

StartChar: Wdieresis
Encoding: 7812 7812 212
Width: 2475
Flags: W
HStem: -20 184<609.248 889.238 1556.37 1830.2> 1490 20G<486.739 811 1427.75 1752 2025 2468> 1600 282<1394.1 1558.97 1729.75 1893.5>
VStem: 247 322<204.445 484.983> 491 320<1190 1510> 1334 285<1659.1 1821.9> 1432 320<1190 1510> 1668 287<1660.63 1820.79> 2301 305<765.289 1222.26>
DStem2: 165.263 -20 485.987 -20 0.207912 0.978148<422.752 1564.29> 1106.86 -20 1426.99 -20 0.207912 0.978148<439.583 1564.17>
LayerCount: 2
Fore
SplineSet
1842 1882 m 128,-1,1
 1900 1882 1900 1882 1932 1841 c 0,2,3
 1955 1812 1955 1812 1955 1773 c 0,4,5
 1955 1755 1955 1755 1952 1741 c 0,6,7
 1940 1682 1940 1682 1890 1641 c 128,-1,8
 1840 1600 1840 1600 1782 1600 c 0,9,10
 1723 1600 1723 1600 1691 1641 c 0,11,12
 1668 1671 1668 1671 1668 1710 c 0,13,14
 1668 1729 1668 1729 1671 1741 c 0,15,16
 1683 1800 1683 1800 1733.5 1841 c 128,-1,0
 1784 1882 1784 1882 1842 1882 c 128,-1,1
1507 1882 m 128,-1,18
 1566 1882 1566 1882 1597 1841 c 0,19,20
 1619 1812 1619 1812 1619 1773 c 0,21,22
 1619 1758 1619 1758 1615 1740 c 0,23,24
 1603 1681 1603 1681 1554.5 1640.5 c 128,-1,25
 1506 1600 1506 1600 1447 1600 c 0,26,27
 1389 1600 1389 1600 1357 1641 c 0,28,29
 1334 1670 1334 1670 1334 1709 c 0,30,31
 1334 1728 1334 1728 1337 1741 c 0,32,33
 1349 1800 1349 1800 1398.5 1841 c 128,-1,17
 1448 1882 1448 1882 1507 1882 c 128,-1,18
638 -20 m 0,34,35
 407 -20 407 -20 307 117 c 0,36,37
 247 200 247 200 247 313 c 0,38,39
 247 364 247 364 259 421 c 2,40,-1
 491 1510 l 1,41,-1
 811 1510 l 1,42,-1
 581 427 l 2,43,44
 569 369 569 369 569 325 c 0,45,46
 569 266 569 266 591 231 c 0,47,48
 633 164 633 164 735 164 c 0,49,50
 891 164 891 164 1037 288 c 0,51,52
 1202 427 1202 427 1248 644 c 2,53,-1
 1432 1510 l 1,54,-1
 1752 1510 l 1,55,-1
 1522 427 l 2,56,57
 1510 373 1510 373 1510 331 c 0,58,59
 1510 271 1510 271 1534 234 c 0,60,61
 1579 164 1579 164 1676 164 c 0,62,63
 1827 164 1827 164 1991 320 c 0,64,65
 2221 537 2221 537 2283 838 c 0,66,67
 2301 927 2301 927 2301 1005 c 0,68,69
 2301 1116 2301 1116 2264 1206 c 0,70,71
 2193 1375 2193 1375 2025 1510 c 1,72,-1
 2412 1510 l 1,73,74
 2524 1403 2524 1403 2571 1253 c 0,75,76
 2606 1146 2606 1146 2606 1031 c 0,77,78
 2606 947 2606 947 2587 858 c 0,79,80
 2508 486 2508 486 2161 211 c 0,81,82
 1870 -20 1870 -20 1568 -20 c 0,83,84
 1256 -20 1256 -20 1206 252 c 1,85,86
 966 -20 966 -20 638 -20 c 0,34,35
EndSplineSet
Validated: 1
EndChar

StartChar: wdieresis
Encoding: 7813 7813 213
Width: 2052
Flags: W
HStem: -20 170<462.5 757.447 1201 1556.38> 1080 20G<399.745 704 1151.72 1456 1625 2024.5> 1190 282<1107.1 1271.97 1442.75 1606.5>
VStem: 234 300<201.723 411.416> 404 300<800 1100> 1047 285<1249.1 1411.9> 1156 300<800 1100> 1381 287<1250.63 1410.79> 1843 286<520.876 902.842>
DStem2: 165.779 -20 465.716 -20 0.207912 0.978148<354.539 1145.05> 917.292 -20 1217.72 -20 0.207912 0.978148<370.512 1145.16>
LayerCount: 2
Fore
SplineSet
1555 1472 m 128,-1,1
 1613 1472 1613 1472 1645 1431 c 0,2,3
 1668 1402 1668 1402 1668 1363 c 0,4,5
 1668 1345 1668 1345 1665 1331 c 0,6,7
 1653 1272 1653 1272 1603 1231 c 128,-1,8
 1553 1190 1553 1190 1495 1190 c 0,9,10
 1436 1190 1436 1190 1404 1231 c 0,11,12
 1381 1261 1381 1261 1381 1300 c 0,13,14
 1381 1319 1381 1319 1384 1331 c 0,15,16
 1396 1390 1396 1390 1446.5 1431 c 128,-1,0
 1497 1472 1497 1472 1555 1472 c 128,-1,1
1220 1472 m 128,-1,18
 1279 1472 1279 1472 1310 1431 c 0,19,20
 1332 1402 1332 1402 1332 1363 c 0,21,22
 1332 1348 1332 1348 1328 1330 c 0,23,24
 1316 1271 1316 1271 1267.5 1230.5 c 128,-1,25
 1219 1190 1219 1190 1160 1190 c 0,26,27
 1102 1190 1102 1190 1070 1231 c 0,28,29
 1047 1260 1047 1260 1047 1299 c 0,30,31
 1047 1318 1047 1318 1050 1331 c 0,32,33
 1062 1390 1062 1390 1111.5 1431 c 128,-1,17
 1161 1472 1161 1472 1220 1472 c 128,-1,18
549 -20 m 0,34,35
 376 -20 376 -20 292 84 c 0,36,37
 234 156 234 156 234 258 c 0,38,39
 234 300 234 300 244 348 c 2,40,-1
 404 1100 l 1,41,-1
 704 1100 l 1,42,-1
 545 353 l 2,43,44
 534 301 534 301 534 263 c 0,45,46
 534 224 534 224 546 201 c 0,47,48
 573 150 573 150 643 150 c 0,49,50
 742 150 742 150 856 246 c 0,51,52
 999 366 999 366 1041 562 c 2,53,-1
 1156 1100 l 1,54,-1
 1456 1100 l 1,55,-1
 1297 353 l 2,56,57
 1286 302 1286 302 1286 264 c 0,58,59
 1286 223 1286 223 1299 200 c 0,60,61
 1325 150 1325 150 1400 150 c 0,62,63
 1538 150 1538 150 1666 282 c 0,64,65
 1792 413 1792 413 1829 586 c 0,66,67
 1843 653 1843 653 1843 712 c 0,68,69
 1843 794 1843 794 1816 864 c 0,70,71
 1760 1004 1760 1004 1625 1100 c 1,72,-1
 1979 1100 l 1,73,74
 2070 1012 2070 1012 2108 892 c 0,75,76
 2128 828 2128 828 2129 753 c 0,77,78
 2129 690 2129 690 2114 619 c 0,79,80
 2059 360 2059 360 1815.5 170 c 128,-1,81
 1572 -20 1572 -20 1299 -20 c 0,82,83
 1103 -20 1103 -20 1040 91 c 0,84,85
 1014 137 1014 137 1007 204 c 1,86,87
 791 -20 791 -20 549 -20 c 0,34,35
EndSplineSet
Validated: 1
EndChar

StartChar: Ygrave
Encoding: 7922 7922 214
Width: 1524
Flags: W
HStem: 0 21G<588 912.255> 1490 20G<326 661.44 1608.47 1840>
VStem: 326 329<1181 1510> 588 320<0 320> 1624 216<1294 1510>
DStem2: 655 1510 326 1510 0.30782 -0.951445<0 926.595> 939 628 998 423 0.612379 0.790565<0 1116.76>
LayerCount: 2
Fore
SplineSet
588 0 m 1,0,-1
 678 422 l 1,1,-1
 326 1510 l 1,2,-1
 655 1510 l 1,3,-1
 939 628 l 1,4,-1
 1624 1510 l 1,5,-1
 1840 1510 l 1,6,-1
 998 423 l 1,7,-1
 908 0 l 1,8,-1
 588 0 l 1,0,-1
1214 1970 m 1,9,-1
 1328 1641 l 1,10,-1
 1182 1550 l 1,11,-1
 992 1835 l 1,12,-1
 1214 1970 l 1,9,-1
EndSplineSet
Validated: 1
EndChar

